<?xml version="1.0" standalone="no"?>
 <!DOCTYPE svg PUBLIC "-//W3C//DTD SVG 1.1//EN" 
 "http://www.w3.org/Graphics/SVG/1.1/DTD/svg11.dtd"> 
<svg
  xmlns:svg="http://www.w3.org/2000/svg"
  xmlns="http://www.w3.org/2000/svg"
  xmlns:xlink="http://www.w3.org/1999/xlink"
  version="1.1"
  width="297.0022mm" height="210.0072mm" viewBox="0.0000 0.0000 297.0022 210.0072">
<title>SVG Image created as bottom-Edge_Cuts.svg date 2025/04/05 12:53:40 </title>
  <desc>Image generated by PCBNEW </desc>
<g style="fill:#000000; fill-opacity:1.0000;stroke:#000000; stroke-opacity:1.0000;
stroke-linecap:round; stroke-linejoin:round;"
 transform="translate(0 0) scale(1 1)">
</g>
<g style="fill:none; 
stroke:#000000; stroke-width:0.1000; stroke-opacity:1; 
stroke-linecap:round; stroke-linejoin:round;">
<circle cx="161.9000" cy="142.9000" r="1.1000" /> 
</g>
<g style="fill:none; 
stroke:#000000; stroke-width:0.0500; stroke-opacity:1; 
stroke-linecap:round; stroke-linejoin:round;">
<path d="M178.0000 161.9500
L69.6500 161.9500
" />
</g>
<g style="fill:none; 
stroke:#000000; stroke-width:0.1000; stroke-opacity:1; 
stroke-linecap:round; stroke-linejoin:round;">
<circle cx="85.7250" cy="85.7250" r="1.1000" /> 
<circle cx="161.9250" cy="85.7250" r="1.1000" /> 
</g>
<g style="fill:none; 
stroke:#000000; stroke-width:0.0500; stroke-opacity:1; 
stroke-linecap:round; stroke-linejoin:round;">
<path d="M181.0000 42.1000 A3.0000 3.0000 0.0 0 0 178.0000 39.1000" />
<path d="M66.6500 158.9500
L66.6500 42.1000
" />
<path d="M69.6500 39.1000 A3.0000 3.0000 0.0 0 0 66.6500 42.1000" />
</g>
<g style="fill:none; 
stroke:#000000; stroke-width:0.1000; stroke-opacity:1; 
stroke-linecap:round; stroke-linejoin:round;">
<circle cx="177.0400" cy="62.6000" r="1.1000" /> 
<circle cx="70.6500" cy="62.6000" r="1.1000" /> 
</g>
<g style="fill:none; 
stroke:#000000; stroke-width:0.0500; stroke-opacity:1; 
stroke-linecap:round; stroke-linejoin:round;">
<path d="M178.0000 161.9500 A3.0000 3.0000 0.0 0 0 181.0000 158.9500" />
</g>
<g style="fill:none; 
stroke:#000000; stroke-width:0.1000; stroke-opacity:1; 
stroke-linecap:round; stroke-linejoin:round;">
<circle cx="177.0400" cy="43.1000" r="1.1000" /> 
<circle cx="70.6500" cy="43.1000" r="1.1000" /> 
</g>
<g style="fill:none; 
stroke:#000000; stroke-width:0.0500; stroke-opacity:1; 
stroke-linecap:round; stroke-linejoin:round;">
<path d="M66.6500 158.9500 A3.0000 3.0000 0.0 0 0 69.6500 161.9500" />
<path d="M175.5000 39.1000
L178.0000 39.1000
" />
<path d="M71.1000 39.1000
L69.6500 39.1000
" />
</g>
<g style="fill:none; 
stroke:#000000; stroke-width:0.1000; stroke-opacity:1; 
stroke-linecap:round; stroke-linejoin:round;">
<circle cx="123.8250" cy="104.7750" r="1.1000" /> 
<circle cx="85.7252" cy="142.8714" r="1.1000" /> 
</g>
<g style="fill:none; 
stroke:#000000; stroke-width:0.0500; stroke-opacity:1; 
stroke-linecap:round; stroke-linejoin:round;">
<path d="M71.1000 39.1000
L175.5000 39.1000
" />
<path d="M181.0000 42.1000
L181.0000 158.9500
" />
</g> 
</svg>
