  0
SECTION
  2
HEADER
  9
$ANGBASE
  50
0.0
  9
$ANGDIR
  70
1
  9
$MEASUREMENT
  70
0
  0
ENDSEC
  0
SECTION
  2
TABLES
  0
TABLE
  2
LTYPE
  70
4
  0
LTYPE
  5
40F
  2
CONTINUOUS
  70
0
  3
Solid line
  72
65
  73
0
  40
0.0
  0
LTYPE
  5
410
  2
DASHDOT
 70
0
  3
Dash Dot ____ _ ____ _
 72
65
 73
4
 40
2.0
 49
1.25
 49
-0.25
 49
0.25
 49
-0.25
  0
LTYPE
  5
411
  2
DASHED
 70
0
  3
Dashed __ __ __ __ __
 72
65
 73
2
 40
0.75
 49
0.5
 49
-0.25
  0
LTYPE
  5
43B
  2
DOTTED
 70
0
  3
Dotted .  .  .  .
 72
65
 73
2
 40
0.2
 49
0.0
 49
-0.2
  0
ENDTAB
  0
TABLE
  2
STYLE
  70
4
  0
STYLE
  2
KICAD
  70
0
  40
0
  41
1
  42
1
  50
0
  71
0
  3
isocp.shx
  0
STYLE
  2
KICADB
  70
0
  40
0
  41
1
  42
1
  50
0
  71
0
  3
isocp.shx
  0
STYLE
  2
KICADI
  70
0
  40
0
  41
1
  42
1
  50
15
  71
0
  3
isocp.shx
  0
STYLE
  2
KICADBI
  70
0
  40
0
  41
1
  42
1
  50
15
  71
0
  3
isocp.shx
  0
ENDTAB
  0
TABLE
  2
LAYER
  70
1
  0
LAYER
  2
BLACK
  70
0
  62
7
  6
CONTINUOUS
  0
ENDTAB
  0
ENDSEC
  0
SECTION
  2
ENTITIES
0
LINE
8
BLACK
6
CONTINUOUS
10
2.7918356692913386
20
-2.4214993700787399
11
2.7984456299212597
21
-2.4236470866141731
0
LINE
8
BLACK
6
CONTINUOUS
10
2.7984456299212597
20
-2.4236470866141731
11
2.8046382283464566
21
-2.4268023622047243
0
LINE
8
BLACK
6
CONTINUOUS
10
2.8046382283464566
20
-2.4268023622047243
11
2.8102609842519684
21
-2.4308875196850392
0
LINE
8
BLACK
6
CONTINUOUS
10
2.8102609842519684
20
-2.4308875196850392
11
2.815175472440945
21
-2.4358020078740159
0
LINE
8
BLACK
6
CONTINUOUS
10
2.815175472440945
20
-2.4358020078740159
11
2.8192606299212599
21
-2.4414247637795277
0
LINE
8
BLACK
6
CONTINUOUS
10
2.8192606299212599
20
-2.4414247637795277
11
2.8224159055118108
21
-2.4476173622047241
0
LINE
8
BLACK
6
CONTINUOUS
10
2.8224159055118108
20
-2.4476173622047241
11
2.8245636220472439
21
-2.4542273228346456
0
LINE
8
BLACK
6
CONTINUOUS
10
2.8245636220472439
20
-2.4542273228346456
11
2.8256508661417321
21
-2.4610918897637797
0
LINE
8
BLACK
6
CONTINUOUS
10
2.8256508661417321
20
-2.4610918897637797
11
2.8256508661417321
21
-2.468041968503937
0
LINE
8
BLACK
6
CONTINUOUS
10
2.8256508661417321
20
-2.468041968503937
11
2.8245636220472439
21
-2.4749065354330706
0
LINE
8
BLACK
6
CONTINUOUS
10
2.8245636220472439
20
-2.4749065354330706
11
2.8224159055118108
21
-2.4815164960629921
0
LINE
8
BLACK
6
CONTINUOUS
10
2.8224159055118108
20
-2.4815164960629921
11
2.8192606299212599
21
-2.487709094488189
0
LINE
8
BLACK
6
CONTINUOUS
10
2.8192606299212599
20
-2.487709094488189
11
2.815175472440945
21
-2.4933318503937008
0
LINE
8
BLACK
6
CONTINUOUS
10
2.815175472440945
20
-2.4933318503937008
11
2.8102609842519684
21
-2.498246338582677
0
LINE
8
BLACK
6
CONTINUOUS
10
2.8102609842519684
20
-2.498246338582677
11
2.8046382283464566
21
-2.5023314960629919
0
LINE
8
BLACK
6
CONTINUOUS
10
2.8046382283464566
20
-2.5023314960629919
11
2.7984456299212597
21
-2.5054867716535432
0
LINE
8
BLACK
6
CONTINUOUS
10
2.7984456299212597
20
-2.5054867716535432
11
2.7918356692913386
21
-2.5076344881889763
0
LINE
8
BLACK
6
CONTINUOUS
10
2.7918356692913386
20
-2.5076344881889763
11
2.7849711023622046
21
-2.5087217322834645
0
LINE
8
BLACK
6
CONTINUOUS
10
2.7849711023622046
20
-2.5087217322834645
11
2.7780210236220473
21
-2.5087217322834645
0
LINE
8
BLACK
6
CONTINUOUS
10
2.7780210236220473
20
-2.5087217322834645
11
2.7711564566929132
21
-2.5076344881889763
0
LINE
8
BLACK
6
CONTINUOUS
10
2.7711564566929132
20
-2.5076344881889763
11
2.7645464960629922
21
-2.5054867716535432
0
LINE
8
BLACK
6
CONTINUOUS
10
2.7645464960629922
20
-2.5054867716535432
11
2.7583538976377953
21
-2.5023314960629919
0
LINE
8
BLACK
6
CONTINUOUS
10
2.7583538976377953
20
-2.5023314960629919
11
2.7527311417322835
21
-2.498246338582677
0
LINE
8
BLACK
6
CONTINUOUS
10
2.7527311417322835
20
-2.498246338582677
11
2.7478166535433068
21
-2.4933318503937008
0
LINE
8
BLACK
6
CONTINUOUS
10
2.7478166535433068
20
-2.4933318503937008
11
2.7437314960629919
21
-2.487709094488189
0
LINE
8
BLACK
6
CONTINUOUS
10
2.7437314960629919
20
-2.487709094488189
11
2.7405762204724411
21
-2.4815164960629921
0
LINE
8
BLACK
6
CONTINUOUS
10
2.7405762204724411
20
-2.4815164960629921
11
2.738428503937008
21
-2.4749065354330706
0
LINE
8
BLACK
6
CONTINUOUS
10
2.738428503937008
20
-2.4749065354330706
11
2.7373412598425197
21
-2.468041968503937
0
LINE
8
BLACK
6
CONTINUOUS
10
2.7373412598425197
20
-2.468041968503937
11
2.7373412598425197
21
-2.4612360629921257
0
LINE
8
BLACK
6
CONTINUOUS
10
2.7373412598425197
20
-2.4612360629921257
11
2.7373412598425197
21
-2.4610918897637797
0
LINE
8
BLACK
6
CONTINUOUS
10
2.7373412598425197
20
-2.4610918897637797
11
2.738428503937008
21
-2.4542273228346456
0
LINE
8
BLACK
6
CONTINUOUS
10
2.738428503937008
20
-2.4542273228346456
11
2.7405762204724411
21
-2.4476173622047241
0
LINE
8
BLACK
6
CONTINUOUS
10
2.7405762204724411
20
-2.4476173622047241
11
2.7437314960629919
21
-2.4414247637795277
0
LINE
8
BLACK
6
CONTINUOUS
10
2.7437314960629919
20
-2.4414247637795277
11
2.7478166535433068
21
-2.4358020078740159
0
LINE
8
BLACK
6
CONTINUOUS
10
2.7478166535433068
20
-2.4358020078740159
11
2.7527311417322835
21
-2.4308875196850392
0
LINE
8
BLACK
6
CONTINUOUS
10
2.7527311417322835
20
-2.4308875196850392
11
2.7583538976377953
21
-2.4268023622047243
0
LINE
8
BLACK
6
CONTINUOUS
10
2.7583538976377953
20
-2.4268023622047243
11
2.7645464960629922
21
-2.4236470866141731
0
LINE
8
BLACK
6
CONTINUOUS
10
2.7645464960629922
20
-2.4236470866141731
11
2.7711564566929132
21
-2.4214993700787399
0
LINE
8
BLACK
6
CONTINUOUS
10
2.7711564566929132
20
-2.4214993700787399
11
2.7780210236220473
21
-2.4204121259842517
0
LINE
8
BLACK
6
CONTINUOUS
10
2.7780210236220473
20
-2.4204121259842517
11
2.7849711023622046
21
-2.4204121259842517
0
LINE
8
BLACK
6
CONTINUOUS
10
2.7849711023622046
20
-2.4204121259842517
11
2.7918356692913386
21
-2.4214993700787399
0
LINE
8
BLACK
6
CONTINUOUS
10
2.7391732283464565
20
-2.4678977952755905
11
2.7402153543307084
21
-2.474477559055118
0
LINE
8
BLACK
6
CONTINUOUS
10
2.7402153543307084
20
-2.474477559055118
11
2.7422739763779527
21
-2.4808132677165355
0
LINE
8
BLACK
6
CONTINUOUS
10
2.7422739763779527
20
-2.4808132677165355
11
2.7452983464566927
21
-2.4867489370078739
0
LINE
8
BLACK
6
CONTINUOUS
10
2.7452983464566927
20
-2.4867489370078739
11
2.7492140157480316
21
-2.4921383858267716
0
LINE
8
BLACK
6
CONTINUOUS
10
2.7492140157480316
20
-2.4921383858267716
11
2.7539246062992127
21
-2.4968489763779527
0
LINE
8
BLACK
6
CONTINUOUS
10
2.7539246062992127
20
-2.4968489763779527
11
2.7593140551181103
21
-2.5007646456692911
0
LINE
8
BLACK
6
CONTINUOUS
10
2.7593140551181103
20
-2.5007646456692911
11
2.7652497244094487
21
-2.5037890157480316
0
LINE
8
BLACK
6
CONTINUOUS
10
2.7652497244094487
20
-2.5037890157480316
11
2.7715854330708662
21
-2.5058476377952754
0
LINE
8
BLACK
6
CONTINUOUS
10
2.7715854330708662
20
-2.5058476377952754
11
2.7781651968503938
21
-2.5068897637795273
0
LINE
8
BLACK
6
CONTINUOUS
10
2.7781651968503938
20
-2.5068897637795273
11
2.7848269291338581
21
-2.5068897637795273
0
LINE
8
BLACK
6
CONTINUOUS
10
2.7848269291338581
20
-2.5068897637795273
11
2.7914066929133856
21
-2.5058476377952754
0
LINE
8
BLACK
6
CONTINUOUS
10
2.7914066929133856
20
-2.5058476377952754
11
2.7977424015748031
21
-2.5037890157480316
0
LINE
8
BLACK
6
CONTINUOUS
10
2.7977424015748031
20
-2.5037890157480316
11
2.8036780708661415
21
-2.5007646456692911
0
LINE
8
BLACK
6
CONTINUOUS
10
2.8036780708661415
20
-2.5007646456692911
11
2.8090675196850392
21
-2.4968489763779527
0
LINE
8
BLACK
6
CONTINUOUS
10
2.8090675196850392
20
-2.4968489763779527
11
2.8137781102362203
21
-2.4921383858267716
0
LINE
8
BLACK
6
CONTINUOUS
10
2.8137781102362203
20
-2.4921383858267716
11
2.8176937795275592
21
-2.4867489370078739
0
LINE
8
BLACK
6
CONTINUOUS
10
2.8176937795275592
20
-2.4867489370078739
11
2.8207181496062992
21
-2.4808132677165355
0
LINE
8
BLACK
6
CONTINUOUS
10
2.8207181496062992
20
-2.4808132677165355
11
2.8227767716535435
21
-2.474477559055118
0
LINE
8
BLACK
6
CONTINUOUS
10
2.8227767716535435
20
-2.474477559055118
11
2.8238188976377954
21
-2.4678977952755905
0
LINE
8
BLACK
6
CONTINUOUS
10
2.8238188976377954
20
-2.4678977952755905
11
2.8238188976377954
21
-2.4612360629921257
0
LINE
8
BLACK
6
CONTINUOUS
10
2.8238188976377954
20
-2.4612360629921257
11
2.8227767716535435
21
-2.4546562992125982
0
LINE
8
BLACK
6
CONTINUOUS
10
2.8227767716535435
20
-2.4546562992125982
11
2.8207181496062992
21
-2.4483205905511811
0
LINE
8
BLACK
6
CONTINUOUS
10
2.8207181496062992
20
-2.4483205905511811
11
2.8176937795275592
21
-2.4423849212598423
0
LINE
8
BLACK
6
CONTINUOUS
10
2.8176937795275592
20
-2.4423849212598423
11
2.8137781102362203
21
-2.4369954724409446
0
LINE
8
BLACK
6
CONTINUOUS
10
2.8137781102362203
20
-2.4369954724409446
11
2.8090675196850392
21
-2.4322848818897636
0
LINE
8
BLACK
6
CONTINUOUS
10
2.8090675196850392
20
-2.4322848818897636
11
2.8036780708661415
21
-2.4283692125984251
0
LINE
8
BLACK
6
CONTINUOUS
10
2.8036780708661415
20
-2.4283692125984251
11
2.7977424015748031
21
-2.4253448425196851
0
LINE
8
BLACK
6
CONTINUOUS
10
2.7977424015748031
20
-2.4253448425196851
11
2.7914066929133856
21
-2.4232862204724408
0
LINE
8
BLACK
6
CONTINUOUS
10
2.7914066929133856
20
-2.4232862204724408
11
2.7848269291338581
21
-2.4222440944881889
0
LINE
8
BLACK
6
CONTINUOUS
10
2.7848269291338581
20
-2.4222440944881889
11
2.7781651968503938
21
-2.4222440944881889
0
LINE
8
BLACK
6
CONTINUOUS
10
2.7781651968503938
20
-2.4222440944881889
11
2.7715854330708662
21
-2.4232862204724408
0
LINE
8
BLACK
6
CONTINUOUS
10
2.7715854330708662
20
-2.4232862204724408
11
2.7652497244094487
21
-2.4253448425196851
0
LINE
8
BLACK
6
CONTINUOUS
10
2.7652497244094487
20
-2.4253448425196851
11
2.7593140551181103
21
-2.4283692125984251
0
LINE
8
BLACK
6
CONTINUOUS
10
2.7593140551181103
20
-2.4283692125984251
11
2.7539246062992127
21
-2.4322848818897636
0
LINE
8
BLACK
6
CONTINUOUS
10
2.7539246062992127
20
-2.4322848818897636
11
2.7492140157480316
21
-2.4369954724409446
0
LINE
8
BLACK
6
CONTINUOUS
10
2.7492140157480316
20
-2.4369954724409446
11
2.7452983464566927
21
-2.4423849212598423
0
LINE
8
BLACK
6
CONTINUOUS
10
2.7452983464566927
20
-2.4423849212598423
11
2.7422739763779527
21
-2.4483205905511811
0
LINE
8
BLACK
6
CONTINUOUS
10
2.7422739763779527
20
-2.4483205905511811
11
2.7402153543307084
21
-2.4546562992125982
0
LINE
8
BLACK
6
CONTINUOUS
10
2.7402153543307084
20
-2.4546562992125982
11
2.7391732283464565
21
-2.4612360629921257
0
LINE
8
BLACK
6
CONTINUOUS
10
2.7391732283464565
20
-2.4612360629921257
11
2.7391732283464565
21
-2.4678977952755905
0
LINE
8
BLACK
6
CONTINUOUS
10
6.9804183464566929
20
-2.4214993700787399
11
6.9870283070866144
21
-2.4236470866141731
0
LINE
8
BLACK
6
CONTINUOUS
10
6.9870283070866144
20
-2.4236470866141731
11
6.9932209055118113
21
-2.4268023622047243
0
LINE
8
BLACK
6
CONTINUOUS
10
6.9932209055118113
20
-2.4268023622047243
11
6.9988436614173226
21
-2.4308875196850392
0
LINE
8
BLACK
6
CONTINUOUS
10
6.9988436614173226
20
-2.4308875196850392
11
7.0037581496062993
21
-2.4358020078740159
0
LINE
8
BLACK
6
CONTINUOUS
10
7.0037581496062993
20
-2.4358020078740159
11
7.0078433070866142
21
-2.4414247637795277
0
LINE
8
BLACK
6
CONTINUOUS
10
7.0078433070866142
20
-2.4414247637795277
11
7.010998582677165
21
-2.4476173622047241
0
LINE
8
BLACK
6
CONTINUOUS
10
7.010998582677165
20
-2.4476173622047241
11
7.0131462992125986
21
-2.4542273228346456
0
LINE
8
BLACK
6
CONTINUOUS
10
7.0131462992125986
20
-2.4542273228346456
11
7.0142335433070864
21
-2.4610918897637797
0
LINE
8
BLACK
6
CONTINUOUS
10
7.0142335433070864
20
-2.4610918897637797
11
7.0142335433070864
21
-2.468041968503937
0
LINE
8
BLACK
6
CONTINUOUS
10
7.0142335433070864
20
-2.468041968503937
11
7.0131462992125986
21
-2.4749065354330706
0
LINE
8
BLACK
6
CONTINUOUS
10
7.0131462992125986
20
-2.4749065354330706
11
7.010998582677165
21
-2.4815164960629921
0
LINE
8
BLACK
6
CONTINUOUS
10
7.010998582677165
20
-2.4815164960629921
11
7.0078433070866142
21
-2.487709094488189
0
LINE
8
BLACK
6
CONTINUOUS
10
7.0078433070866142
20
-2.487709094488189
11
7.0037581496062993
21
-2.4933318503937008
0
LINE
8
BLACK
6
CONTINUOUS
10
7.0037581496062993
20
-2.4933318503937008
11
6.9988436614173226
21
-2.498246338582677
0
LINE
8
BLACK
6
CONTINUOUS
10
6.9988436614173226
20
-2.498246338582677
11
6.9932209055118113
21
-2.5023314960629919
0
LINE
8
BLACK
6
CONTINUOUS
10
6.9932209055118113
20
-2.5023314960629919
11
6.9870283070866144
21
-2.5054867716535432
0
LINE
8
BLACK
6
CONTINUOUS
10
6.9870283070866144
20
-2.5054867716535432
11
6.9804183464566929
21
-2.5076344881889763
0
LINE
8
BLACK
6
CONTINUOUS
10
6.9804183464566929
20
-2.5076344881889763
11
6.9735537795275588
21
-2.5087217322834645
0
LINE
8
BLACK
6
CONTINUOUS
10
6.9735537795275588
20
-2.5087217322834645
11
6.9666037007874015
21
-2.5087217322834645
0
LINE
8
BLACK
6
CONTINUOUS
10
6.9666037007874015
20
-2.5087217322834645
11
6.9597391338582675
21
-2.5076344881889763
0
LINE
8
BLACK
6
CONTINUOUS
10
6.9597391338582675
20
-2.5076344881889763
11
6.953129173228346
21
-2.5054867716535432
0
LINE
8
BLACK
6
CONTINUOUS
10
6.953129173228346
20
-2.5054867716535432
11
6.9469365748031491
21
-2.5023314960629919
0
LINE
8
BLACK
6
CONTINUOUS
10
6.9469365748031491
20
-2.5023314960629919
11
6.9413138188976378
21
-2.498246338582677
0
LINE
8
BLACK
6
CONTINUOUS
10
6.9413138188976378
20
-2.498246338582677
11
6.9363993307086611
21
-2.4933318503937008
0
LINE
8
BLACK
6
CONTINUOUS
10
6.9363993307086611
20
-2.4933318503937008
11
6.9323141732283462
21
-2.487709094488189
0
LINE
8
BLACK
6
CONTINUOUS
10
6.9323141732283462
20
-2.487709094488189
11
6.9291588976377954
21
-2.4815164960629921
0
LINE
8
BLACK
6
CONTINUOUS
10
6.9291588976377954
20
-2.4815164960629921
11
6.9270111811023618
21
-2.4749065354330706
0
LINE
8
BLACK
6
CONTINUOUS
10
6.9270111811023618
20
-2.4749065354330706
11
6.925923937007874
21
-2.468041968503937
0
LINE
8
BLACK
6
CONTINUOUS
10
6.925923937007874
20
-2.468041968503937
11
6.925923937007874
21
-2.4612360629921257
0
LINE
8
BLACK
6
CONTINUOUS
10
6.925923937007874
20
-2.4612360629921257
11
6.925923937007874
21
-2.4610918897637797
0
LINE
8
BLACK
6
CONTINUOUS
10
6.925923937007874
20
-2.4610918897637797
11
6.9270111811023618
21
-2.4542273228346456
0
LINE
8
BLACK
6
CONTINUOUS
10
6.9270111811023618
20
-2.4542273228346456
11
6.9291588976377954
21
-2.4476173622047241
0
LINE
8
BLACK
6
CONTINUOUS
10
6.9291588976377954
20
-2.4476173622047241
11
6.9323141732283462
21
-2.4414247637795277
0
LINE
8
BLACK
6
CONTINUOUS
10
6.9323141732283462
20
-2.4414247637795277
11
6.9363993307086611
21
-2.4358020078740159
0
LINE
8
BLACK
6
CONTINUOUS
10
6.9363993307086611
20
-2.4358020078740159
11
6.9413138188976378
21
-2.4308875196850392
0
LINE
8
BLACK
6
CONTINUOUS
10
6.9413138188976378
20
-2.4308875196850392
11
6.9469365748031491
21
-2.4268023622047243
0
LINE
8
BLACK
6
CONTINUOUS
10
6.9469365748031491
20
-2.4268023622047243
11
6.953129173228346
21
-2.4236470866141731
0
LINE
8
BLACK
6
CONTINUOUS
10
6.953129173228346
20
-2.4236470866141731
11
6.9597391338582675
21
-2.4214993700787399
0
LINE
8
BLACK
6
CONTINUOUS
10
6.9597391338582675
20
-2.4214993700787399
11
6.9666037007874015
21
-2.4204121259842517
0
LINE
8
BLACK
6
CONTINUOUS
10
6.9666037007874015
20
-2.4204121259842517
11
6.9735537795275588
21
-2.4204121259842517
0
LINE
8
BLACK
6
CONTINUOUS
10
6.9735537795275588
20
-2.4204121259842517
11
6.9804183464566929
21
-2.4214993700787399
0
LINE
8
BLACK
6
CONTINUOUS
10
6.9277559055118108
20
-2.4678977952755905
11
6.9287980314960631
21
-2.474477559055118
0
LINE
8
BLACK
6
CONTINUOUS
10
6.9287980314960631
20
-2.474477559055118
11
6.9308566535433069
21
-2.4808132677165355
0
LINE
8
BLACK
6
CONTINUOUS
10
6.9308566535433069
20
-2.4808132677165355
11
6.9338810236220469
21
-2.4867489370078739
0
LINE
8
BLACK
6
CONTINUOUS
10
6.9338810236220469
20
-2.4867489370078739
11
6.9377966929133859
21
-2.4921383858267716
0
LINE
8
BLACK
6
CONTINUOUS
10
6.9377966929133859
20
-2.4921383858267716
11
6.9425072834645665
21
-2.4968489763779527
0
LINE
8
BLACK
6
CONTINUOUS
10
6.9425072834645665
20
-2.4968489763779527
11
6.9478967322834642
21
-2.5007646456692911
0
LINE
8
BLACK
6
CONTINUOUS
10
6.9478967322834642
20
-2.5007646456692911
11
6.953832401574803
21
-2.5037890157480316
0
LINE
8
BLACK
6
CONTINUOUS
10
6.953832401574803
20
-2.5037890157480316
11
6.9601681102362205
21
-2.5058476377952754
0
LINE
8
BLACK
6
CONTINUOUS
10
6.9601681102362205
20
-2.5058476377952754
11
6.9667478740157476
21
-2.5068897637795273
0
LINE
8
BLACK
6
CONTINUOUS
10
6.9667478740157476
20
-2.5068897637795273
11
6.9734096062992128
21
-2.5068897637795273
0
LINE
8
BLACK
6
CONTINUOUS
10
6.9734096062992128
20
-2.5068897637795273
11
6.9799893700787399
21
-2.5058476377952754
0
LINE
8
BLACK
6
CONTINUOUS
10
6.9799893700787399
20
-2.5058476377952754
11
6.9863250787401574
21
-2.5037890157480316
0
LINE
8
BLACK
6
CONTINUOUS
10
6.9863250787401574
20
-2.5037890157480316
11
6.9922607480314962
21
-2.5007646456692911
0
LINE
8
BLACK
6
CONTINUOUS
10
6.9922607480314962
20
-2.5007646456692911
11
6.9976501968503939
21
-2.4968489763779527
0
LINE
8
BLACK
6
CONTINUOUS
10
6.9976501968503939
20
-2.4968489763779527
11
7.0023607874015745
21
-2.4921383858267716
0
LINE
8
BLACK
6
CONTINUOUS
10
7.0023607874015745
20
-2.4921383858267716
11
7.0062764566929134
21
-2.4867489370078739
0
LINE
8
BLACK
6
CONTINUOUS
10
7.0062764566929134
20
-2.4867489370078739
11
7.0093008267716534
21
-2.4808132677165355
0
LINE
8
BLACK
6
CONTINUOUS
10
7.0093008267716534
20
-2.4808132677165355
11
7.0113594488188973
21
-2.474477559055118
0
LINE
8
BLACK
6
CONTINUOUS
10
7.0113594488188973
20
-2.474477559055118
11
7.0124015748031496
21
-2.4678977952755905
0
LINE
8
BLACK
6
CONTINUOUS
10
7.0124015748031496
20
-2.4678977952755905
11
7.0124015748031496
21
-2.4612360629921257
0
LINE
8
BLACK
6
CONTINUOUS
10
7.0124015748031496
20
-2.4612360629921257
11
7.0113594488188973
21
-2.4546562992125982
0
LINE
8
BLACK
6
CONTINUOUS
10
7.0113594488188973
20
-2.4546562992125982
11
7.0093008267716534
21
-2.4483205905511811
0
LINE
8
BLACK
6
CONTINUOUS
10
7.0093008267716534
20
-2.4483205905511811
11
7.0062764566929134
21
-2.4423849212598423
0
LINE
8
BLACK
6
CONTINUOUS
10
7.0062764566929134
20
-2.4423849212598423
11
7.0023607874015745
21
-2.4369954724409446
0
LINE
8
BLACK
6
CONTINUOUS
10
7.0023607874015745
20
-2.4369954724409446
11
6.9976501968503939
21
-2.4322848818897636
0
LINE
8
BLACK
6
CONTINUOUS
10
6.9976501968503939
20
-2.4322848818897636
11
6.9922607480314962
21
-2.4283692125984251
0
LINE
8
BLACK
6
CONTINUOUS
10
6.9922607480314962
20
-2.4283692125984251
11
6.9863250787401574
21
-2.4253448425196851
0
LINE
8
BLACK
6
CONTINUOUS
10
6.9863250787401574
20
-2.4253448425196851
11
6.9799893700787399
21
-2.4232862204724408
0
LINE
8
BLACK
6
CONTINUOUS
10
6.9799893700787399
20
-2.4232862204724408
11
6.9734096062992128
21
-2.4222440944881889
0
LINE
8
BLACK
6
CONTINUOUS
10
6.9734096062992128
20
-2.4222440944881889
11
6.9667478740157476
21
-2.4222440944881889
0
LINE
8
BLACK
6
CONTINUOUS
10
6.9667478740157476
20
-2.4222440944881889
11
6.9601681102362205
21
-2.4232862204724408
0
LINE
8
BLACK
6
CONTINUOUS
10
6.9601681102362205
20
-2.4232862204724408
11
6.953832401574803
21
-2.4253448425196851
0
LINE
8
BLACK
6
CONTINUOUS
10
6.953832401574803
20
-2.4253448425196851
11
6.9478967322834642
21
-2.4283692125984251
0
LINE
8
BLACK
6
CONTINUOUS
10
6.9478967322834642
20
-2.4283692125984251
11
6.9425072834645665
21
-2.4322848818897636
0
LINE
8
BLACK
6
CONTINUOUS
10
6.9425072834645665
20
-2.4322848818897636
11
6.9377966929133859
21
-2.4369954724409446
0
LINE
8
BLACK
6
CONTINUOUS
10
6.9377966929133859
20
-2.4369954724409446
11
6.9338810236220469
21
-2.4423849212598423
0
LINE
8
BLACK
6
CONTINUOUS
10
6.9338810236220469
20
-2.4423849212598423
11
6.9308566535433069
21
-2.4483205905511811
0
LINE
8
BLACK
6
CONTINUOUS
10
6.9308566535433069
20
-2.4483205905511811
11
6.9287980314960631
21
-2.4546562992125982
0
LINE
8
BLACK
6
CONTINUOUS
10
6.9287980314960631
20
-2.4546562992125982
11
6.9277559055118108
21
-2.4612360629921257
0
LINE
8
BLACK
6
CONTINUOUS
10
6.9277559055118108
20
-2.4612360629921257
11
6.9277559055118108
21
-2.4678977952755905
0
LINE
8
BLACK
6
CONTINUOUS
10
2.7918356692913386
20
-1.6537828346456693
11
2.7984456299212597
21
-1.6559305511811022
0
LINE
8
BLACK
6
CONTINUOUS
10
2.7984456299212597
20
-1.6559305511811022
11
2.8046382283464566
21
-1.6590858267716535
0
LINE
8
BLACK
6
CONTINUOUS
10
2.8046382283464566
20
-1.6590858267716535
11
2.8102609842519684
21
-1.6631709842519684
0
LINE
8
BLACK
6
CONTINUOUS
10
2.8102609842519684
20
-1.6631709842519684
11
2.815175472440945
21
-1.6680854724409448
0
LINE
8
BLACK
6
CONTINUOUS
10
2.815175472440945
20
-1.6680854724409448
11
2.8192606299212599
21
-1.6737082283464566
0
LINE
8
BLACK
6
CONTINUOUS
10
2.8192606299212599
20
-1.6737082283464566
11
2.8224159055118108
21
-1.6799008267716535
0
LINE
8
BLACK
6
CONTINUOUS
10
2.8224159055118108
20
-1.6799008267716535
11
2.8245636220472439
21
-1.6865107874015748
0
LINE
8
BLACK
6
CONTINUOUS
10
2.8245636220472439
20
-1.6865107874015748
11
2.8256508661417321
21
-1.6933753543307086
0
LINE
8
BLACK
6
CONTINUOUS
10
2.8256508661417321
20
-1.6933753543307086
11
2.8256508661417321
21
-1.7003254330708661
0
LINE
8
BLACK
6
CONTINUOUS
10
2.8256508661417321
20
-1.7003254330708661
11
2.8245636220472439
21
-1.70719
0
LINE
8
BLACK
6
CONTINUOUS
10
2.8245636220472439
20
-1.70719
11
2.8224159055118108
21
-1.7137999606299212
0
LINE
8
BLACK
6
CONTINUOUS
10
2.8224159055118108
20
-1.7137999606299212
11
2.8192606299212599
21
-1.7199925590551182
0
LINE
8
BLACK
6
CONTINUOUS
10
2.8192606299212599
20
-1.7199925590551182
11
2.815175472440945
21
-1.7256153149606299
0
LINE
8
BLACK
6
CONTINUOUS
10
2.815175472440945
20
-1.7256153149606299
11
2.8102609842519684
21
-1.7305298031496064
0
LINE
8
BLACK
6
CONTINUOUS
10
2.8102609842519684
20
-1.7305298031496064
11
2.8046382283464566
21
-1.7346149606299213
0
LINE
8
BLACK
6
CONTINUOUS
10
2.8046382283464566
20
-1.7346149606299213
11
2.7984456299212597
21
-1.7377702362204723
0
LINE
8
BLACK
6
CONTINUOUS
10
2.7984456299212597
20
-1.7377702362204723
11
2.7918356692913386
21
-1.7399179527559054
0
LINE
8
BLACK
6
CONTINUOUS
10
2.7918356692913386
20
-1.7399179527559054
11
2.7849711023622046
21
-1.7410051968503937
0
LINE
8
BLACK
6
CONTINUOUS
10
2.7849711023622046
20
-1.7410051968503937
11
2.7780210236220473
21
-1.7410051968503937
0
LINE
8
BLACK
6
CONTINUOUS
10
2.7780210236220473
20
-1.7410051968503937
11
2.7711564566929132
21
-1.7399179527559054
0
LINE
8
BLACK
6
CONTINUOUS
10
2.7711564566929132
20
-1.7399179527559054
11
2.7645464960629922
21
-1.7377702362204723
0
LINE
8
BLACK
6
CONTINUOUS
10
2.7645464960629922
20
-1.7377702362204723
11
2.7583538976377953
21
-1.7346149606299213
0
LINE
8
BLACK
6
CONTINUOUS
10
2.7583538976377953
20
-1.7346149606299213
11
2.7527311417322835
21
-1.7305298031496064
0
LINE
8
BLACK
6
CONTINUOUS
10
2.7527311417322835
20
-1.7305298031496064
11
2.7478166535433068
21
-1.7256153149606299
0
LINE
8
BLACK
6
CONTINUOUS
10
2.7478166535433068
20
-1.7256153149606299
11
2.7437314960629919
21
-1.7199925590551182
0
LINE
8
BLACK
6
CONTINUOUS
10
2.7437314960629919
20
-1.7199925590551182
11
2.7405762204724411
21
-1.7137999606299212
0
LINE
8
BLACK
6
CONTINUOUS
10
2.7405762204724411
20
-1.7137999606299212
11
2.738428503937008
21
-1.70719
0
LINE
8
BLACK
6
CONTINUOUS
10
2.738428503937008
20
-1.70719
11
2.7373412598425197
21
-1.7003254330708661
0
LINE
8
BLACK
6
CONTINUOUS
10
2.7373412598425197
20
-1.7003254330708661
11
2.7373412598425197
21
-1.6935195275590551
0
LINE
8
BLACK
6
CONTINUOUS
10
2.7373412598425197
20
-1.6935195275590551
11
2.7373412598425197
21
-1.6933753543307086
0
LINE
8
BLACK
6
CONTINUOUS
10
2.7373412598425197
20
-1.6933753543307086
11
2.738428503937008
21
-1.6865107874015748
0
LINE
8
BLACK
6
CONTINUOUS
10
2.738428503937008
20
-1.6865107874015748
11
2.7405762204724411
21
-1.6799008267716535
0
LINE
8
BLACK
6
CONTINUOUS
10
2.7405762204724411
20
-1.6799008267716535
11
2.7437314960629919
21
-1.6737082283464566
0
LINE
8
BLACK
6
CONTINUOUS
10
2.7437314960629919
20
-1.6737082283464566
11
2.7478166535433068
21
-1.6680854724409448
0
LINE
8
BLACK
6
CONTINUOUS
10
2.7478166535433068
20
-1.6680854724409448
11
2.7527311417322835
21
-1.6631709842519684
0
LINE
8
BLACK
6
CONTINUOUS
10
2.7527311417322835
20
-1.6631709842519684
11
2.7583538976377953
21
-1.6590858267716535
0
LINE
8
BLACK
6
CONTINUOUS
10
2.7583538976377953
20
-1.6590858267716535
11
2.7645464960629922
21
-1.6559305511811022
0
LINE
8
BLACK
6
CONTINUOUS
10
2.7645464960629922
20
-1.6559305511811022
11
2.7711564566929132
21
-1.6537828346456693
0
LINE
8
BLACK
6
CONTINUOUS
10
2.7711564566929132
20
-1.6537828346456693
11
2.7780210236220473
21
-1.6526955905511811
0
LINE
8
BLACK
6
CONTINUOUS
10
2.7780210236220473
20
-1.6526955905511811
11
2.7849711023622046
21
-1.6526955905511811
0
LINE
8
BLACK
6
CONTINUOUS
10
2.7849711023622046
20
-1.6526955905511811
11
2.7918356692913386
21
-1.6537828346456693
0
LINE
8
BLACK
6
CONTINUOUS
10
2.7391732283464565
20
-1.7001812598425197
11
2.7402153543307084
21
-1.7067610236220472
0
LINE
8
BLACK
6
CONTINUOUS
10
2.7402153543307084
20
-1.7067610236220472
11
2.7422739763779527
21
-1.7130967322834645
0
LINE
8
BLACK
6
CONTINUOUS
10
2.7422739763779527
20
-1.7130967322834645
11
2.7452983464566927
21
-1.7190324015748031
0
LINE
8
BLACK
6
CONTINUOUS
10
2.7452983464566927
20
-1.7190324015748031
11
2.7492140157480316
21
-1.7244218503937008
0
LINE
8
BLACK
6
CONTINUOUS
10
2.7492140157480316
20
-1.7244218503937008
11
2.7539246062992127
21
-1.7291324409448818
0
LINE
8
BLACK
6
CONTINUOUS
10
2.7539246062992127
20
-1.7291324409448818
11
2.7593140551181103
21
-1.7330481102362205
0
LINE
8
BLACK
6
CONTINUOUS
10
2.7593140551181103
20
-1.7330481102362205
11
2.7652497244094487
21
-1.7360724803149605
0
LINE
8
BLACK
6
CONTINUOUS
10
2.7652497244094487
20
-1.7360724803149605
11
2.7715854330708662
21
-1.7381311023622046
0
LINE
8
BLACK
6
CONTINUOUS
10
2.7715854330708662
20
-1.7381311023622046
11
2.7781651968503938
21
-1.7391732283464567
0
LINE
8
BLACK
6
CONTINUOUS
10
2.7781651968503938
20
-1.7391732283464567
11
2.7848269291338581
21
-1.7391732283464567
0
LINE
8
BLACK
6
CONTINUOUS
10
2.7848269291338581
20
-1.7391732283464567
11
2.7914066929133856
21
-1.7381311023622046
0
LINE
8
BLACK
6
CONTINUOUS
10
2.7914066929133856
20
-1.7381311023622046
11
2.7977424015748031
21
-1.7360724803149605
0
LINE
8
BLACK
6
CONTINUOUS
10
2.7977424015748031
20
-1.7360724803149605
11
2.8036780708661415
21
-1.7330481102362205
0
LINE
8
BLACK
6
CONTINUOUS
10
2.8036780708661415
20
-1.7330481102362205
11
2.8090675196850392
21
-1.7291324409448818
0
LINE
8
BLACK
6
CONTINUOUS
10
2.8090675196850392
20
-1.7291324409448818
11
2.8137781102362203
21
-1.7244218503937008
0
LINE
8
BLACK
6
CONTINUOUS
10
2.8137781102362203
20
-1.7244218503937008
11
2.8176937795275592
21
-1.7190324015748031
0
LINE
8
BLACK
6
CONTINUOUS
10
2.8176937795275592
20
-1.7190324015748031
11
2.8207181496062992
21
-1.7130967322834645
0
LINE
8
BLACK
6
CONTINUOUS
10
2.8207181496062992
20
-1.7130967322834645
11
2.8227767716535435
21
-1.7067610236220472
0
LINE
8
BLACK
6
CONTINUOUS
10
2.8227767716535435
20
-1.7067610236220472
11
2.8238188976377954
21
-1.7001812598425197
0
LINE
8
BLACK
6
CONTINUOUS
10
2.8238188976377954
20
-1.7001812598425197
11
2.8238188976377954
21
-1.6935195275590551
0
LINE
8
BLACK
6
CONTINUOUS
10
2.8238188976377954
20
-1.6935195275590551
11
2.8227767716535435
21
-1.6869397637795276
0
LINE
8
BLACK
6
CONTINUOUS
10
2.8227767716535435
20
-1.6869397637795276
11
2.8207181496062992
21
-1.6806040551181103
0
LINE
8
BLACK
6
CONTINUOUS
10
2.8207181496062992
20
-1.6806040551181103
11
2.8176937795275592
21
-1.6746683858267717
0
LINE
8
BLACK
6
CONTINUOUS
10
2.8176937795275592
20
-1.6746683858267717
11
2.8137781102362203
21
-1.669278937007874
0
LINE
8
BLACK
6
CONTINUOUS
10
2.8137781102362203
20
-1.669278937007874
11
2.8090675196850392
21
-1.6645683464566929
0
LINE
8
BLACK
6
CONTINUOUS
10
2.8090675196850392
20
-1.6645683464566929
11
2.8036780708661415
21
-1.6606526771653543
0
LINE
8
BLACK
6
CONTINUOUS
10
2.8036780708661415
20
-1.6606526771653543
11
2.7977424015748031
21
-1.6576283070866142
0
LINE
8
BLACK
6
CONTINUOUS
10
2.7977424015748031
20
-1.6576283070866142
11
2.7914066929133856
21
-1.65556968503937
0
LINE
8
BLACK
6
CONTINUOUS
10
2.7914066929133856
20
-1.65556968503937
11
2.7848269291338581
21
-1.6545275590551181
0
LINE
8
BLACK
6
CONTINUOUS
10
2.7848269291338581
20
-1.6545275590551181
11
2.7781651968503938
21
-1.6545275590551181
0
LINE
8
BLACK
6
CONTINUOUS
10
2.7781651968503938
20
-1.6545275590551181
11
2.7715854330708662
21
-1.65556968503937
0
LINE
8
BLACK
6
CONTINUOUS
10
2.7715854330708662
20
-1.65556968503937
11
2.7652497244094487
21
-1.6576283070866142
0
LINE
8
BLACK
6
CONTINUOUS
10
2.7652497244094487
20
-1.6576283070866142
11
2.7593140551181103
21
-1.6606526771653543
0
LINE
8
BLACK
6
CONTINUOUS
10
2.7593140551181103
20
-1.6606526771653543
11
2.7539246062992127
21
-1.6645683464566929
0
LINE
8
BLACK
6
CONTINUOUS
10
2.7539246062992127
20
-1.6645683464566929
11
2.7492140157480316
21
-1.669278937007874
0
LINE
8
BLACK
6
CONTINUOUS
10
2.7492140157480316
20
-1.669278937007874
11
2.7452983464566927
21
-1.6746683858267717
0
LINE
8
BLACK
6
CONTINUOUS
10
2.7452983464566927
20
-1.6746683858267717
11
2.7422739763779527
21
-1.6806040551181103
0
LINE
8
BLACK
6
CONTINUOUS
10
2.7422739763779527
20
-1.6806040551181103
11
2.7402153543307084
21
-1.6869397637795276
0
LINE
8
BLACK
6
CONTINUOUS
10
2.7402153543307084
20
-1.6869397637795276
11
2.7391732283464565
21
-1.6935195275590551
0
LINE
8
BLACK
6
CONTINUOUS
10
2.7391732283464565
20
-1.6935195275590551
11
2.7391732283464565
21
-1.7001812598425197
0
LINE
8
BLACK
6
CONTINUOUS
10
6.9804183464566929
20
-1.6537828346456693
11
6.9870283070866144
21
-1.6559305511811022
0
LINE
8
BLACK
6
CONTINUOUS
10
6.9870283070866144
20
-1.6559305511811022
11
6.9932209055118113
21
-1.6590858267716535
0
LINE
8
BLACK
6
CONTINUOUS
10
6.9932209055118113
20
-1.6590858267716535
11
6.9988436614173226
21
-1.6631709842519684
0
LINE
8
BLACK
6
CONTINUOUS
10
6.9988436614173226
20
-1.6631709842519684
11
7.0037581496062993
21
-1.6680854724409448
0
LINE
8
BLACK
6
CONTINUOUS
10
7.0037581496062993
20
-1.6680854724409448
11
7.0078433070866142
21
-1.6737082283464566
0
LINE
8
BLACK
6
CONTINUOUS
10
7.0078433070866142
20
-1.6737082283464566
11
7.010998582677165
21
-1.6799008267716535
0
LINE
8
BLACK
6
CONTINUOUS
10
7.010998582677165
20
-1.6799008267716535
11
7.0131462992125986
21
-1.6865107874015748
0
LINE
8
BLACK
6
CONTINUOUS
10
7.0131462992125986
20
-1.6865107874015748
11
7.0142335433070864
21
-1.6933753543307086
0
LINE
8
BLACK
6
CONTINUOUS
10
7.0142335433070864
20
-1.6933753543307086
11
7.0142335433070864
21
-1.7003254330708661
0
LINE
8
BLACK
6
CONTINUOUS
10
7.0142335433070864
20
-1.7003254330708661
11
7.0131462992125986
21
-1.70719
0
LINE
8
BLACK
6
CONTINUOUS
10
7.0131462992125986
20
-1.70719
11
7.010998582677165
21
-1.7137999606299212
0
LINE
8
BLACK
6
CONTINUOUS
10
7.010998582677165
20
-1.7137999606299212
11
7.0078433070866142
21
-1.7199925590551182
0
LINE
8
BLACK
6
CONTINUOUS
10
7.0078433070866142
20
-1.7199925590551182
11
7.0037581496062993
21
-1.7256153149606299
0
LINE
8
BLACK
6
CONTINUOUS
10
7.0037581496062993
20
-1.7256153149606299
11
6.9988436614173226
21
-1.7305298031496064
0
LINE
8
BLACK
6
CONTINUOUS
10
6.9988436614173226
20
-1.7305298031496064
11
6.9932209055118113
21
-1.7346149606299213
0
LINE
8
BLACK
6
CONTINUOUS
10
6.9932209055118113
20
-1.7346149606299213
11
6.9870283070866144
21
-1.7377702362204723
0
LINE
8
BLACK
6
CONTINUOUS
10
6.9870283070866144
20
-1.7377702362204723
11
6.9804183464566929
21
-1.7399179527559054
0
LINE
8
BLACK
6
CONTINUOUS
10
6.9804183464566929
20
-1.7399179527559054
11
6.9735537795275588
21
-1.7410051968503937
0
LINE
8
BLACK
6
CONTINUOUS
10
6.9735537795275588
20
-1.7410051968503937
11
6.9666037007874015
21
-1.7410051968503937
0
LINE
8
BLACK
6
CONTINUOUS
10
6.9666037007874015
20
-1.7410051968503937
11
6.9597391338582675
21
-1.7399179527559054
0
LINE
8
BLACK
6
CONTINUOUS
10
6.9597391338582675
20
-1.7399179527559054
11
6.953129173228346
21
-1.7377702362204723
0
LINE
8
BLACK
6
CONTINUOUS
10
6.953129173228346
20
-1.7377702362204723
11
6.9469365748031491
21
-1.7346149606299213
0
LINE
8
BLACK
6
CONTINUOUS
10
6.9469365748031491
20
-1.7346149606299213
11
6.9413138188976378
21
-1.7305298031496064
0
LINE
8
BLACK
6
CONTINUOUS
10
6.9413138188976378
20
-1.7305298031496064
11
6.9363993307086611
21
-1.7256153149606299
0
LINE
8
BLACK
6
CONTINUOUS
10
6.9363993307086611
20
-1.7256153149606299
11
6.9323141732283462
21
-1.7199925590551182
0
LINE
8
BLACK
6
CONTINUOUS
10
6.9323141732283462
20
-1.7199925590551182
11
6.9291588976377954
21
-1.7137999606299212
0
LINE
8
BLACK
6
CONTINUOUS
10
6.9291588976377954
20
-1.7137999606299212
11
6.9270111811023618
21
-1.70719
0
LINE
8
BLACK
6
CONTINUOUS
10
6.9270111811023618
20
-1.70719
11
6.925923937007874
21
-1.7003254330708661
0
LINE
8
BLACK
6
CONTINUOUS
10
6.925923937007874
20
-1.7003254330708661
11
6.925923937007874
21
-1.6935195275590551
0
LINE
8
BLACK
6
CONTINUOUS
10
6.925923937007874
20
-1.6935195275590551
11
6.925923937007874
21
-1.6933753543307086
0
LINE
8
BLACK
6
CONTINUOUS
10
6.925923937007874
20
-1.6933753543307086
11
6.9270111811023618
21
-1.6865107874015748
0
LINE
8
BLACK
6
CONTINUOUS
10
6.9270111811023618
20
-1.6865107874015748
11
6.9291588976377954
21
-1.6799008267716535
0
LINE
8
BLACK
6
CONTINUOUS
10
6.9291588976377954
20
-1.6799008267716535
11
6.9323141732283462
21
-1.6737082283464566
0
LINE
8
BLACK
6
CONTINUOUS
10
6.9323141732283462
20
-1.6737082283464566
11
6.9363993307086611
21
-1.6680854724409448
0
LINE
8
BLACK
6
CONTINUOUS
10
6.9363993307086611
20
-1.6680854724409448
11
6.9413138188976378
21
-1.6631709842519684
0
LINE
8
BLACK
6
CONTINUOUS
10
6.9413138188976378
20
-1.6631709842519684
11
6.9469365748031491
21
-1.6590858267716535
0
LINE
8
BLACK
6
CONTINUOUS
10
6.9469365748031491
20
-1.6590858267716535
11
6.953129173228346
21
-1.6559305511811022
0
LINE
8
BLACK
6
CONTINUOUS
10
6.953129173228346
20
-1.6559305511811022
11
6.9597391338582675
21
-1.6537828346456693
0
LINE
8
BLACK
6
CONTINUOUS
10
6.9597391338582675
20
-1.6537828346456693
11
6.9666037007874015
21
-1.6526955905511811
0
LINE
8
BLACK
6
CONTINUOUS
10
6.9666037007874015
20
-1.6526955905511811
11
6.9735537795275588
21
-1.6526955905511811
0
LINE
8
BLACK
6
CONTINUOUS
10
6.9735537795275588
20
-1.6526955905511811
11
6.9804183464566929
21
-1.6537828346456693
0
LINE
8
BLACK
6
CONTINUOUS
10
6.9277559055118108
20
-1.7001812598425197
11
6.9287980314960631
21
-1.7067610236220472
0
LINE
8
BLACK
6
CONTINUOUS
10
6.9287980314960631
20
-1.7067610236220472
11
6.9308566535433069
21
-1.7130967322834645
0
LINE
8
BLACK
6
CONTINUOUS
10
6.9308566535433069
20
-1.7130967322834645
11
6.9338810236220469
21
-1.7190324015748031
0
LINE
8
BLACK
6
CONTINUOUS
10
6.9338810236220469
20
-1.7190324015748031
11
6.9377966929133859
21
-1.7244218503937008
0
LINE
8
BLACK
6
CONTINUOUS
10
6.9377966929133859
20
-1.7244218503937008
11
6.9425072834645665
21
-1.7291324409448818
0
LINE
8
BLACK
6
CONTINUOUS
10
6.9425072834645665
20
-1.7291324409448818
11
6.9478967322834642
21
-1.7330481102362205
0
LINE
8
BLACK
6
CONTINUOUS
10
6.9478967322834642
20
-1.7330481102362205
11
6.953832401574803
21
-1.7360724803149605
0
LINE
8
BLACK
6
CONTINUOUS
10
6.953832401574803
20
-1.7360724803149605
11
6.9601681102362205
21
-1.7381311023622046
0
LINE
8
BLACK
6
CONTINUOUS
10
6.9601681102362205
20
-1.7381311023622046
11
6.9667478740157476
21
-1.7391732283464567
0
LINE
8
BLACK
6
CONTINUOUS
10
6.9667478740157476
20
-1.7391732283464567
11
6.9734096062992128
21
-1.7391732283464567
0
LINE
8
BLACK
6
CONTINUOUS
10
6.9734096062992128
20
-1.7391732283464567
11
6.9799893700787399
21
-1.7381311023622046
0
LINE
8
BLACK
6
CONTINUOUS
10
6.9799893700787399
20
-1.7381311023622046
11
6.9863250787401574
21
-1.7360724803149605
0
LINE
8
BLACK
6
CONTINUOUS
10
6.9863250787401574
20
-1.7360724803149605
11
6.9922607480314962
21
-1.7330481102362205
0
LINE
8
BLACK
6
CONTINUOUS
10
6.9922607480314962
20
-1.7330481102362205
11
6.9976501968503939
21
-1.7291324409448818
0
LINE
8
BLACK
6
CONTINUOUS
10
6.9976501968503939
20
-1.7291324409448818
11
7.0023607874015745
21
-1.7244218503937008
0
LINE
8
BLACK
6
CONTINUOUS
10
7.0023607874015745
20
-1.7244218503937008
11
7.0062764566929134
21
-1.7190324015748031
0
LINE
8
BLACK
6
CONTINUOUS
10
7.0062764566929134
20
-1.7190324015748031
11
7.0093008267716534
21
-1.7130967322834645
0
LINE
8
BLACK
6
CONTINUOUS
10
7.0093008267716534
20
-1.7130967322834645
11
7.0113594488188973
21
-1.7067610236220472
0
LINE
8
BLACK
6
CONTINUOUS
10
7.0113594488188973
20
-1.7067610236220472
11
7.0124015748031496
21
-1.7001812598425197
0
LINE
8
BLACK
6
CONTINUOUS
10
7.0124015748031496
20
-1.7001812598425197
11
7.0124015748031496
21
-1.6935195275590551
0
LINE
8
BLACK
6
CONTINUOUS
10
7.0124015748031496
20
-1.6935195275590551
11
7.0113594488188973
21
-1.6869397637795276
0
LINE
8
BLACK
6
CONTINUOUS
10
7.0113594488188973
20
-1.6869397637795276
11
7.0093008267716534
21
-1.6806040551181103
0
LINE
8
BLACK
6
CONTINUOUS
10
7.0093008267716534
20
-1.6806040551181103
11
7.0062764566929134
21
-1.6746683858267717
0
LINE
8
BLACK
6
CONTINUOUS
10
7.0062764566929134
20
-1.6746683858267717
11
7.0023607874015745
21
-1.669278937007874
0
LINE
8
BLACK
6
CONTINUOUS
10
7.0023607874015745
20
-1.669278937007874
11
6.9976501968503939
21
-1.6645683464566929
0
LINE
8
BLACK
6
CONTINUOUS
10
6.9976501968503939
20
-1.6645683464566929
11
6.9922607480314962
21
-1.6606526771653543
0
LINE
8
BLACK
6
CONTINUOUS
10
6.9922607480314962
20
-1.6606526771653543
11
6.9863250787401574
21
-1.6576283070866142
0
LINE
8
BLACK
6
CONTINUOUS
10
6.9863250787401574
20
-1.6576283070866142
11
6.9799893700787399
21
-1.65556968503937
0
LINE
8
BLACK
6
CONTINUOUS
10
6.9799893700787399
20
-1.65556968503937
11
6.9734096062992128
21
-1.6545275590551181
0
LINE
8
BLACK
6
CONTINUOUS
10
6.9734096062992128
20
-1.6545275590551181
11
6.9667478740157476
21
-1.6545275590551181
0
LINE
8
BLACK
6
CONTINUOUS
10
6.9667478740157476
20
-1.6545275590551181
11
6.9601681102362205
21
-1.65556968503937
0
LINE
8
BLACK
6
CONTINUOUS
10
6.9601681102362205
20
-1.65556968503937
11
6.953832401574803
21
-1.6576283070866142
0
LINE
8
BLACK
6
CONTINUOUS
10
6.953832401574803
20
-1.6576283070866142
11
6.9478967322834642
21
-1.6606526771653543
0
LINE
8
BLACK
6
CONTINUOUS
10
6.9478967322834642
20
-1.6606526771653543
11
6.9425072834645665
21
-1.6645683464566929
0
LINE
8
BLACK
6
CONTINUOUS
10
6.9425072834645665
20
-1.6645683464566929
11
6.9377966929133859
21
-1.669278937007874
0
LINE
8
BLACK
6
CONTINUOUS
10
6.9377966929133859
20
-1.669278937007874
11
6.9338810236220469
21
-1.6746683858267717
0
LINE
8
BLACK
6
CONTINUOUS
10
6.9338810236220469
20
-1.6746683858267717
11
6.9308566535433069
21
-1.6806040551181103
0
LINE
8
BLACK
6
CONTINUOUS
10
6.9308566535433069
20
-1.6806040551181103
11
6.9287980314960631
21
-1.6869397637795276
0
LINE
8
BLACK
6
CONTINUOUS
10
6.9287980314960631
20
-1.6869397637795276
11
6.9277559055118108
21
-1.6935195275590551
0
LINE
8
BLACK
6
CONTINUOUS
10
6.9277559055118108
20
-1.6935195275590551
11
6.9277559055118108
21
-1.7001812598425197
0
LINE
8
BLACK
6
CONTINUOUS
10
2.7422658661417323
20
-1.5383858267716535
11
3.4763779133858268
21
-1.5383858267716535
0
LINE
8
BLACK
6
CONTINUOUS
10
3.4763779133858268
20
-1.5383858267716535
11
3.4763779527559056
21
-1.5383858267716535
0
LINE
8
BLACK
6
CONTINUOUS
10
3.4763779527559056
20
-1.5383858267716535
11
6.2322834645669287
21
-1.5383858267716535
0
LINE
8
BLACK
6
CONTINUOUS
10
6.2322834645669287
20
-1.5383858267716535
11
6.2322836220472437
21
-1.5383858267716535
0
LINE
8
BLACK
6
CONTINUOUS
10
6.2322836220472437
20
-1.5383858267716535
11
7.0080137401574802
21
-1.5383858267716535
0
LINE
8
BLACK
6
CONTINUOUS
10
7.0080137401574802
20
-1.5383858267716535
11
7.0080138976377953
21
-1.5383858267716535
0
LINE
8
BLACK
6
CONTINUOUS
10
7.0080138976377953
20
-1.5383858267716535
11
7.0204627952755905
21
-1.5390380708661417
0
LINE
8
BLACK
6
CONTINUOUS
10
7.0204627952755905
20
-1.5390380708661417
11
7.03277531496063
21
-1.5409879921259841
0
LINE
8
BLACK
6
CONTINUOUS
10
7.03277531496063
20
-1.5409879921259841
11
7.0448165354330703
21
-1.5442142519685038
0
LINE
8
BLACK
6
CONTINUOUS
10
7.0448165354330703
20
-1.5442142519685038
11
7.0564546062992122
21
-1.5486815354330707
0
LINE
8
BLACK
6
CONTINUOUS
10
7.0564546062992122
20
-1.5486815354330707
11
7.0675619291338583
21
-1.5543408267716534
0
LINE
8
BLACK
6
CONTINUOUS
10
7.0675619291338583
20
-1.5543408267716534
11
7.0780168110236215
21
-1.5611301968503937
0
LINE
8
BLACK
6
CONTINUOUS
10
7.0780168110236215
20
-1.5611301968503937
11
7.0877047637795272
21
-1.5689751968503938
0
LINE
8
BLACK
6
CONTINUOUS
10
7.0877047637795272
20
-1.5689751968503938
11
7.0965196062992124
21
-1.5777898818897638
0
LINE
8
BLACK
6
CONTINUOUS
10
7.0965196062992124
20
-1.5777898818897638
11
7.1043647637795271
21
-1.587477716535433
0
LINE
8
BLACK
6
CONTINUOUS
10
7.1043647637795271
20
-1.587477716535433
11
7.1111542913385826
21
-1.5979325196850394
0
LINE
8
BLACK
6
CONTINUOUS
10
7.1111542913385826
20
-1.5979325196850394
11
7.1168137795275586
21
-1.6090397637795275
0
LINE
8
BLACK
6
CONTINUOUS
10
7.1168137795275586
20
-1.6090397637795275
11
7.1212812204724409
21
-1.6206777559055117
0
LINE
8
BLACK
6
CONTINUOUS
10
7.1212812204724409
20
-1.6206777559055117
11
7.1245076771653544
21
-1.6327189370078741
0
LINE
8
BLACK
6
CONTINUOUS
10
7.1245076771653544
20
-1.6327189370078741
11
7.1264577952755905
21
-1.6450314173228346
0
LINE
8
BLACK
6
CONTINUOUS
10
7.1264577952755905
20
-1.6450314173228346
11
7.1271102362204726
21
-1.6574803149606299
0
LINE
8
BLACK
6
CONTINUOUS
10
7.1271102362204726
20
-1.6574803149606299
11
7.1271083858267712
21
-1.6574803149606299
0
LINE
8
BLACK
6
CONTINUOUS
10
7.1271083858267712
20
-1.6574803149606299
11
7.1271083858267712
21
-2.6035433070866141
0
LINE
8
BLACK
6
CONTINUOUS
10
7.1271083858267712
20
-2.6035433070866141
11
7.1265901574803152
21
-2.6081425196850394
0
LINE
8
BLACK
6
CONTINUOUS
10
7.1265901574803152
20
-2.6081425196850394
11
7.1250614173228346
21
-2.6125110629921258
0
LINE
8
BLACK
6
CONTINUOUS
10
7.1250614173228346
20
-2.6125110629921258
11
7.1225988976377952
21
-2.6164298818897636
0
LINE
8
BLACK
6
CONTINUOUS
10
7.1225988976377952
20
-2.6164298818897636
11
7.1193260236220475
21
-2.6197024409448817
0
LINE
8
BLACK
6
CONTINUOUS
10
7.1193260236220475
20
-2.6197024409448817
11
7.1154069685039367
21
-2.6221646456692911
0
LINE
8
BLACK
6
CONTINUOUS
10
7.1154069685039367
20
-2.6221646456692911
11
7.1110382677165349
21
-2.6236929527559054
0
LINE
8
BLACK
6
CONTINUOUS
10
7.1110382677165349
20
-2.6236929527559054
11
7.1064606299212594
21
-2.6242083070866142
0
LINE
8
BLACK
6
CONTINUOUS
10
7.1064606299212594
20
-2.6242083070866142
11
7.1064390944881888
21
-2.6242125984251969
0
LINE
8
BLACK
6
CONTINUOUS
10
7.1064390944881888
20
-2.6242125984251969
11
7.1064390157480313
21
-2.6242125984251969
0
LINE
8
BLACK
6
CONTINUOUS
10
7.1064390157480313
20
-2.6242125984251969
11
2.6438406692913383
21
-2.6242125984251969
0
LINE
8
BLACK
6
CONTINUOUS
10
2.6438406692913383
20
-2.6242125984251969
11
2.6438405905511813
21
-2.6242125590551182
0
LINE
8
BLACK
6
CONTINUOUS
10
2.6438405905511813
20
-2.6242125590551182
11
2.6438405905511813
21
-2.6242125984251969
0
LINE
8
BLACK
6
CONTINUOUS
10
2.6438405905511813
20
-2.6242125984251969
11
2.6392415354330709
21
-2.6236940157480313
0
LINE
8
BLACK
6
CONTINUOUS
10
2.6392415354330709
20
-2.6236940157480313
11
2.6348731889763779
21
-2.6221650787401574
0
LINE
8
BLACK
6
CONTINUOUS
10
2.6348731889763779
20
-2.6221650787401574
11
2.6309545669291339
21
-2.6197025196850392
0
LINE
8
BLACK
6
CONTINUOUS
10
2.6309545669291339
20
-2.6197025196850392
11
2.6276820866141732
21
-2.6164297637795273
0
LINE
8
BLACK
6
CONTINUOUS
10
2.6276820866141732
20
-2.6164297637795273
11
2.6252198818897639
21
-2.612510866141732
0
LINE
8
BLACK
6
CONTINUOUS
10
2.6252198818897639
20
-2.612510866141732
11
2.6236913779527558
21
-2.6081424015748031
0
LINE
8
BLACK
6
CONTINUOUS
10
2.6236913779527558
20
-2.6081424015748031
11
2.6231756299212599
21
-2.6035647244094489
0
LINE
8
BLACK
6
CONTINUOUS
10
2.6231756299212599
20
-2.6035647244094489
11
2.6231713779527559
21
-2.6035433070866141
0
LINE
8
BLACK
6
CONTINUOUS
10
2.6231713779527559
20
-2.6035433070866141
11
2.6231713779527559
21
-1.6574803149606299
0
LINE
8
BLACK
6
CONTINUOUS
10
2.6231713779527559
20
-1.6574803149606299
11
2.6238237795275592
21
-1.6450314960629921
0
LINE
8
BLACK
6
CONTINUOUS
10
2.6238237795275592
20
-1.6450314960629921
11
2.6257738582677166
21
-1.6327190551181101
0
LINE
8
BLACK
6
CONTINUOUS
10
2.6257738582677166
20
-1.6327190551181101
11
2.6290002362204725
21
-1.6206778740157479
0
LINE
8
BLACK
6
CONTINUOUS
10
2.6290002362204725
20
-1.6206778740157479
11
2.633467598425197
21
-1.6090399212598425
0
LINE
8
BLACK
6
CONTINUOUS
10
2.633467598425197
20
-1.6090399212598425
11
2.6391269685039371
21
-1.5979326771653544
0
LINE
8
BLACK
6
CONTINUOUS
10
2.6391269685039371
20
-1.5979326771653544
11
2.6459162992125984
21
-1.5874778346456693
0
LINE
8
BLACK
6
CONTINUOUS
10
2.6459162992125984
20
-1.5874778346456693
11
2.6537612992125985
21
-1.5777899606299213
0
LINE
8
BLACK
6
CONTINUOUS
10
2.6537612992125985
20
-1.5777899606299213
11
2.6625759842519683
21
-1.568975157480315
0
LINE
8
BLACK
6
CONTINUOUS
10
2.6625759842519683
20
-1.568975157480315
11
2.6722637401574802
21
-1.5611299999999999
0
LINE
8
BLACK
6
CONTINUOUS
10
2.6722637401574802
20
-1.5611299999999999
11
2.6827184645669289
21
-1.5543404724409449
0
LINE
8
BLACK
6
CONTINUOUS
10
2.6827184645669289
20
-1.5543404724409449
11
2.69382562992126
21
-1.5486809448818897
0
LINE
8
BLACK
6
CONTINUOUS
10
2.69382562992126
20
-1.5486809448818897
11
2.7054635039370076
21
-1.5442134251968505
0
LINE
8
BLACK
6
CONTINUOUS
10
2.7054635039370076
20
-1.5442134251968505
11
2.7175046062992125
21
-1.5409868503937008
0
LINE
8
BLACK
6
CONTINUOUS
10
2.7175046062992125
20
-1.5409868503937008
11
2.7298170078740158
21
-1.5390365748031496
0
LINE
8
BLACK
6
CONTINUOUS
10
2.7298170078740158
20
-1.5390365748031496
11
2.7422658661417323
21
-1.5383839763779528
0
LINE
8
BLACK
6
CONTINUOUS
10
2.7422658661417323
20
-1.5383839763779528
11
2.7422658661417323
21
-1.5383858267716535
0
LINE
8
BLACK
6
CONTINUOUS
10
2.7361275196850392
20
-1.5403525590551181
11
2.7239181102362204
21
-1.5416360236220472
0
LINE
8
BLACK
6
CONTINUOUS
10
2.7239181102362204
20
-1.5416360236220472
11
2.7119097244094488
21
-1.5441886220472441
0
LINE
8
BLACK
6
CONTINUOUS
10
2.7119097244094488
20
-1.5441886220472441
11
2.7002339370078738
21
-1.5479824803149607
0
LINE
8
BLACK
6
CONTINUOUS
10
2.7002339370078738
20
-1.5479824803149607
11
2.6890186614173226
21
-1.5529760236220471
0
LINE
8
BLACK
6
CONTINUOUS
10
2.6890186614173226
20
-1.5529760236220471
11
2.6783868110236222
21
-1.5591144488188975
0
LINE
8
BLACK
6
CONTINUOUS
10
2.6783868110236222
20
-1.5591144488188975
11
2.668454803149606
21
-1.5663306299212598
0
LINE
8
BLACK
6
CONTINUOUS
10
2.668454803149606
20
-1.5663306299212598
11
2.6593314960629919
21
-1.5745453937007874
0
LINE
8
BLACK
6
CONTINUOUS
10
2.6593314960629919
20
-1.5745453937007874
11
2.6511168503937008
21
-1.5836688188976378
0
LINE
8
BLACK
6
CONTINUOUS
10
2.6511168503937008
20
-1.5836688188976378
11
2.643900866141732
21
-1.5936009448818897
0
LINE
8
BLACK
6
CONTINUOUS
10
2.643900866141732
20
-1.5936009448818897
11
2.6377625590551181
21
-1.6042329133858266
0
LINE
8
BLACK
6
CONTINUOUS
10
2.6377625590551181
20
-1.6042329133858266
11
2.632769251968504
21
-1.6154482283464566
0
LINE
8
BLACK
6
CONTINUOUS
10
2.632769251968504
20
-1.6154482283464566
11
2.6289755511811022
21
-1.6271240944881888
0
LINE
8
BLACK
6
CONTINUOUS
10
2.6289755511811022
20
-1.6271240944881888
11
2.6264231102362205
21
-1.6391325196850393
0
LINE
8
BLACK
6
CONTINUOUS
10
2.6264231102362205
20
-1.6391325196850393
11
2.6251398818897638
21
-1.651341968503937
0
LINE
8
BLACK
6
CONTINUOUS
10
2.6251398818897638
20
-1.651341968503937
11
2.6251398818897638
21
-1.6574803149606299
0
LINE
8
BLACK
6
CONTINUOUS
10
2.6251398818897638
20
-1.6574803149606299
11
2.6251398818897638
21
-2.6035433070866141
0
LINE
8
BLACK
6
CONTINUOUS
10
2.6251398818897638
20
-2.6035433070866141
11
2.6251417322834647
21
-2.6035433070866141
0
LINE
8
BLACK
6
CONTINUOUS
10
2.6251417322834647
20
-2.6035433070866141
11
2.6251416929133859
21
-2.6060051574803147
0
LINE
8
BLACK
6
CONTINUOUS
10
2.6251416929133859
20
-2.6060051574803147
11
2.6264159842519685
21
-2.6107611417322834
0
LINE
8
BLACK
6
CONTINUOUS
10
2.6264159842519685
20
-2.6107611417322834
11
2.6288777165354329
21
-2.615025275590551
0
LINE
8
BLACK
6
CONTINUOUS
10
2.6288777165354329
20
-2.615025275590551
11
2.6323591338582677
21
-2.6185070472440946
0
LINE
8
BLACK
6
CONTINUOUS
10
2.6323591338582677
20
-2.6185070472440946
11
2.6366230708661416
21
-2.6209691732283464
0
LINE
8
BLACK
6
CONTINUOUS
10
2.6366230708661416
20
-2.6209691732283464
11
2.6413788976377952
21
-2.6222438976377953
0
LINE
8
BLACK
6
CONTINUOUS
10
2.6413788976377952
20
-2.6222438976377953
11
2.6438407480314958
21
-2.6222440944881891
0
LINE
8
BLACK
6
CONTINUOUS
10
2.6438407480314958
20
-2.6222440944881891
11
7.1064390944881888
21
-2.6222440944881891
0
LINE
8
BLACK
6
CONTINUOUS
10
7.1064390944881888
20
-2.6222440944881891
11
7.1064391338582675
21
-2.6222440944881891
0
LINE
8
BLACK
6
CONTINUOUS
10
7.1064391338582675
20
-2.6222440944881891
11
7.1064391732283463
21
-2.6222440944881891
0
LINE
8
BLACK
6
CONTINUOUS
10
7.1064391732283463
20
-2.6222440944881891
11
7.1064391732283463
21
-2.6222422440944881
0
LINE
8
BLACK
6
CONTINUOUS
10
7.1064391732283463
20
-2.6222422440944881
11
7.1089011023622044
21
-2.6222424409448819
0
LINE
8
BLACK
6
CONTINUOUS
10
7.1089011023622044
20
-2.6222424409448819
11
7.1136572440944876
21
-2.6209684251968501
0
LINE
8
BLACK
6
CONTINUOUS
10
7.1136572440944876
20
-2.6209684251968501
11
7.1179215354330703
21
-2.618506811023622
0
LINE
8
BLACK
6
CONTINUOUS
10
7.1179215354330703
20
-2.618506811023622
11
7.1214033464566926
21
-2.6150253149606297
0
LINE
8
BLACK
6
CONTINUOUS
10
7.1214033464566926
20
-2.6150253149606297
11
7.123865393700787
21
-2.6107612204724409
0
LINE
8
BLACK
6
CONTINUOUS
10
7.123865393700787
20
-2.6107612204724409
11
7.125139842519685
21
-2.6060051968503934
0
LINE
8
BLACK
6
CONTINUOUS
10
7.125139842519685
20
-2.6060051968503934
11
7.1251398818897638
21
-2.6035433070866141
0
LINE
8
BLACK
6
CONTINUOUS
10
7.1251398818897638
20
-2.6035433070866141
11
7.1251398818897638
21
-1.6574803149606299
0
LINE
8
BLACK
6
CONTINUOUS
10
7.1251398818897638
20
-1.6574803149606299
11
7.1251417322834643
21
-1.6574709842519684
0
LINE
8
BLACK
6
CONTINUOUS
10
7.1251417322834643
20
-1.6574709842519684
11
7.1251417322834643
21
-1.6513419291338582
0
LINE
8
BLACK
6
CONTINUOUS
10
7.1251417322834643
20
-1.6513419291338582
11
7.1238584645669292
21
-1.6391324409448818
0
LINE
8
BLACK
6
CONTINUOUS
10
7.1238584645669292
20
-1.6391324409448818
11
7.1213059448818896
21
-1.6271239763779528
0
LINE
8
BLACK
6
CONTINUOUS
10
7.1213059448818896
20
-1.6271239763779528
11
7.1175122047244095
21
-1.6154481102362204
0
LINE
8
BLACK
6
CONTINUOUS
10
7.1175122047244095
20
-1.6154481102362204
11
7.1125187401574799
21
-1.6042327559055118
0
LINE
8
BLACK
6
CONTINUOUS
10
7.1125187401574799
20
-1.6042327559055118
11
7.1063803149606297
21
-1.5936008267716535
0
LINE
8
BLACK
6
CONTINUOUS
10
7.1063803149606297
20
-1.5936008267716535
11
7.0991641732283464
21
-1.583668779527559
0
LINE
8
BLACK
6
CONTINUOUS
10
7.0991641732283464
20
-1.583668779527559
11
7.0909493307086615
21
-1.5745454330708661
0
LINE
8
BLACK
6
CONTINUOUS
10
7.0909493307086615
20
-1.5745454330708661
11
7.0818258661417319
21
-1.5663307480314961
0
LINE
8
BLACK
6
CONTINUOUS
10
7.0818258661417319
20
-1.5663307480314961
11
7.0718937007874016
21
-1.5591147637795275
0
LINE
8
BLACK
6
CONTINUOUS
10
7.0718937007874016
20
-1.5591147637795275
11
7.0612616535433066
21
-1.5529764960629922
0
LINE
8
BLACK
6
CONTINUOUS
10
7.0612616535433066
20
-1.5529764960629922
11
7.0500462204724412
21
-1.5479832283464567
0
LINE
8
BLACK
6
CONTINUOUS
10
7.0500462204724412
20
-1.5479832283464567
11
7.0383703149606296
21
-1.5441896456692914
0
LINE
8
BLACK
6
CONTINUOUS
10
7.0383703149606296
20
-1.5441896456692914
11
7.0263618110236221
21
-1.5416373228346456
0
LINE
8
BLACK
6
CONTINUOUS
10
7.0263618110236221
20
-1.5416373228346456
11
7.0141522834645667
21
-1.5403542125984251
0
LINE
8
BLACK
6
CONTINUOUS
10
7.0141522834645667
20
-1.5403542125984251
11
7.008014094488189
21
-1.5403542913385826
0
LINE
8
BLACK
6
CONTINUOUS
10
7.008014094488189
20
-1.5403542913385826
11
7.0080138976377953
21
-1.5403543700787401
0
LINE
8
BLACK
6
CONTINUOUS
10
7.0080138976377953
20
-1.5403543700787401
11
2.7422658661417323
21
-1.5403543307086613
0
LINE
8
BLACK
6
CONTINUOUS
10
2.7422658661417323
20
-1.5403543307086613
11
2.742256535433071
21
-1.5403524803149606
0
LINE
8
BLACK
6
CONTINUOUS
10
2.742256535433071
20
-1.5403524803149606
11
2.7361275196850392
21
-1.5403525590551181
  0
ENDSEC
  0
EOF
