  0
SECTION
  2
HEADER
  9
$ANGBASE
  50
0.0
  9
$ANGDIR
  70
1
  9
$MEASUREMENT
  70
0
  0
ENDSEC
  0
SECTION
  2
TABLES
  0
TABLE
  2
LTYPE
  70
4
  0
LTYPE
  5
40F
  2
CONTINUOUS
  70
0
  3
Solid line
  72
65
  73
0
  40
0.0
  0
LTYPE
  5
410
  2
DASHDOT
 70
0
  3
Dash Dot ____ _ ____ _
 72
65
 73
4
 40
2.0
 49
1.25
 49
-0.25
 49
0.25
 49
-0.25
  0
LTYPE
  5
411
  2
DASHED
 70
0
  3
Dashed __ __ __ __ __
 72
65
 73
2
 40
0.75
 49
0.5
 49
-0.25
  0
LTYPE
  5
43B
  2
DOTTED
 70
0
  3
Dotted .  .  .  .
 72
65
 73
2
 40
0.2
 49
0.0
 49
-0.2
  0
ENDTAB
  0
TABLE
  2
STYLE
  70
4
  0
STYLE
  2
KICAD
  70
0
  40
0
  41
1
  42
1
  50
0
  71
0
  3
isocp.shx
  0
STYLE
  2
KICADB
  70
0
  40
0
  41
1
  42
1
  50
0
  71
0
  3
isocp.shx
  0
STYLE
  2
KICADI
  70
0
  40
0
  41
1
  42
1
  50
15
  71
0
  3
isocp.shx
  0
STYLE
  2
KICADBI
  70
0
  40
0
  41
1
  42
1
  50
15
  71
0
  3
isocp.shx
  0
ENDTAB
  0
TABLE
  2
LAYER
  70
1
  0
LAYER
  2
BLACK
  70
0
  62
7
  6
CONTINUOUS
  0
ENDTAB
  0
ENDSEC
  0
SECTION
  2
ENTITIES
0
LINE
8
BLACK
6
CONTINUOUS
10
6.3845851181102358
20
-5.5819596456692908
11
6.3913419685039372
21
-5.5841550787401575
0
LINE
8
BLACK
6
CONTINUOUS
10
6.3913419685039372
20
-5.5841550787401575
11
6.3976721653543303
21
-5.5873804724409446
0
LINE
8
BLACK
6
CONTINUOUS
10
6.3976721653543303
20
-5.5873804724409446
11
6.4034198818897634
21
-5.5915564173228347
0
LINE
8
BLACK
6
CONTINUOUS
10
6.4034198818897634
20
-5.5915564173228347
11
6.4084435826771653
21
-5.5965801181102357
0
LINE
8
BLACK
6
CONTINUOUS
10
6.4084435826771653
20
-5.5965801181102357
11
6.4126195275590554
21
-5.6023278346456689
0
LINE
8
BLACK
6
CONTINUOUS
10
6.4126195275590554
20
-5.6023278346456689
11
6.4158449212598425
21
-5.6086580314960628
0
LINE
8
BLACK
6
CONTINUOUS
10
6.4158449212598425
20
-5.6086580314960628
11
6.4180403543307083
21
-5.6154148818897633
0
LINE
8
BLACK
6
CONTINUOUS
10
6.4180403543307083
20
-5.6154148818897633
11
6.4191517716535431
21
-5.6224319685039372
0
LINE
8
BLACK
6
CONTINUOUS
10
6.4191517716535431
20
-5.6224319685039372
11
6.4191517716535431
21
-5.6295365354330711
0
LINE
8
BLACK
6
CONTINUOUS
10
6.4191517716535431
20
-5.6295365354330711
11
6.4180403543307083
21
-5.6365536220472441
0
LINE
8
BLACK
6
CONTINUOUS
10
6.4180403543307083
20
-5.6365536220472441
11
6.4158449212598425
21
-5.6433104724409446
0
LINE
8
BLACK
6
CONTINUOUS
10
6.4158449212598425
20
-5.6433104724409446
11
6.4126195275590554
21
-5.6496406692913386
0
LINE
8
BLACK
6
CONTINUOUS
10
6.4126195275590554
20
-5.6496406692913386
11
6.4084435826771653
21
-5.6553883858267717
0
LINE
8
BLACK
6
CONTINUOUS
10
6.4084435826771653
20
-5.6553883858267717
11
6.4034198818897634
21
-5.6604120866141727
0
LINE
8
BLACK
6
CONTINUOUS
10
6.4034198818897634
20
-5.6604120866141727
11
6.3976721653543303
21
-5.6645880314960628
0
LINE
8
BLACK
6
CONTINUOUS
10
6.3976721653543303
20
-5.6645880314960628
11
6.3913419685039372
21
-5.6678134251968499
0
LINE
8
BLACK
6
CONTINUOUS
10
6.3913419685039372
20
-5.6678134251968499
11
6.3845851181102358
21
-5.6700088582677166
0
LINE
8
BLACK
6
CONTINUOUS
10
6.3845851181102358
20
-5.6700088582677166
11
6.3775680314960628
21
-5.6711202755905514
0
LINE
8
BLACK
6
CONTINUOUS
10
6.3775680314960628
20
-5.6711202755905514
11
6.3704634645669289
21
-5.6711202755905514
0
LINE
8
BLACK
6
CONTINUOUS
10
6.3704634645669289
20
-5.6711202755905514
11
6.3634463779527559
21
-5.6700088582677166
0
LINE
8
BLACK
6
CONTINUOUS
10
6.3634463779527559
20
-5.6700088582677166
11
6.3566895275590554
21
-5.6678134251968499
0
LINE
8
BLACK
6
CONTINUOUS
10
6.3566895275590554
20
-5.6678134251968499
11
6.3503593307086614
21
-5.6645880314960628
0
LINE
8
BLACK
6
CONTINUOUS
10
6.3503593307086614
20
-5.6645880314960628
11
6.3446116141732283
21
-5.6604120866141727
0
LINE
8
BLACK
6
CONTINUOUS
10
6.3446116141732283
20
-5.6604120866141727
11
6.3395879133858264
21
-5.6553883858267717
0
LINE
8
BLACK
6
CONTINUOUS
10
6.3395879133858264
20
-5.6553883858267717
11
6.3354119685039372
21
-5.6496406692913386
0
LINE
8
BLACK
6
CONTINUOUS
10
6.3354119685039372
20
-5.6496406692913386
11
6.3321865748031492
21
-5.6433104724409446
0
LINE
8
BLACK
6
CONTINUOUS
10
6.3321865748031492
20
-5.6433104724409446
11
6.3299911417322834
21
-5.6365536220472441
0
LINE
8
BLACK
6
CONTINUOUS
10
6.3299911417322834
20
-5.6365536220472441
11
6.3288797244094486
21
-5.6295365354330711
0
LINE
8
BLACK
6
CONTINUOUS
10
6.3288797244094486
20
-5.6295365354330711
11
6.3288797244094486
21
-5.6224319685039372
0
LINE
8
BLACK
6
CONTINUOUS
10
6.3288797244094486
20
-5.6224319685039372
11
6.3289619685039371
21
-5.6219127559055115
0
LINE
8
BLACK
6
CONTINUOUS
10
6.3289619685039371
20
-5.6219127559055115
11
6.3299911417322834
21
-5.6154148818897633
0
LINE
8
BLACK
6
CONTINUOUS
10
6.3299911417322834
20
-5.6154148818897633
11
6.3321865748031492
21
-5.6086580314960628
0
LINE
8
BLACK
6
CONTINUOUS
10
6.3321865748031492
20
-5.6086580314960628
11
6.3354119685039372
21
-5.6023278346456689
0
LINE
8
BLACK
6
CONTINUOUS
10
6.3354119685039372
20
-5.6023278346456689
11
6.3395879133858264
21
-5.5965801181102357
0
LINE
8
BLACK
6
CONTINUOUS
10
6.3395879133858264
20
-5.5965801181102357
11
6.3446116141732283
21
-5.5915564173228347
0
LINE
8
BLACK
6
CONTINUOUS
10
6.3446116141732283
20
-5.5915564173228347
11
6.3503593307086614
21
-5.5873804724409446
0
LINE
8
BLACK
6
CONTINUOUS
10
6.3503593307086614
20
-5.5873804724409446
11
6.3566895275590554
21
-5.5841550787401575
0
LINE
8
BLACK
6
CONTINUOUS
10
6.3566895275590554
20
-5.5841550787401575
11
6.3634463779527559
21
-5.5819596456692908
0
LINE
8
BLACK
6
CONTINUOUS
10
6.3634463779527559
20
-5.5819596456692908
11
6.3704634645669289
21
-5.5808482283464569
0
LINE
8
BLACK
6
CONTINUOUS
10
6.3704634645669289
20
-5.5808482283464569
11
6.3775680314960628
21
-5.5808482283464569
0
LINE
8
BLACK
6
CONTINUOUS
10
6.3775680314960628
20
-5.5808482283464569
11
6.3845851181102358
21
-5.5819596456692908
0
LINE
8
BLACK
6
CONTINUOUS
10
6.3326771653543306
20
-5.6300557480314959
11
6.3342657480314957
21
-5.6380422834645669
0
LINE
8
BLACK
6
CONTINUOUS
10
6.3342657480314957
20
-5.6380422834645669
11
6.3373819685039372
21
-5.6455654330708658
0
LINE
8
BLACK
6
CONTINUOUS
10
6.3373819685039372
20
-5.6455654330708658
11
6.3419059448818897
21
-5.6523360629921262
0
LINE
8
BLACK
6
CONTINUOUS
10
6.3419059448818897
20
-5.6523360629921262
11
6.3476639370078738
21
-5.6580940551181103
0
LINE
8
BLACK
6
CONTINUOUS
10
6.3476639370078738
20
-5.6580940551181103
11
6.3544345669291333
21
-5.6626180314960628
0
LINE
8
BLACK
6
CONTINUOUS
10
6.3544345669291333
20
-5.6626180314960628
11
6.3619577165354331
21
-5.6657342519685034
0
LINE
8
BLACK
6
CONTINUOUS
10
6.3619577165354331
20
-5.6657342519685034
11
6.3699442519685041
21
-5.6673228346456694
0
LINE
8
BLACK
6
CONTINUOUS
10
6.3699442519685041
20
-5.6673228346456694
11
6.3780872440944885
21
-5.6673228346456694
0
LINE
8
BLACK
6
CONTINUOUS
10
6.3780872440944885
20
-5.6673228346456694
11
6.3860737795275586
21
-5.6657342519685034
0
LINE
8
BLACK
6
CONTINUOUS
10
6.3860737795275586
20
-5.6657342519685034
11
6.3935969291338584
21
-5.6626180314960628
0
LINE
8
BLACK
6
CONTINUOUS
10
6.3935969291338584
20
-5.6626180314960628
11
6.4003675590551179
21
-5.6580940551181103
0
LINE
8
BLACK
6
CONTINUOUS
10
6.4003675590551179
20
-5.6580940551181103
11
6.4061255511811019
21
-5.6523360629921262
0
LINE
8
BLACK
6
CONTINUOUS
10
6.4061255511811019
20
-5.6523360629921262
11
6.4106495275590554
21
-5.6455654330708658
0
LINE
8
BLACK
6
CONTINUOUS
10
6.4106495275590554
20
-5.6455654330708658
11
6.413765748031496
21
-5.6380422834645669
0
LINE
8
BLACK
6
CONTINUOUS
10
6.413765748031496
20
-5.6380422834645669
11
6.4153543307086611
21
-5.6300557480314959
0
LINE
8
BLACK
6
CONTINUOUS
10
6.4153543307086611
20
-5.6300557480314959
11
6.4153543307086611
21
-5.6219127559055115
0
LINE
8
BLACK
6
CONTINUOUS
10
6.4153543307086611
20
-5.6219127559055115
11
6.413765748031496
21
-5.6139262204724405
0
LINE
8
BLACK
6
CONTINUOUS
10
6.413765748031496
20
-5.6139262204724405
11
6.4106495275590554
21
-5.6064030708661416
0
LINE
8
BLACK
6
CONTINUOUS
10
6.4106495275590554
20
-5.6064030708661416
11
6.4061255511811019
21
-5.5996324409448821
0
LINE
8
BLACK
6
CONTINUOUS
10
6.4061255511811019
20
-5.5996324409448821
11
6.4003675590551179
21
-5.5938744488188972
0
LINE
8
BLACK
6
CONTINUOUS
10
6.4003675590551179
20
-5.5938744488188972
11
6.3935969291338584
21
-5.5893504724409446
0
LINE
8
BLACK
6
CONTINUOUS
10
6.3935969291338584
20
-5.5893504724409446
11
6.3860737795275586
21
-5.586234251968504
0
LINE
8
BLACK
6
CONTINUOUS
10
6.3860737795275586
20
-5.586234251968504
11
6.3780872440944885
21
-5.5846456692913389
0
LINE
8
BLACK
6
CONTINUOUS
10
6.3780872440944885
20
-5.5846456692913389
11
6.3699442519685041
21
-5.5846456692913389
0
LINE
8
BLACK
6
CONTINUOUS
10
6.3699442519685041
20
-5.5846456692913389
11
6.3619577165354331
21
-5.586234251968504
0
LINE
8
BLACK
6
CONTINUOUS
10
6.3619577165354331
20
-5.586234251968504
11
6.3544345669291333
21
-5.5893504724409446
0
LINE
8
BLACK
6
CONTINUOUS
10
6.3544345669291333
20
-5.5893504724409446
11
6.3476639370078738
21
-5.5938744488188972
0
LINE
8
BLACK
6
CONTINUOUS
10
6.3476639370078738
20
-5.5938744488188972
11
6.3419059448818897
21
-5.5996324409448821
0
LINE
8
BLACK
6
CONTINUOUS
10
6.3419059448818897
20
-5.5996324409448821
11
6.3373819685039372
21
-5.6064030708661416
0
LINE
8
BLACK
6
CONTINUOUS
10
6.3373819685039372
20
-5.6064030708661416
11
6.3342657480314957
21
-5.6139262204724405
0
LINE
8
BLACK
6
CONTINUOUS
10
6.3342657480314957
20
-5.6139262204724405
11
6.3326771653543306
21
-5.6219127559055115
0
LINE
8
BLACK
6
CONTINUOUS
10
6.3326771653543306
20
-5.6219127559055115
11
6.3326771653543306
21
-5.6300557480314959
0
LINE
8
BLACK
6
CONTINUOUS
10
3.385576968503937
20
-5.5808353937007871
11
3.3923338188976375
21
-5.5830308267716537
0
LINE
8
BLACK
6
CONTINUOUS
10
3.3923338188976375
20
-5.5830308267716537
11
3.3986640157480315
21
-5.5862562204724409
0
LINE
8
BLACK
6
CONTINUOUS
10
3.3986640157480315
20
-5.5862562204724409
11
3.4044117322834646
21
-5.590432165354331
0
LINE
8
BLACK
6
CONTINUOUS
10
3.4044117322834646
20
-5.590432165354331
11
3.4094354330708661
21
-5.595455866141732
0
LINE
8
BLACK
6
CONTINUOUS
10
3.4094354330708661
20
-5.595455866141732
11
3.4136113779527557
21
-5.6012035826771651
0
LINE
8
BLACK
6
CONTINUOUS
10
3.4136113779527557
20
-5.6012035826771651
11
3.4168367716535433
21
-5.607533779527559
0
LINE
8
BLACK
6
CONTINUOUS
10
3.4168367716535433
20
-5.607533779527559
11
3.4190322047244095
21
-5.6142906299212596
0
LINE
8
BLACK
6
CONTINUOUS
10
3.4190322047244095
20
-5.6142906299212596
11
3.4201436220472439
21
-5.6213077165354326
0
LINE
8
BLACK
6
CONTINUOUS
10
3.4201436220472439
20
-5.6213077165354326
11
3.4201436220472439
21
-5.6284122834645665
0
LINE
8
BLACK
6
CONTINUOUS
10
3.4201436220472439
20
-5.6284122834645665
11
3.4190322047244095
21
-5.6354293700787403
0
LINE
8
BLACK
6
CONTINUOUS
10
3.4190322047244095
20
-5.6354293700787403
11
3.4168367716535433
21
-5.6421862204724409
0
LINE
8
BLACK
6
CONTINUOUS
10
3.4168367716535433
20
-5.6421862204724409
11
3.4136113779527557
21
-5.6485164173228348
0
LINE
8
BLACK
6
CONTINUOUS
10
3.4136113779527557
20
-5.6485164173228348
11
3.4094354330708661
21
-5.654264133858268
0
LINE
8
BLACK
6
CONTINUOUS
10
3.4094354330708661
20
-5.654264133858268
11
3.4044117322834646
21
-5.659287834645669
0
LINE
8
BLACK
6
CONTINUOUS
10
3.4044117322834646
20
-5.659287834645669
11
3.3986640157480315
21
-5.6634637795275591
0
LINE
8
BLACK
6
CONTINUOUS
10
3.3986640157480315
20
-5.6634637795275591
11
3.3923338188976375
21
-5.6666891732283462
0
LINE
8
BLACK
6
CONTINUOUS
10
3.3923338188976375
20
-5.6666891732283462
11
3.385576968503937
21
-5.6688846062992129
0
LINE
8
BLACK
6
CONTINUOUS
10
3.385576968503937
20
-5.6688846062992129
11
3.3785598818897635
21
-5.6699960236220468
0
LINE
8
BLACK
6
CONTINUOUS
10
3.3785598818897635
20
-5.6699960236220468
11
3.3714553149606297
21
-5.6699960236220468
0
LINE
8
BLACK
6
CONTINUOUS
10
3.3714553149606297
20
-5.6699960236220468
11
3.3644382283464567
21
-5.6688846062992129
0
LINE
8
BLACK
6
CONTINUOUS
10
3.3644382283464567
20
-5.6688846062992129
11
3.3576813779527557
21
-5.6666891732283462
0
LINE
8
BLACK
6
CONTINUOUS
10
3.3576813779527557
20
-5.6666891732283462
11
3.3513511811023622
21
-5.6634637795275591
0
LINE
8
BLACK
6
CONTINUOUS
10
3.3513511811023622
20
-5.6634637795275591
11
3.345603464566929
21
-5.659287834645669
0
LINE
8
BLACK
6
CONTINUOUS
10
3.345603464566929
20
-5.659287834645669
11
3.3405797637795276
21
-5.654264133858268
0
LINE
8
BLACK
6
CONTINUOUS
10
3.3405797637795276
20
-5.654264133858268
11
3.3364038188976379
21
-5.6485164173228348
0
LINE
8
BLACK
6
CONTINUOUS
10
3.3364038188976379
20
-5.6485164173228348
11
3.3331784251968504
21
-5.6421862204724409
0
LINE
8
BLACK
6
CONTINUOUS
10
3.3331784251968504
20
-5.6421862204724409
11
3.3309829921259841
21
-5.6354293700787403
0
LINE
8
BLACK
6
CONTINUOUS
10
3.3309829921259841
20
-5.6354293700787403
11
3.3298715748031493
21
-5.6284122834645665
0
LINE
8
BLACK
6
CONTINUOUS
10
3.3298715748031493
20
-5.6284122834645665
11
3.3298715748031493
21
-5.6213077165354326
0
LINE
8
BLACK
6
CONTINUOUS
10
3.3298715748031493
20
-5.6213077165354326
11
3.3299538188976379
21
-5.6207885039370078
0
LINE
8
BLACK
6
CONTINUOUS
10
3.3299538188976379
20
-5.6207885039370078
11
3.3309829921259841
21
-5.6142906299212596
0
LINE
8
BLACK
6
CONTINUOUS
10
3.3309829921259841
20
-5.6142906299212596
11
3.3331784251968504
21
-5.607533779527559
0
LINE
8
BLACK
6
CONTINUOUS
10
3.3331784251968504
20
-5.607533779527559
11
3.3364038188976379
21
-5.6012035826771651
0
LINE
8
BLACK
6
CONTINUOUS
10
3.3364038188976379
20
-5.6012035826771651
11
3.3405797637795276
21
-5.595455866141732
0
LINE
8
BLACK
6
CONTINUOUS
10
3.3405797637795276
20
-5.595455866141732
11
3.345603464566929
21
-5.590432165354331
0
LINE
8
BLACK
6
CONTINUOUS
10
3.345603464566929
20
-5.590432165354331
11
3.3513511811023622
21
-5.5862562204724409
0
LINE
8
BLACK
6
CONTINUOUS
10
3.3513511811023622
20
-5.5862562204724409
11
3.3576813779527557
21
-5.5830308267716537
0
LINE
8
BLACK
6
CONTINUOUS
10
3.3576813779527557
20
-5.5830308267716537
11
3.3644382283464567
21
-5.5808353937007871
0
LINE
8
BLACK
6
CONTINUOUS
10
3.3644382283464567
20
-5.5808353937007871
11
3.3714553149606297
21
-5.5797239763779523
0
LINE
8
BLACK
6
CONTINUOUS
10
3.3714553149606297
20
-5.5797239763779523
11
3.3785598818897635
21
-5.5797239763779523
0
LINE
8
BLACK
6
CONTINUOUS
10
3.3785598818897635
20
-5.5797239763779523
11
3.385576968503937
21
-5.5808353937007871
0
LINE
8
BLACK
6
CONTINUOUS
10
3.3336690157480313
20
-5.6289314960629921
11
3.3352575984251969
21
-5.6369180314960632
0
LINE
8
BLACK
6
CONTINUOUS
10
3.3352575984251969
20
-5.6369180314960632
11
3.3383738188976375
21
-5.644441181102362
0
LINE
8
BLACK
6
CONTINUOUS
10
3.3383738188976375
20
-5.644441181102362
11
3.3428977952755905
21
-5.6512118110236216
0
LINE
8
BLACK
6
CONTINUOUS
10
3.3428977952755905
20
-5.6512118110236216
11
3.3486557874015745
21
-5.6569698031496065
0
LINE
8
BLACK
6
CONTINUOUS
10
3.3486557874015745
20
-5.6569698031496065
11
3.3554264173228345
21
-5.6614937795275591
0
LINE
8
BLACK
6
CONTINUOUS
10
3.3554264173228345
20
-5.6614937795275591
11
3.3629495669291338
21
-5.6646099999999997
0
LINE
8
BLACK
6
CONTINUOUS
10
3.3629495669291338
20
-5.6646099999999997
11
3.3709361023622049
21
-5.6661985826771648
0
LINE
8
BLACK
6
CONTINUOUS
10
3.3709361023622049
20
-5.6661985826771648
11
3.3790790944881888
21
-5.6661985826771648
0
LINE
8
BLACK
6
CONTINUOUS
10
3.3790790944881888
20
-5.6661985826771648
11
3.3870656299212598
21
-5.6646099999999997
0
LINE
8
BLACK
6
CONTINUOUS
10
3.3870656299212598
20
-5.6646099999999997
11
3.3945887795275591
21
-5.6614937795275591
0
LINE
8
BLACK
6
CONTINUOUS
10
3.3945887795275591
20
-5.6614937795275591
11
3.4013594094488186
21
-5.6569698031496065
0
LINE
8
BLACK
6
CONTINUOUS
10
3.4013594094488186
20
-5.6569698031496065
11
3.4071174015748031
21
-5.6512118110236216
0
LINE
8
BLACK
6
CONTINUOUS
10
3.4071174015748031
20
-5.6512118110236216
11
3.4116413779527557
21
-5.644441181102362
0
LINE
8
BLACK
6
CONTINUOUS
10
3.4116413779527557
20
-5.644441181102362
11
3.4147575984251968
21
-5.6369180314960632
0
LINE
8
BLACK
6
CONTINUOUS
10
3.4147575984251968
20
-5.6369180314960632
11
3.4163461811023623
21
-5.6289314960629921
0
LINE
8
BLACK
6
CONTINUOUS
10
3.4163461811023623
20
-5.6289314960629921
11
3.4163461811023623
21
-5.6207885039370078
0
LINE
8
BLACK
6
CONTINUOUS
10
3.4163461811023623
20
-5.6207885039370078
11
3.4147575984251968
21
-5.6128019685039368
0
LINE
8
BLACK
6
CONTINUOUS
10
3.4147575984251968
20
-5.6128019685039368
11
3.4116413779527557
21
-5.6052788188976379
0
LINE
8
BLACK
6
CONTINUOUS
10
3.4116413779527557
20
-5.6052788188976379
11
3.4071174015748031
21
-5.5985081889763775
0
LINE
8
BLACK
6
CONTINUOUS
10
3.4071174015748031
20
-5.5985081889763775
11
3.4013594094488186
21
-5.5927501968503934
0
LINE
8
BLACK
6
CONTINUOUS
10
3.4013594094488186
20
-5.5927501968503934
11
3.3945887795275591
21
-5.5882262204724409
0
LINE
8
BLACK
6
CONTINUOUS
10
3.3945887795275591
20
-5.5882262204724409
11
3.3870656299212598
21
-5.5851100000000002
0
LINE
8
BLACK
6
CONTINUOUS
10
3.3870656299212598
20
-5.5851100000000002
11
3.3790790944881888
21
-5.5835214173228342
0
LINE
8
BLACK
6
CONTINUOUS
10
3.3790790944881888
20
-5.5835214173228342
11
3.3709361023622049
21
-5.5835214173228342
0
LINE
8
BLACK
6
CONTINUOUS
10
3.3709361023622049
20
-5.5835214173228342
11
3.3629495669291338
21
-5.5851100000000002
0
LINE
8
BLACK
6
CONTINUOUS
10
3.3629495669291338
20
-5.5851100000000002
11
3.3554264173228345
21
-5.5882262204724409
0
LINE
8
BLACK
6
CONTINUOUS
10
3.3554264173228345
20
-5.5882262204724409
11
3.3486557874015745
21
-5.5927501968503934
0
LINE
8
BLACK
6
CONTINUOUS
10
3.3486557874015745
20
-5.5927501968503934
11
3.3428977952755905
21
-5.5985081889763775
0
LINE
8
BLACK
6
CONTINUOUS
10
3.3428977952755905
20
-5.5985081889763775
11
3.3383738188976375
21
-5.6052788188976379
0
LINE
8
BLACK
6
CONTINUOUS
10
3.3383738188976375
20
-5.6052788188976379
11
3.3352575984251969
21
-5.6128019685039368
0
LINE
8
BLACK
6
CONTINUOUS
10
3.3352575984251969
20
-5.6128019685039368
11
3.3336690157480313
21
-5.6207885039370078
0
LINE
8
BLACK
6
CONTINUOUS
10
3.3336690157480313
20
-5.6207885039370078
11
3.3336690157480313
21
-5.6289314960629921
0
LINE
8
BLACK
6
CONTINUOUS
10
4.8855693700787404
20
-4.0809753937007871
11
4.8923262204724409
21
-4.0831708267716538
0
LINE
8
BLACK
6
CONTINUOUS
10
4.8923262204724409
20
-4.0831708267716538
11
4.8986564173228349
21
-4.0863962204724409
0
LINE
8
BLACK
6
CONTINUOUS
10
4.8986564173228349
20
-4.0863962204724409
11
4.904404133858268
21
-4.090572165354331
0
LINE
8
BLACK
6
CONTINUOUS
10
4.904404133858268
20
-4.090572165354331
11
4.909427834645669
21
-4.095595866141732
0
LINE
8
BLACK
6
CONTINUOUS
10
4.909427834645669
20
-4.095595866141732
11
4.9136037795275591
21
-4.1013435826771651
0
LINE
8
BLACK
6
CONTINUOUS
10
4.9136037795275591
20
-4.1013435826771651
11
4.9168291732283462
21
-4.1076737795275591
0
LINE
8
BLACK
6
CONTINUOUS
10
4.9168291732283462
20
-4.1076737795275591
11
4.9190246062992129
21
-4.1144306299212596
0
LINE
8
BLACK
6
CONTINUOUS
10
4.9190246062992129
20
-4.1144306299212596
11
4.9201360236220468
21
-4.1214477165354326
0
LINE
8
BLACK
6
CONTINUOUS
10
4.9201360236220468
20
-4.1214477165354326
11
4.9201360236220468
21
-4.1285522834645665
0
LINE
8
BLACK
6
CONTINUOUS
10
4.9201360236220468
20
-4.1285522834645665
11
4.9190246062992129
21
-4.1355693700787404
0
LINE
8
BLACK
6
CONTINUOUS
10
4.9190246062992129
20
-4.1355693700787404
11
4.9168291732283462
21
-4.1423262204724409
0
LINE
8
BLACK
6
CONTINUOUS
10
4.9168291732283462
20
-4.1423262204724409
11
4.9136037795275591
21
-4.1486564173228349
0
LINE
8
BLACK
6
CONTINUOUS
10
4.9136037795275591
20
-4.1486564173228349
11
4.909427834645669
21
-4.154404133858268
0
LINE
8
BLACK
6
CONTINUOUS
10
4.909427834645669
20
-4.154404133858268
11
4.904404133858268
21
-4.159427834645669
0
LINE
8
BLACK
6
CONTINUOUS
10
4.904404133858268
20
-4.159427834645669
11
4.8986564173228349
21
-4.1636037795275591
0
LINE
8
BLACK
6
CONTINUOUS
10
4.8986564173228349
20
-4.1636037795275591
11
4.8923262204724409
21
-4.1668291732283462
0
LINE
8
BLACK
6
CONTINUOUS
10
4.8923262204724409
20
-4.1668291732283462
11
4.8855693700787404
21
-4.1690246062992129
0
LINE
8
BLACK
6
CONTINUOUS
10
4.8855693700787404
20
-4.1690246062992129
11
4.8785522834645665
21
-4.1701360236220468
0
LINE
8
BLACK
6
CONTINUOUS
10
4.8785522834645665
20
-4.1701360236220468
11
4.8714477165354326
21
-4.1701360236220468
0
LINE
8
BLACK
6
CONTINUOUS
10
4.8714477165354326
20
-4.1701360236220468
11
4.8644306299212596
21
-4.1690246062992129
0
LINE
8
BLACK
6
CONTINUOUS
10
4.8644306299212596
20
-4.1690246062992129
11
4.8576737795275591
21
-4.1668291732283462
0
LINE
8
BLACK
6
CONTINUOUS
10
4.8576737795275591
20
-4.1668291732283462
11
4.8513435826771651
21
-4.1636037795275591
0
LINE
8
BLACK
6
CONTINUOUS
10
4.8513435826771651
20
-4.1636037795275591
11
4.845595866141732
21
-4.159427834645669
0
LINE
8
BLACK
6
CONTINUOUS
10
4.845595866141732
20
-4.159427834645669
11
4.840572165354331
21
-4.154404133858268
0
LINE
8
BLACK
6
CONTINUOUS
10
4.840572165354331
20
-4.154404133858268
11
4.8363962204724409
21
-4.1486564173228349
0
LINE
8
BLACK
6
CONTINUOUS
10
4.8363962204724409
20
-4.1486564173228349
11
4.8331708267716538
21
-4.1423262204724409
0
LINE
8
BLACK
6
CONTINUOUS
10
4.8331708267716538
20
-4.1423262204724409
11
4.8309753937007871
21
-4.1355693700787404
0
LINE
8
BLACK
6
CONTINUOUS
10
4.8309753937007871
20
-4.1355693700787404
11
4.8298639763779523
21
-4.1285522834645665
0
LINE
8
BLACK
6
CONTINUOUS
10
4.8298639763779523
20
-4.1285522834645665
11
4.8298639763779523
21
-4.1214477165354326
0
LINE
8
BLACK
6
CONTINUOUS
10
4.8298639763779523
20
-4.1214477165354326
11
4.8299462204724408
21
-4.1209285039370078
0
LINE
8
BLACK
6
CONTINUOUS
10
4.8299462204724408
20
-4.1209285039370078
11
4.8309753937007871
21
-4.1144306299212596
0
LINE
8
BLACK
6
CONTINUOUS
10
4.8309753937007871
20
-4.1144306299212596
11
4.8331708267716538
21
-4.1076737795275591
0
LINE
8
BLACK
6
CONTINUOUS
10
4.8331708267716538
20
-4.1076737795275591
11
4.8363962204724409
21
-4.1013435826771651
0
LINE
8
BLACK
6
CONTINUOUS
10
4.8363962204724409
20
-4.1013435826771651
11
4.840572165354331
21
-4.095595866141732
0
LINE
8
BLACK
6
CONTINUOUS
10
4.840572165354331
20
-4.095595866141732
11
4.845595866141732
21
-4.090572165354331
0
LINE
8
BLACK
6
CONTINUOUS
10
4.845595866141732
20
-4.090572165354331
11
4.8513435826771651
21
-4.0863962204724409
0
LINE
8
BLACK
6
CONTINUOUS
10
4.8513435826771651
20
-4.0863962204724409
11
4.8576737795275591
21
-4.0831708267716538
0
LINE
8
BLACK
6
CONTINUOUS
10
4.8576737795275591
20
-4.0831708267716538
11
4.8644306299212596
21
-4.0809753937007871
0
LINE
8
BLACK
6
CONTINUOUS
10
4.8644306299212596
20
-4.0809753937007871
11
4.8714477165354326
21
-4.0798639763779523
0
LINE
8
BLACK
6
CONTINUOUS
10
4.8714477165354326
20
-4.0798639763779523
11
4.8785522834645665
21
-4.0798639763779523
0
LINE
8
BLACK
6
CONTINUOUS
10
4.8785522834645665
20
-4.0798639763779523
11
4.8855693700787404
21
-4.0809753937007871
0
LINE
8
BLACK
6
CONTINUOUS
10
4.8336614173228343
20
-4.1290714960629922
11
4.8352500000000003
21
-4.1370580314960632
0
LINE
8
BLACK
6
CONTINUOUS
10
4.8352500000000003
20
-4.1370580314960632
11
4.8383662204724409
21
-4.1445811811023621
0
LINE
8
BLACK
6
CONTINUOUS
10
4.8383662204724409
20
-4.1445811811023621
11
4.8428901968503935
21
-4.1513518110236216
0
LINE
8
BLACK
6
CONTINUOUS
10
4.8428901968503935
20
-4.1513518110236216
11
4.8486481889763775
21
-4.1571098031496065
0
LINE
8
BLACK
6
CONTINUOUS
10
4.8486481889763775
20
-4.1571098031496065
11
4.8554188188976379
21
-4.1616337795275591
0
LINE
8
BLACK
6
CONTINUOUS
10
4.8554188188976379
20
-4.1616337795275591
11
4.8629419685039368
21
-4.1647499999999997
0
LINE
8
BLACK
6
CONTINUOUS
10
4.8629419685039368
20
-4.1647499999999997
11
4.8709285039370078
21
-4.1663385826771648
0
LINE
8
BLACK
6
CONTINUOUS
10
4.8709285039370078
20
-4.1663385826771648
11
4.8790714960629922
21
-4.1663385826771648
0
LINE
8
BLACK
6
CONTINUOUS
10
4.8790714960629922
20
-4.1663385826771648
11
4.8870580314960632
21
-4.1647499999999997
0
LINE
8
BLACK
6
CONTINUOUS
10
4.8870580314960632
20
-4.1647499999999997
11
4.8945811811023621
21
-4.1616337795275591
0
LINE
8
BLACK
6
CONTINUOUS
10
4.8945811811023621
20
-4.1616337795275591
11
4.9013518110236216
21
-4.1571098031496065
0
LINE
8
BLACK
6
CONTINUOUS
10
4.9013518110236216
20
-4.1571098031496065
11
4.9071098031496065
21
-4.1513518110236216
0
LINE
8
BLACK
6
CONTINUOUS
10
4.9071098031496065
20
-4.1513518110236216
11
4.9116337795275591
21
-4.1445811811023621
0
LINE
8
BLACK
6
CONTINUOUS
10
4.9116337795275591
20
-4.1445811811023621
11
4.9147499999999997
21
-4.1370580314960632
0
LINE
8
BLACK
6
CONTINUOUS
10
4.9147499999999997
20
-4.1370580314960632
11
4.9163385826771648
21
-4.1290714960629922
0
LINE
8
BLACK
6
CONTINUOUS
10
4.9163385826771648
20
-4.1290714960629922
11
4.9163385826771648
21
-4.1209285039370078
0
LINE
8
BLACK
6
CONTINUOUS
10
4.9163385826771648
20
-4.1209285039370078
11
4.9147499999999997
21
-4.1129419685039368
0
LINE
8
BLACK
6
CONTINUOUS
10
4.9147499999999997
20
-4.1129419685039368
11
4.9116337795275591
21
-4.1054188188976379
0
LINE
8
BLACK
6
CONTINUOUS
10
4.9116337795275591
20
-4.1054188188976379
11
4.9071098031496065
21
-4.0986481889763775
0
LINE
8
BLACK
6
CONTINUOUS
10
4.9071098031496065
20
-4.0986481889763775
11
4.9013518110236216
21
-4.0928901968503935
0
LINE
8
BLACK
6
CONTINUOUS
10
4.9013518110236216
20
-4.0928901968503935
11
4.8945811811023621
21
-4.0883662204724409
0
LINE
8
BLACK
6
CONTINUOUS
10
4.8945811811023621
20
-4.0883662204724409
11
4.8870580314960632
21
-4.0852500000000003
0
LINE
8
BLACK
6
CONTINUOUS
10
4.8870580314960632
20
-4.0852500000000003
11
4.8790714960629922
21
-4.0836614173228343
0
LINE
8
BLACK
6
CONTINUOUS
10
4.8790714960629922
20
-4.0836614173228343
11
4.8709285039370078
21
-4.0836614173228343
0
LINE
8
BLACK
6
CONTINUOUS
10
4.8709285039370078
20
-4.0836614173228343
11
4.8629419685039368
21
-4.0852500000000003
0
LINE
8
BLACK
6
CONTINUOUS
10
4.8629419685039368
20
-4.0852500000000003
11
4.8554188188976379
21
-4.0883662204724409
0
LINE
8
BLACK
6
CONTINUOUS
10
4.8554188188976379
20
-4.0883662204724409
11
4.8486481889763775
21
-4.0928901968503935
0
LINE
8
BLACK
6
CONTINUOUS
10
4.8486481889763775
20
-4.0928901968503935
11
4.8428901968503935
21
-4.0986481889763775
0
LINE
8
BLACK
6
CONTINUOUS
10
4.8428901968503935
20
-4.0986481889763775
11
4.8383662204724409
21
-4.1054188188976379
0
LINE
8
BLACK
6
CONTINUOUS
10
4.8383662204724409
20
-4.1054188188976379
11
4.8352500000000003
21
-4.1129419685039368
0
LINE
8
BLACK
6
CONTINUOUS
10
4.8352500000000003
20
-4.1129419685039368
11
4.8336614173228343
21
-4.1209285039370078
0
LINE
8
BLACK
6
CONTINUOUS
10
4.8336614173228343
20
-4.1209285039370078
11
4.8336614173228343
21
-4.1290714960629922
0
LINE
8
BLACK
6
CONTINUOUS
10
3.3855693700787399
20
-3.3309753937007875
11
3.3923262204724409
21
-3.3331708267716533
0
LINE
8
BLACK
6
CONTINUOUS
10
3.3923262204724409
20
-3.3331708267716533
11
3.3986564173228344
21
-3.3363962204724409
0
LINE
8
BLACK
6
CONTINUOUS
10
3.3986564173228344
20
-3.3363962204724409
11
3.4044041338582676
21
-3.3405721653543305
0
LINE
8
BLACK
6
CONTINUOUS
10
3.4044041338582676
20
-3.3405721653543305
11
3.409427834645669
21
-3.345595866141732
0
LINE
8
BLACK
6
CONTINUOUS
10
3.409427834645669
20
-3.345595866141732
11
3.4136037795275591
21
-3.3513435826771651
0
LINE
8
BLACK
6
CONTINUOUS
10
3.4136037795275591
20
-3.3513435826771651
11
3.4168291732283462
21
-3.3576737795275591
0
LINE
8
BLACK
6
CONTINUOUS
10
3.4168291732283462
20
-3.3576737795275591
11
3.4190246062992125
21
-3.3644306299212596
0
LINE
8
BLACK
6
CONTINUOUS
10
3.4190246062992125
20
-3.3644306299212596
11
3.4201360236220473
21
-3.3714477165354331
0
LINE
8
BLACK
6
CONTINUOUS
10
3.4201360236220473
20
-3.3714477165354331
11
3.4201360236220473
21
-3.3785522834645669
0
LINE
8
BLACK
6
CONTINUOUS
10
3.4201360236220473
20
-3.3785522834645669
11
3.4190246062992125
21
-3.3855693700787399
0
LINE
8
BLACK
6
CONTINUOUS
10
3.4190246062992125
20
-3.3855693700787399
11
3.4168291732283462
21
-3.3923262204724409
0
LINE
8
BLACK
6
CONTINUOUS
10
3.4168291732283462
20
-3.3923262204724409
11
3.4136037795275591
21
-3.3986564173228344
0
LINE
8
BLACK
6
CONTINUOUS
10
3.4136037795275591
20
-3.3986564173228344
11
3.409427834645669
21
-3.4044041338582676
0
LINE
8
BLACK
6
CONTINUOUS
10
3.409427834645669
20
-3.4044041338582676
11
3.4044041338582676
21
-3.409427834645669
0
LINE
8
BLACK
6
CONTINUOUS
10
3.4044041338582676
20
-3.409427834645669
11
3.3986564173228344
21
-3.4136037795275591
0
LINE
8
BLACK
6
CONTINUOUS
10
3.3986564173228344
20
-3.4136037795275591
11
3.3923262204724409
21
-3.4168291732283462
0
LINE
8
BLACK
6
CONTINUOUS
10
3.3923262204724409
20
-3.4168291732283462
11
3.3855693700787399
21
-3.4190246062992125
0
LINE
8
BLACK
6
CONTINUOUS
10
3.3855693700787399
20
-3.4190246062992125
11
3.3785522834645669
21
-3.4201360236220473
0
LINE
8
BLACK
6
CONTINUOUS
10
3.3785522834645669
20
-3.4201360236220473
11
3.3714477165354331
21
-3.4201360236220473
0
LINE
8
BLACK
6
CONTINUOUS
10
3.3714477165354331
20
-3.4201360236220473
11
3.3644306299212596
21
-3.4190246062992125
0
LINE
8
BLACK
6
CONTINUOUS
10
3.3644306299212596
20
-3.4190246062992125
11
3.3576737795275591
21
-3.4168291732283462
0
LINE
8
BLACK
6
CONTINUOUS
10
3.3576737795275591
20
-3.4168291732283462
11
3.3513435826771651
21
-3.4136037795275591
0
LINE
8
BLACK
6
CONTINUOUS
10
3.3513435826771651
20
-3.4136037795275591
11
3.345595866141732
21
-3.409427834645669
0
LINE
8
BLACK
6
CONTINUOUS
10
3.345595866141732
20
-3.409427834645669
11
3.3405721653543305
21
-3.4044041338582676
0
LINE
8
BLACK
6
CONTINUOUS
10
3.3405721653543305
20
-3.4044041338582676
11
3.3363962204724409
21
-3.3986564173228344
0
LINE
8
BLACK
6
CONTINUOUS
10
3.3363962204724409
20
-3.3986564173228344
11
3.3331708267716533
21
-3.3923262204724409
0
LINE
8
BLACK
6
CONTINUOUS
10
3.3331708267716533
20
-3.3923262204724409
11
3.3309753937007875
21
-3.3855693700787399
0
LINE
8
BLACK
6
CONTINUOUS
10
3.3309753937007875
20
-3.3855693700787399
11
3.3298639763779527
21
-3.3785522834645669
0
LINE
8
BLACK
6
CONTINUOUS
10
3.3298639763779527
20
-3.3785522834645669
11
3.3298639763779527
21
-3.3714477165354331
0
LINE
8
BLACK
6
CONTINUOUS
10
3.3298639763779527
20
-3.3714477165354331
11
3.3299462204724408
21
-3.3709285039370078
0
LINE
8
BLACK
6
CONTINUOUS
10
3.3299462204724408
20
-3.3709285039370078
11
3.3309753937007875
21
-3.3644306299212596
0
LINE
8
BLACK
6
CONTINUOUS
10
3.3309753937007875
20
-3.3644306299212596
11
3.3331708267716533
21
-3.3576737795275591
0
LINE
8
BLACK
6
CONTINUOUS
10
3.3331708267716533
20
-3.3576737795275591
11
3.3363962204724409
21
-3.3513435826771651
0
LINE
8
BLACK
6
CONTINUOUS
10
3.3363962204724409
20
-3.3513435826771651
11
3.3405721653543305
21
-3.345595866141732
0
LINE
8
BLACK
6
CONTINUOUS
10
3.3405721653543305
20
-3.345595866141732
11
3.345595866141732
21
-3.3405721653543305
0
LINE
8
BLACK
6
CONTINUOUS
10
3.345595866141732
20
-3.3405721653543305
11
3.3513435826771651
21
-3.3363962204724409
0
LINE
8
BLACK
6
CONTINUOUS
10
3.3513435826771651
20
-3.3363962204724409
11
3.3576737795275591
21
-3.3331708267716533
0
LINE
8
BLACK
6
CONTINUOUS
10
3.3576737795275591
20
-3.3331708267716533
11
3.3644306299212596
21
-3.3309753937007875
0
LINE
8
BLACK
6
CONTINUOUS
10
3.3644306299212596
20
-3.3309753937007875
11
3.3714477165354331
21
-3.3298639763779527
0
LINE
8
BLACK
6
CONTINUOUS
10
3.3714477165354331
20
-3.3298639763779527
11
3.3785522834645669
21
-3.3298639763779527
0
LINE
8
BLACK
6
CONTINUOUS
10
3.3785522834645669
20
-3.3298639763779527
11
3.3855693700787399
21
-3.3309753937007875
0
LINE
8
BLACK
6
CONTINUOUS
10
3.3336614173228347
20
-3.3790714960629922
11
3.3352499999999998
21
-3.3870580314960628
0
LINE
8
BLACK
6
CONTINUOUS
10
3.3352499999999998
20
-3.3870580314960628
11
3.3383662204724409
21
-3.3945811811023621
0
LINE
8
BLACK
6
CONTINUOUS
10
3.3383662204724409
20
-3.3945811811023621
11
3.3428901968503935
21
-3.4013518110236221
0
LINE
8
BLACK
6
CONTINUOUS
10
3.3428901968503935
20
-3.4013518110236221
11
3.3486481889763779
21
-3.4071098031496061
0
LINE
8
BLACK
6
CONTINUOUS
10
3.3486481889763779
20
-3.4071098031496061
11
3.3554188188976379
21
-3.4116337795275591
0
LINE
8
BLACK
6
CONTINUOUS
10
3.3554188188976379
20
-3.4116337795275591
11
3.3629419685039368
21
-3.4147499999999997
0
LINE
8
BLACK
6
CONTINUOUS
10
3.3629419685039368
20
-3.4147499999999997
11
3.3709285039370078
21
-3.4163385826771653
0
LINE
8
BLACK
6
CONTINUOUS
10
3.3709285039370078
20
-3.4163385826771653
11
3.3790714960629922
21
-3.4163385826771653
0
LINE
8
BLACK
6
CONTINUOUS
10
3.3790714960629922
20
-3.4163385826771653
11
3.3870580314960628
21
-3.4147499999999997
0
LINE
8
BLACK
6
CONTINUOUS
10
3.3870580314960628
20
-3.4147499999999997
11
3.3945811811023621
21
-3.4116337795275591
0
LINE
8
BLACK
6
CONTINUOUS
10
3.3945811811023621
20
-3.4116337795275591
11
3.4013518110236221
21
-3.4071098031496061
0
LINE
8
BLACK
6
CONTINUOUS
10
3.4013518110236221
20
-3.4071098031496061
11
3.4071098031496061
21
-3.4013518110236221
0
LINE
8
BLACK
6
CONTINUOUS
10
3.4071098031496061
20
-3.4013518110236221
11
3.4116337795275591
21
-3.3945811811023621
0
LINE
8
BLACK
6
CONTINUOUS
10
3.4116337795275591
20
-3.3945811811023621
11
3.4147499999999997
21
-3.3870580314960628
0
LINE
8
BLACK
6
CONTINUOUS
10
3.4147499999999997
20
-3.3870580314960628
11
3.4163385826771653
21
-3.3790714960629922
0
LINE
8
BLACK
6
CONTINUOUS
10
3.4163385826771653
20
-3.3790714960629922
11
3.4163385826771653
21
-3.3709285039370078
0
LINE
8
BLACK
6
CONTINUOUS
10
3.4163385826771653
20
-3.3709285039370078
11
3.4147499999999997
21
-3.3629419685039368
0
LINE
8
BLACK
6
CONTINUOUS
10
3.4147499999999997
20
-3.3629419685039368
11
3.4116337795275591
21
-3.3554188188976379
0
LINE
8
BLACK
6
CONTINUOUS
10
3.4116337795275591
20
-3.3554188188976379
11
3.4071098031496061
21
-3.3486481889763779
0
LINE
8
BLACK
6
CONTINUOUS
10
3.4071098031496061
20
-3.3486481889763779
11
3.4013518110236221
21
-3.3428901968503935
0
LINE
8
BLACK
6
CONTINUOUS
10
3.4013518110236221
20
-3.3428901968503935
11
3.3945811811023621
21
-3.3383662204724409
0
LINE
8
BLACK
6
CONTINUOUS
10
3.3945811811023621
20
-3.3383662204724409
11
3.3870580314960628
21
-3.3352499999999998
0
LINE
8
BLACK
6
CONTINUOUS
10
3.3870580314960628
20
-3.3352499999999998
11
3.3790714960629922
21
-3.3336614173228347
0
LINE
8
BLACK
6
CONTINUOUS
10
3.3790714960629922
20
-3.3336614173228347
11
3.3709285039370078
21
-3.3336614173228347
0
LINE
8
BLACK
6
CONTINUOUS
10
3.3709285039370078
20
-3.3336614173228347
11
3.3629419685039368
21
-3.3352499999999998
0
LINE
8
BLACK
6
CONTINUOUS
10
3.3629419685039368
20
-3.3352499999999998
11
3.3554188188976379
21
-3.3383662204724409
0
LINE
8
BLACK
6
CONTINUOUS
10
3.3554188188976379
20
-3.3383662204724409
11
3.3486481889763779
21
-3.3428901968503935
0
LINE
8
BLACK
6
CONTINUOUS
10
3.3486481889763779
20
-3.3428901968503935
11
3.3428901968503935
21
-3.3486481889763779
0
LINE
8
BLACK
6
CONTINUOUS
10
3.3428901968503935
20
-3.3486481889763779
11
3.3383662204724409
21
-3.3554188188976379
0
LINE
8
BLACK
6
CONTINUOUS
10
3.3383662204724409
20
-3.3554188188976379
11
3.3352499999999998
21
-3.3629419685039368
0
LINE
8
BLACK
6
CONTINUOUS
10
3.3352499999999998
20
-3.3629419685039368
11
3.3336614173228347
21
-3.3709285039370078
0
LINE
8
BLACK
6
CONTINUOUS
10
3.3336614173228347
20
-3.3709285039370078
11
3.3336614173228347
21
-3.3790714960629922
0
LINE
8
BLACK
6
CONTINUOUS
10
6.3855693700787404
20
-3.3309753937007875
11
6.3923262204724409
21
-3.3331708267716533
0
LINE
8
BLACK
6
CONTINUOUS
10
6.3923262204724409
20
-3.3331708267716533
11
6.3986564173228349
21
-3.3363962204724409
0
LINE
8
BLACK
6
CONTINUOUS
10
6.3986564173228349
20
-3.3363962204724409
11
6.404404133858268
21
-3.3405721653543305
0
LINE
8
BLACK
6
CONTINUOUS
10
6.404404133858268
20
-3.3405721653543305
11
6.409427834645669
21
-3.345595866141732
0
LINE
8
BLACK
6
CONTINUOUS
10
6.409427834645669
20
-3.345595866141732
11
6.4136037795275591
21
-3.3513435826771651
0
LINE
8
BLACK
6
CONTINUOUS
10
6.4136037795275591
20
-3.3513435826771651
11
6.4168291732283462
21
-3.3576737795275591
0
LINE
8
BLACK
6
CONTINUOUS
10
6.4168291732283462
20
-3.3576737795275591
11
6.419024606299212
21
-3.3644306299212596
0
LINE
8
BLACK
6
CONTINUOUS
10
6.419024606299212
20
-3.3644306299212596
11
6.4201360236220468
21
-3.3714477165354331
0
LINE
8
BLACK
6
CONTINUOUS
10
6.4201360236220468
20
-3.3714477165354331
11
6.4201360236220468
21
-3.3785522834645669
0
LINE
8
BLACK
6
CONTINUOUS
10
6.4201360236220468
20
-3.3785522834645669
11
6.419024606299212
21
-3.3855693700787399
0
LINE
8
BLACK
6
CONTINUOUS
10
6.419024606299212
20
-3.3855693700787399
11
6.4168291732283462
21
-3.3923262204724409
0
LINE
8
BLACK
6
CONTINUOUS
10
6.4168291732283462
20
-3.3923262204724409
11
6.4136037795275591
21
-3.3986564173228344
0
LINE
8
BLACK
6
CONTINUOUS
10
6.4136037795275591
20
-3.3986564173228344
11
6.409427834645669
21
-3.4044041338582676
0
LINE
8
BLACK
6
CONTINUOUS
10
6.409427834645669
20
-3.4044041338582676
11
6.404404133858268
21
-3.409427834645669
0
LINE
8
BLACK
6
CONTINUOUS
10
6.404404133858268
20
-3.409427834645669
11
6.3986564173228349
21
-3.4136037795275591
0
LINE
8
BLACK
6
CONTINUOUS
10
6.3986564173228349
20
-3.4136037795275591
11
6.3923262204724409
21
-3.4168291732283462
0
LINE
8
BLACK
6
CONTINUOUS
10
6.3923262204724409
20
-3.4168291732283462
11
6.3855693700787404
21
-3.4190246062992125
0
LINE
8
BLACK
6
CONTINUOUS
10
6.3855693700787404
20
-3.4190246062992125
11
6.3785522834645665
21
-3.4201360236220473
0
LINE
8
BLACK
6
CONTINUOUS
10
6.3785522834645665
20
-3.4201360236220473
11
6.3714477165354326
21
-3.4201360236220473
0
LINE
8
BLACK
6
CONTINUOUS
10
6.3714477165354326
20
-3.4201360236220473
11
6.3644306299212596
21
-3.4190246062992125
0
LINE
8
BLACK
6
CONTINUOUS
10
6.3644306299212596
20
-3.4190246062992125
11
6.3576737795275591
21
-3.4168291732283462
0
LINE
8
BLACK
6
CONTINUOUS
10
6.3576737795275591
20
-3.4168291732283462
11
6.3513435826771651
21
-3.4136037795275591
0
LINE
8
BLACK
6
CONTINUOUS
10
6.3513435826771651
20
-3.4136037795275591
11
6.345595866141732
21
-3.409427834645669
0
LINE
8
BLACK
6
CONTINUOUS
10
6.345595866141732
20
-3.409427834645669
11
6.340572165354331
21
-3.4044041338582676
0
LINE
8
BLACK
6
CONTINUOUS
10
6.340572165354331
20
-3.4044041338582676
11
6.3363962204724409
21
-3.3986564173228344
0
LINE
8
BLACK
6
CONTINUOUS
10
6.3363962204724409
20
-3.3986564173228344
11
6.3331708267716538
21
-3.3923262204724409
0
LINE
8
BLACK
6
CONTINUOUS
10
6.3331708267716538
20
-3.3923262204724409
11
6.3309753937007871
21
-3.3855693700787399
0
LINE
8
BLACK
6
CONTINUOUS
10
6.3309753937007871
20
-3.3855693700787399
11
6.3298639763779523
21
-3.3785522834645669
0
LINE
8
BLACK
6
CONTINUOUS
10
6.3298639763779523
20
-3.3785522834645669
11
6.3298639763779523
21
-3.3714477165354331
0
LINE
8
BLACK
6
CONTINUOUS
10
6.3298639763779523
20
-3.3714477165354331
11
6.3299462204724408
21
-3.3709285039370078
0
LINE
8
BLACK
6
CONTINUOUS
10
6.3299462204724408
20
-3.3709285039370078
11
6.3309753937007871
21
-3.3644306299212596
0
LINE
8
BLACK
6
CONTINUOUS
10
6.3309753937007871
20
-3.3644306299212596
11
6.3331708267716538
21
-3.3576737795275591
0
LINE
8
BLACK
6
CONTINUOUS
10
6.3331708267716538
20
-3.3576737795275591
11
6.3363962204724409
21
-3.3513435826771651
0
LINE
8
BLACK
6
CONTINUOUS
10
6.3363962204724409
20
-3.3513435826771651
11
6.340572165354331
21
-3.345595866141732
0
LINE
8
BLACK
6
CONTINUOUS
10
6.340572165354331
20
-3.345595866141732
11
6.345595866141732
21
-3.3405721653543305
0
LINE
8
BLACK
6
CONTINUOUS
10
6.345595866141732
20
-3.3405721653543305
11
6.3513435826771651
21
-3.3363962204724409
0
LINE
8
BLACK
6
CONTINUOUS
10
6.3513435826771651
20
-3.3363962204724409
11
6.3576737795275591
21
-3.3331708267716533
0
LINE
8
BLACK
6
CONTINUOUS
10
6.3576737795275591
20
-3.3331708267716533
11
6.3644306299212596
21
-3.3309753937007875
0
LINE
8
BLACK
6
CONTINUOUS
10
6.3644306299212596
20
-3.3309753937007875
11
6.3714477165354326
21
-3.3298639763779527
0
LINE
8
BLACK
6
CONTINUOUS
10
6.3714477165354326
20
-3.3298639763779527
11
6.3785522834645665
21
-3.3298639763779527
0
LINE
8
BLACK
6
CONTINUOUS
10
6.3785522834645665
20
-3.3298639763779527
11
6.3855693700787404
21
-3.3309753937007875
0
LINE
8
BLACK
6
CONTINUOUS
10
6.3336614173228343
20
-3.3790714960629922
11
6.3352500000000003
21
-3.3870580314960628
0
LINE
8
BLACK
6
CONTINUOUS
10
6.3352500000000003
20
-3.3870580314960628
11
6.3383662204724409
21
-3.3945811811023621
0
LINE
8
BLACK
6
CONTINUOUS
10
6.3383662204724409
20
-3.3945811811023621
11
6.3428901968503935
21
-3.4013518110236221
0
LINE
8
BLACK
6
CONTINUOUS
10
6.3428901968503935
20
-3.4013518110236221
11
6.3486481889763775
21
-3.4071098031496061
0
LINE
8
BLACK
6
CONTINUOUS
10
6.3486481889763775
20
-3.4071098031496061
11
6.3554188188976379
21
-3.4116337795275591
0
LINE
8
BLACK
6
CONTINUOUS
10
6.3554188188976379
20
-3.4116337795275591
11
6.3629419685039368
21
-3.4147499999999997
0
LINE
8
BLACK
6
CONTINUOUS
10
6.3629419685039368
20
-3.4147499999999997
11
6.3709285039370078
21
-3.4163385826771653
0
LINE
8
BLACK
6
CONTINUOUS
10
6.3709285039370078
20
-3.4163385826771653
11
6.3790714960629922
21
-3.4163385826771653
0
LINE
8
BLACK
6
CONTINUOUS
10
6.3790714960629922
20
-3.4163385826771653
11
6.3870580314960632
21
-3.4147499999999997
0
LINE
8
BLACK
6
CONTINUOUS
10
6.3870580314960632
20
-3.4147499999999997
11
6.3945811811023621
21
-3.4116337795275591
0
LINE
8
BLACK
6
CONTINUOUS
10
6.3945811811023621
20
-3.4116337795275591
11
6.4013518110236216
21
-3.4071098031496061
0
LINE
8
BLACK
6
CONTINUOUS
10
6.4013518110236216
20
-3.4071098031496061
11
6.4071098031496065
21
-3.4013518110236221
0
LINE
8
BLACK
6
CONTINUOUS
10
6.4071098031496065
20
-3.4013518110236221
11
6.4116337795275591
21
-3.3945811811023621
0
LINE
8
BLACK
6
CONTINUOUS
10
6.4116337795275591
20
-3.3945811811023621
11
6.4147499999999997
21
-3.3870580314960628
0
LINE
8
BLACK
6
CONTINUOUS
10
6.4147499999999997
20
-3.3870580314960628
11
6.4163385826771648
21
-3.3790714960629922
0
LINE
8
BLACK
6
CONTINUOUS
10
6.4163385826771648
20
-3.3790714960629922
11
6.4163385826771648
21
-3.3709285039370078
0
LINE
8
BLACK
6
CONTINUOUS
10
6.4163385826771648
20
-3.3709285039370078
11
6.4147499999999997
21
-3.3629419685039368
0
LINE
8
BLACK
6
CONTINUOUS
10
6.4147499999999997
20
-3.3629419685039368
11
6.4116337795275591
21
-3.3554188188976379
0
LINE
8
BLACK
6
CONTINUOUS
10
6.4116337795275591
20
-3.3554188188976379
11
6.4071098031496065
21
-3.3486481889763779
0
LINE
8
BLACK
6
CONTINUOUS
10
6.4071098031496065
20
-3.3486481889763779
11
6.4013518110236216
21
-3.3428901968503935
0
LINE
8
BLACK
6
CONTINUOUS
10
6.4013518110236216
20
-3.3428901968503935
11
6.3945811811023621
21
-3.3383662204724409
0
LINE
8
BLACK
6
CONTINUOUS
10
6.3945811811023621
20
-3.3383662204724409
11
6.3870580314960632
21
-3.3352499999999998
0
LINE
8
BLACK
6
CONTINUOUS
10
6.3870580314960632
20
-3.3352499999999998
11
6.3790714960629922
21
-3.3336614173228347
0
LINE
8
BLACK
6
CONTINUOUS
10
6.3790714960629922
20
-3.3336614173228347
11
6.3709285039370078
21
-3.3336614173228347
0
LINE
8
BLACK
6
CONTINUOUS
10
6.3709285039370078
20
-3.3336614173228347
11
6.3629419685039368
21
-3.3352499999999998
0
LINE
8
BLACK
6
CONTINUOUS
10
6.3629419685039368
20
-3.3352499999999998
11
6.3554188188976379
21
-3.3383662204724409
0
LINE
8
BLACK
6
CONTINUOUS
10
6.3554188188976379
20
-3.3383662204724409
11
6.3486481889763775
21
-3.3428901968503935
0
LINE
8
BLACK
6
CONTINUOUS
10
6.3486481889763775
20
-3.3428901968503935
11
6.3428901968503935
21
-3.3486481889763779
0
LINE
8
BLACK
6
CONTINUOUS
10
6.3428901968503935
20
-3.3486481889763779
11
6.3383662204724409
21
-3.3554188188976379
0
LINE
8
BLACK
6
CONTINUOUS
10
6.3383662204724409
20
-3.3554188188976379
11
6.3352500000000003
21
-3.3629419685039368
0
LINE
8
BLACK
6
CONTINUOUS
10
6.3352500000000003
20
-3.3629419685039368
11
6.3336614173228343
21
-3.3709285039370078
0
LINE
8
BLACK
6
CONTINUOUS
10
6.3336614173228343
20
-3.3709285039370078
11
6.3336614173228343
21
-3.3790714960629922
0
LINE
8
BLACK
6
CONTINUOUS
10
2.7920654330708663
20
-2.4205423228346454
11
2.7988222834645669
21
-2.4227377559055117
0
LINE
8
BLACK
6
CONTINUOUS
10
2.7988222834645669
20
-2.4227377559055117
11
2.8051524803149608
21
-2.4259631496062992
0
LINE
8
BLACK
6
CONTINUOUS
10
2.8051524803149608
20
-2.4259631496062992
11
2.8109001968503935
21
-2.4301390944881889
0
LINE
8
BLACK
6
CONTINUOUS
10
2.8109001968503935
20
-2.4301390944881889
11
2.8159238976377954
21
-2.4351627952755903
0
LINE
8
BLACK
6
CONTINUOUS
10
2.8159238976377954
20
-2.4351627952755903
11
2.820099842519685
21
-2.4409105118110235
0
LINE
8
BLACK
6
CONTINUOUS
10
2.820099842519685
20
-2.4409105118110235
11
2.8233252362204722
21
-2.4472407086614174
0
LINE
8
BLACK
6
CONTINUOUS
10
2.8233252362204722
20
-2.4472407086614174
11
2.8255206692913384
21
-2.453997559055118
0
LINE
8
BLACK
6
CONTINUOUS
10
2.8255206692913384
20
-2.453997559055118
11
2.8266320866141732
21
-2.4610146456692914
0
LINE
8
BLACK
6
CONTINUOUS
10
2.8266320866141732
20
-2.4610146456692914
11
2.8266320866141732
21
-2.4681192125984253
0
LINE
8
BLACK
6
CONTINUOUS
10
2.8266320866141732
20
-2.4681192125984253
11
2.8255206692913384
21
-2.4751362992125983
0
LINE
8
BLACK
6
CONTINUOUS
10
2.8255206692913384
20
-2.4751362992125983
11
2.8233252362204722
21
-2.4818931496062993
0
LINE
8
BLACK
6
CONTINUOUS
10
2.8233252362204722
20
-2.4818931496062993
11
2.820099842519685
21
-2.4882233464566927
0
LINE
8
BLACK
6
CONTINUOUS
10
2.820099842519685
20
-2.4882233464566927
11
2.8159238976377954
21
-2.4939710629921259
0
LINE
8
BLACK
6
CONTINUOUS
10
2.8159238976377954
20
-2.4939710629921259
11
2.8109001968503935
21
-2.4989947637795273
0
LINE
8
BLACK
6
CONTINUOUS
10
2.8109001968503935
20
-2.4989947637795273
11
2.8051524803149608
21
-2.5031707086614174
0
LINE
8
BLACK
6
CONTINUOUS
10
2.8051524803149608
20
-2.5031707086614174
11
2.7988222834645669
21
-2.5063961023622046
0
LINE
8
BLACK
6
CONTINUOUS
10
2.7988222834645669
20
-2.5063961023622046
11
2.7920654330708663
21
-2.5085915354330708
0
LINE
8
BLACK
6
CONTINUOUS
10
2.7920654330708663
20
-2.5085915354330708
11
2.7850483464566929
21
-2.5097029527559056
0
LINE
8
BLACK
6
CONTINUOUS
10
2.7850483464566929
20
-2.5097029527559056
11
2.777943779527559
21
-2.5097029527559056
0
LINE
8
BLACK
6
CONTINUOUS
10
2.777943779527559
20
-2.5097029527559056
11
2.7709266929133856
21
-2.5085915354330708
0
LINE
8
BLACK
6
CONTINUOUS
10
2.7709266929133856
20
-2.5085915354330708
11
2.764169842519685
21
-2.5063961023622046
0
LINE
8
BLACK
6
CONTINUOUS
10
2.764169842519685
20
-2.5063961023622046
11
2.7578396456692911
21
-2.5031707086614174
0
LINE
8
BLACK
6
CONTINUOUS
10
2.7578396456692911
20
-2.5031707086614174
11
2.7520919291338584
21
-2.4989947637795273
0
LINE
8
BLACK
6
CONTINUOUS
10
2.7520919291338584
20
-2.4989947637795273
11
2.7470682283464565
21
-2.4939710629921259
0
LINE
8
BLACK
6
CONTINUOUS
10
2.7470682283464565
20
-2.4939710629921259
11
2.7428922834645668
21
-2.4882233464566927
0
LINE
8
BLACK
6
CONTINUOUS
10
2.7428922834645668
20
-2.4882233464566927
11
2.7396668897637793
21
-2.4818931496062993
0
LINE
8
BLACK
6
CONTINUOUS
10
2.7396668897637793
20
-2.4818931496062993
11
2.7374714566929135
21
-2.4751362992125983
0
LINE
8
BLACK
6
CONTINUOUS
10
2.7374714566929135
20
-2.4751362992125983
11
2.7363600393700787
21
-2.4681192125984253
0
LINE
8
BLACK
6
CONTINUOUS
10
2.7363600393700787
20
-2.4681192125984253
11
2.7363600393700787
21
-2.4610146456692914
0
LINE
8
BLACK
6
CONTINUOUS
10
2.7363600393700787
20
-2.4610146456692914
11
2.7364422834645667
21
-2.4604954330708662
0
LINE
8
BLACK
6
CONTINUOUS
10
2.7364422834645667
20
-2.4604954330708662
11
2.7374714566929135
21
-2.453997559055118
0
LINE
8
BLACK
6
CONTINUOUS
10
2.7374714566929135
20
-2.453997559055118
11
2.7396668897637793
21
-2.4472407086614174
0
LINE
8
BLACK
6
CONTINUOUS
10
2.7396668897637793
20
-2.4472407086614174
11
2.7428922834645668
21
-2.4409105118110235
0
LINE
8
BLACK
6
CONTINUOUS
10
2.7428922834645668
20
-2.4409105118110235
11
2.7470682283464565
21
-2.4351627952755903
0
LINE
8
BLACK
6
CONTINUOUS
10
2.7470682283464565
20
-2.4351627952755903
11
2.7520919291338584
21
-2.4301390944881889
0
LINE
8
BLACK
6
CONTINUOUS
10
2.7520919291338584
20
-2.4301390944881889
11
2.7578396456692911
21
-2.4259631496062992
0
LINE
8
BLACK
6
CONTINUOUS
10
2.7578396456692911
20
-2.4259631496062992
11
2.764169842519685
21
-2.4227377559055117
0
LINE
8
BLACK
6
CONTINUOUS
10
2.764169842519685
20
-2.4227377559055117
11
2.7709266929133856
21
-2.4205423228346454
0
LINE
8
BLACK
6
CONTINUOUS
10
2.7709266929133856
20
-2.4205423228346454
11
2.777943779527559
21
-2.4194309055118111
0
LINE
8
BLACK
6
CONTINUOUS
10
2.777943779527559
20
-2.4194309055118111
11
2.7850483464566929
21
-2.4194309055118111
0
LINE
8
BLACK
6
CONTINUOUS
10
2.7850483464566929
20
-2.4194309055118111
11
2.7920654330708663
21
-2.4205423228346454
0
LINE
8
BLACK
6
CONTINUOUS
10
2.7401574803149606
20
-2.4686384251968505
11
2.7417460629921258
21
-2.4766249606299211
0
LINE
8
BLACK
6
CONTINUOUS
10
2.7417460629921258
20
-2.4766249606299211
11
2.7448622834645668
21
-2.4841481102362204
0
LINE
8
BLACK
6
CONTINUOUS
10
2.7448622834645668
20
-2.4841481102362204
11
2.7493862598425198
21
-2.4909187401574804
0
LINE
8
BLACK
6
CONTINUOUS
10
2.7493862598425198
20
-2.4909187401574804
11
2.7551442519685039
21
-2.4966767322834644
0
LINE
8
BLACK
6
CONTINUOUS
10
2.7551442519685039
20
-2.4966767322834644
11
2.7619148818897639
21
-2.5012007086614174
0
LINE
8
BLACK
6
CONTINUOUS
10
2.7619148818897639
20
-2.5012007086614174
11
2.7694380314960627
21
-2.5043169291338581
0
LINE
8
BLACK
6
CONTINUOUS
10
2.7694380314960627
20
-2.5043169291338581
11
2.7774245669291338
21
-2.5059055118110236
0
LINE
8
BLACK
6
CONTINUOUS
10
2.7774245669291338
20
-2.5059055118110236
11
2.7855675590551181
21
-2.5059055118110236
0
LINE
8
BLACK
6
CONTINUOUS
10
2.7855675590551181
20
-2.5059055118110236
11
2.7935540944881887
21
-2.5043169291338581
0
LINE
8
BLACK
6
CONTINUOUS
10
2.7935540944881887
20
-2.5043169291338581
11
2.801077244094488
21
-2.5012007086614174
0
LINE
8
BLACK
6
CONTINUOUS
10
2.801077244094488
20
-2.5012007086614174
11
2.807847874015748
21
-2.4966767322834644
0
LINE
8
BLACK
6
CONTINUOUS
10
2.807847874015748
20
-2.4966767322834644
11
2.813605866141732
21
-2.4909187401574804
0
LINE
8
BLACK
6
CONTINUOUS
10
2.813605866141732
20
-2.4909187401574804
11
2.818129842519685
21
-2.4841481102362204
0
LINE
8
BLACK
6
CONTINUOUS
10
2.818129842519685
20
-2.4841481102362204
11
2.8212460629921261
21
-2.4766249606299211
0
LINE
8
BLACK
6
CONTINUOUS
10
2.8212460629921261
20
-2.4766249606299211
11
2.8228346456692912
21
-2.4686384251968505
0
LINE
8
BLACK
6
CONTINUOUS
10
2.8228346456692912
20
-2.4686384251968505
11
2.8228346456692912
21
-2.4604954330708662
0
LINE
8
BLACK
6
CONTINUOUS
10
2.8228346456692912
20
-2.4604954330708662
11
2.8212460629921261
21
-2.4525088976377951
0
LINE
8
BLACK
6
CONTINUOUS
10
2.8212460629921261
20
-2.4525088976377951
11
2.818129842519685
21
-2.4449857480314958
0
LINE
8
BLACK
6
CONTINUOUS
10
2.818129842519685
20
-2.4449857480314958
11
2.813605866141732
21
-2.4382151181102363
0
LINE
8
BLACK
6
CONTINUOUS
10
2.813605866141732
20
-2.4382151181102363
11
2.807847874015748
21
-2.4324571259842518
0
LINE
8
BLACK
6
CONTINUOUS
10
2.807847874015748
20
-2.4324571259842518
11
2.801077244094488
21
-2.4279331496062992
0
LINE
8
BLACK
6
CONTINUOUS
10
2.801077244094488
20
-2.4279331496062992
11
2.7935540944881887
21
-2.4248169291338582
0
LINE
8
BLACK
6
CONTINUOUS
10
2.7935540944881887
20
-2.4248169291338582
11
2.7855675590551181
21
-2.423228346456693
0
LINE
8
BLACK
6
CONTINUOUS
10
2.7855675590551181
20
-2.423228346456693
11
2.7774245669291338
21
-2.423228346456693
0
LINE
8
BLACK
6
CONTINUOUS
10
2.7774245669291338
20
-2.423228346456693
11
2.7694380314960627
21
-2.4248169291338582
0
LINE
8
BLACK
6
CONTINUOUS
10
2.7694380314960627
20
-2.4248169291338582
11
2.7619148818897639
21
-2.4279331496062992
0
LINE
8
BLACK
6
CONTINUOUS
10
2.7619148818897639
20
-2.4279331496062992
11
2.7551442519685039
21
-2.4324571259842518
0
LINE
8
BLACK
6
CONTINUOUS
10
2.7551442519685039
20
-2.4324571259842518
11
2.7493862598425198
21
-2.4382151181102363
0
LINE
8
BLACK
6
CONTINUOUS
10
2.7493862598425198
20
-2.4382151181102363
11
2.7448622834645668
21
-2.4449857480314958
0
LINE
8
BLACK
6
CONTINUOUS
10
2.7448622834645668
20
-2.4449857480314958
11
2.7417460629921258
21
-2.4525088976377951
0
LINE
8
BLACK
6
CONTINUOUS
10
2.7417460629921258
20
-2.4525088976377951
11
2.7401574803149606
21
-2.4604954330708662
0
LINE
8
BLACK
6
CONTINUOUS
10
2.7401574803149606
20
-2.4604954330708662
11
2.7401574803149606
21
-2.4686384251968505
0
LINE
8
BLACK
6
CONTINUOUS
10
6.9806481102362206
20
-2.4205423228346454
11
6.9874049606299211
21
-2.4227377559055117
0
LINE
8
BLACK
6
CONTINUOUS
10
6.9874049606299211
20
-2.4227377559055117
11
6.993735157480315
21
-2.4259631496062992
0
LINE
8
BLACK
6
CONTINUOUS
10
6.993735157480315
20
-2.4259631496062992
11
6.9994828740157482
21
-2.4301390944881889
0
LINE
8
BLACK
6
CONTINUOUS
10
6.9994828740157482
20
-2.4301390944881889
11
7.0045065748031492
21
-2.4351627952755903
0
LINE
8
BLACK
6
CONTINUOUS
10
7.0045065748031492
20
-2.4351627952755903
11
7.0086825196850393
21
-2.4409105118110235
0
LINE
8
BLACK
6
CONTINUOUS
10
7.0086825196850393
20
-2.4409105118110235
11
7.0119079133858264
21
-2.4472407086614174
0
LINE
8
BLACK
6
CONTINUOUS
10
7.0119079133858264
20
-2.4472407086614174
11
7.0141033464566931
21
-2.453997559055118
0
LINE
8
BLACK
6
CONTINUOUS
10
7.0141033464566931
20
-2.453997559055118
11
7.015214763779527
21
-2.4610146456692914
0
LINE
8
BLACK
6
CONTINUOUS
10
7.015214763779527
20
-2.4610146456692914
11
7.015214763779527
21
-2.4681192125984253
0
LINE
8
BLACK
6
CONTINUOUS
10
7.015214763779527
20
-2.4681192125984253
11
7.0141033464566931
21
-2.4751362992125983
0
LINE
8
BLACK
6
CONTINUOUS
10
7.0141033464566931
20
-2.4751362992125983
11
7.0119079133858264
21
-2.4818931496062993
0
LINE
8
BLACK
6
CONTINUOUS
10
7.0119079133858264
20
-2.4818931496062993
11
7.0086825196850393
21
-2.4882233464566927
0
LINE
8
BLACK
6
CONTINUOUS
10
7.0086825196850393
20
-2.4882233464566927
11
7.0045065748031492
21
-2.4939710629921259
0
LINE
8
BLACK
6
CONTINUOUS
10
7.0045065748031492
20
-2.4939710629921259
11
6.9994828740157482
21
-2.4989947637795273
0
LINE
8
BLACK
6
CONTINUOUS
10
6.9994828740157482
20
-2.4989947637795273
11
6.993735157480315
21
-2.5031707086614174
0
LINE
8
BLACK
6
CONTINUOUS
10
6.993735157480315
20
-2.5031707086614174
11
6.9874049606299211
21
-2.5063961023622046
0
LINE
8
BLACK
6
CONTINUOUS
10
6.9874049606299211
20
-2.5063961023622046
11
6.9806481102362206
21
-2.5085915354330708
0
LINE
8
BLACK
6
CONTINUOUS
10
6.9806481102362206
20
-2.5085915354330708
11
6.9736310236220467
21
-2.5097029527559056
0
LINE
8
BLACK
6
CONTINUOUS
10
6.9736310236220467
20
-2.5097029527559056
11
6.9665264566929128
21
-2.5097029527559056
0
LINE
8
BLACK
6
CONTINUOUS
10
6.9665264566929128
20
-2.5097029527559056
11
6.9595093700787398
21
-2.5085915354330708
0
LINE
8
BLACK
6
CONTINUOUS
10
6.9595093700787398
20
-2.5085915354330708
11
6.9527525196850393
21
-2.5063961023622046
0
LINE
8
BLACK
6
CONTINUOUS
10
6.9527525196850393
20
-2.5063961023622046
11
6.9464223228346453
21
-2.5031707086614174
0
LINE
8
BLACK
6
CONTINUOUS
10
6.9464223228346453
20
-2.5031707086614174
11
6.9406746062992122
21
-2.4989947637795273
0
LINE
8
BLACK
6
CONTINUOUS
10
6.9406746062992122
20
-2.4989947637795273
11
6.9356509055118112
21
-2.4939710629921259
0
LINE
8
BLACK
6
CONTINUOUS
10
6.9356509055118112
20
-2.4939710629921259
11
6.9314749606299211
21
-2.4882233464566927
0
LINE
8
BLACK
6
CONTINUOUS
10
6.9314749606299211
20
-2.4882233464566927
11
6.928249566929134
21
-2.4818931496062993
0
LINE
8
BLACK
6
CONTINUOUS
10
6.928249566929134
20
-2.4818931496062993
11
6.9260541338582673
21
-2.4751362992125983
0
LINE
8
BLACK
6
CONTINUOUS
10
6.9260541338582673
20
-2.4751362992125983
11
6.9249427165354325
21
-2.4681192125984253
0
LINE
8
BLACK
6
CONTINUOUS
10
6.9249427165354325
20
-2.4681192125984253
11
6.9249427165354325
21
-2.4610146456692914
0
LINE
8
BLACK
6
CONTINUOUS
10
6.9249427165354325
20
-2.4610146456692914
11
6.925024960629921
21
-2.4604954330708662
0
LINE
8
BLACK
6
CONTINUOUS
10
6.925024960629921
20
-2.4604954330708662
11
6.9260541338582673
21
-2.453997559055118
0
LINE
8
BLACK
6
CONTINUOUS
10
6.9260541338582673
20
-2.453997559055118
11
6.928249566929134
21
-2.4472407086614174
0
LINE
8
BLACK
6
CONTINUOUS
10
6.928249566929134
20
-2.4472407086614174
11
6.9314749606299211
21
-2.4409105118110235
0
LINE
8
BLACK
6
CONTINUOUS
10
6.9314749606299211
20
-2.4409105118110235
11
6.9356509055118112
21
-2.4351627952755903
0
LINE
8
BLACK
6
CONTINUOUS
10
6.9356509055118112
20
-2.4351627952755903
11
6.9406746062992122
21
-2.4301390944881889
0
LINE
8
BLACK
6
CONTINUOUS
10
6.9406746062992122
20
-2.4301390944881889
11
6.9464223228346453
21
-2.4259631496062992
0
LINE
8
BLACK
6
CONTINUOUS
10
6.9464223228346453
20
-2.4259631496062992
11
6.9527525196850393
21
-2.4227377559055117
0
LINE
8
BLACK
6
CONTINUOUS
10
6.9527525196850393
20
-2.4227377559055117
11
6.9595093700787398
21
-2.4205423228346454
0
LINE
8
BLACK
6
CONTINUOUS
10
6.9595093700787398
20
-2.4205423228346454
11
6.9665264566929128
21
-2.4194309055118111
0
LINE
8
BLACK
6
CONTINUOUS
10
6.9665264566929128
20
-2.4194309055118111
11
6.9736310236220467
21
-2.4194309055118111
0
LINE
8
BLACK
6
CONTINUOUS
10
6.9736310236220467
20
-2.4194309055118111
11
6.9806481102362206
21
-2.4205423228346454
0
LINE
8
BLACK
6
CONTINUOUS
10
6.9287401574803145
20
-2.4686384251968505
11
6.9303287401574805
21
-2.4766249606299211
0
LINE
8
BLACK
6
CONTINUOUS
10
6.9303287401574805
20
-2.4766249606299211
11
6.9334449606299211
21
-2.4841481102362204
0
LINE
8
BLACK
6
CONTINUOUS
10
6.9334449606299211
20
-2.4841481102362204
11
6.9379689370078736
21
-2.4909187401574804
0
LINE
8
BLACK
6
CONTINUOUS
10
6.9379689370078736
20
-2.4909187401574804
11
6.9437269291338577
21
-2.4966767322834644
0
LINE
8
BLACK
6
CONTINUOUS
10
6.9437269291338577
20
-2.4966767322834644
11
6.9504975590551181
21
-2.5012007086614174
0
LINE
8
BLACK
6
CONTINUOUS
10
6.9504975590551181
20
-2.5012007086614174
11
6.958020708661417
21
-2.5043169291338581
0
LINE
8
BLACK
6
CONTINUOUS
10
6.958020708661417
20
-2.5043169291338581
11
6.966007244094488
21
-2.5059055118110236
0
LINE
8
BLACK
6
CONTINUOUS
10
6.966007244094488
20
-2.5059055118110236
11
6.9741502362204724
21
-2.5059055118110236
0
LINE
8
BLACK
6
CONTINUOUS
10
6.9741502362204724
20
-2.5059055118110236
11
6.9821367716535434
21
-2.5043169291338581
0
LINE
8
BLACK
6
CONTINUOUS
10
6.9821367716535434
20
-2.5043169291338581
11
6.9896599212598423
21
-2.5012007086614174
0
LINE
8
BLACK
6
CONTINUOUS
10
6.9896599212598423
20
-2.5012007086614174
11
6.9964305511811018
21
-2.4966767322834644
0
LINE
8
BLACK
6
CONTINUOUS
10
6.9964305511811018
20
-2.4966767322834644
11
7.0021885433070867
21
-2.4909187401574804
0
LINE
8
BLACK
6
CONTINUOUS
10
7.0021885433070867
20
-2.4909187401574804
11
7.0067125196850393
21
-2.4841481102362204
0
LINE
8
BLACK
6
CONTINUOUS
10
7.0067125196850393
20
-2.4841481102362204
11
7.0098287401574799
21
-2.4766249606299211
0
LINE
8
BLACK
6
CONTINUOUS
10
7.0098287401574799
20
-2.4766249606299211
11
7.0114173228346459
21
-2.4686384251968505
0
LINE
8
BLACK
6
CONTINUOUS
10
7.0114173228346459
20
-2.4686384251968505
11
7.0114173228346459
21
-2.4604954330708662
0
LINE
8
BLACK
6
CONTINUOUS
10
7.0114173228346459
20
-2.4604954330708662
11
7.0098287401574799
21
-2.4525088976377951
0
LINE
8
BLACK
6
CONTINUOUS
10
7.0098287401574799
20
-2.4525088976377951
11
7.0067125196850393
21
-2.4449857480314958
0
LINE
8
BLACK
6
CONTINUOUS
10
7.0067125196850393
20
-2.4449857480314958
11
7.0021885433070867
21
-2.4382151181102363
0
LINE
8
BLACK
6
CONTINUOUS
10
7.0021885433070867
20
-2.4382151181102363
11
6.9964305511811018
21
-2.4324571259842518
0
LINE
8
BLACK
6
CONTINUOUS
10
6.9964305511811018
20
-2.4324571259842518
11
6.9896599212598423
21
-2.4279331496062992
0
LINE
8
BLACK
6
CONTINUOUS
10
6.9896599212598423
20
-2.4279331496062992
11
6.9821367716535434
21
-2.4248169291338582
0
LINE
8
BLACK
6
CONTINUOUS
10
6.9821367716535434
20
-2.4248169291338582
11
6.9741502362204724
21
-2.423228346456693
0
LINE
8
BLACK
6
CONTINUOUS
10
6.9741502362204724
20
-2.423228346456693
11
6.966007244094488
21
-2.423228346456693
0
LINE
8
BLACK
6
CONTINUOUS
10
6.966007244094488
20
-2.423228346456693
11
6.958020708661417
21
-2.4248169291338582
0
LINE
8
BLACK
6
CONTINUOUS
10
6.958020708661417
20
-2.4248169291338582
11
6.9504975590551181
21
-2.4279331496062992
0
LINE
8
BLACK
6
CONTINUOUS
10
6.9504975590551181
20
-2.4279331496062992
11
6.9437269291338577
21
-2.4324571259842518
0
LINE
8
BLACK
6
CONTINUOUS
10
6.9437269291338577
20
-2.4324571259842518
11
6.9379689370078736
21
-2.4382151181102363
0
LINE
8
BLACK
6
CONTINUOUS
10
6.9379689370078736
20
-2.4382151181102363
11
6.9334449606299211
21
-2.4449857480314958
0
LINE
8
BLACK
6
CONTINUOUS
10
6.9334449606299211
20
-2.4449857480314958
11
6.9303287401574805
21
-2.4525088976377951
0
LINE
8
BLACK
6
CONTINUOUS
10
6.9303287401574805
20
-2.4525088976377951
11
6.9287401574803145
21
-2.4604954330708662
0
LINE
8
BLACK
6
CONTINUOUS
10
6.9287401574803145
20
-2.4604954330708662
11
6.9287401574803145
21
-2.4686384251968505
0
LINE
8
BLACK
6
CONTINUOUS
10
2.7920654330708663
20
-1.6528257874015748
11
2.7988222834645669
21
-1.6550212204724408
0
LINE
8
BLACK
6
CONTINUOUS
10
2.7988222834645669
20
-1.6550212204724408
11
2.8051524803149608
21
-1.6582466141732284
0
LINE
8
BLACK
6
CONTINUOUS
10
2.8051524803149608
20
-1.6582466141732284
11
2.8109001968503935
21
-1.662422559055118
0
LINE
8
BLACK
6
CONTINUOUS
10
2.8109001968503935
20
-1.662422559055118
11
2.8159238976377954
21
-1.6674462598425197
0
LINE
8
BLACK
6
CONTINUOUS
10
2.8159238976377954
20
-1.6674462598425197
11
2.820099842519685
21
-1.6731939763779526
0
LINE
8
BLACK
6
CONTINUOUS
10
2.820099842519685
20
-1.6731939763779526
11
2.8233252362204722
21
-1.6795241732283464
0
LINE
8
BLACK
6
CONTINUOUS
10
2.8233252362204722
20
-1.6795241732283464
11
2.8255206692913384
21
-1.6862810236220471
0
LINE
8
BLACK
6
CONTINUOUS
10
2.8255206692913384
20
-1.6862810236220471
11
2.8266320866141732
21
-1.6932981102362203
0
LINE
8
BLACK
6
CONTINUOUS
10
2.8266320866141732
20
-1.6932981102362203
11
2.8266320866141732
21
-1.7004026771653542
0
LINE
8
BLACK
6
CONTINUOUS
10
2.8266320866141732
20
-1.7004026771653542
11
2.8255206692913384
21
-1.7074197637795274
0
LINE
8
BLACK
6
CONTINUOUS
10
2.8255206692913384
20
-1.7074197637795274
11
2.8233252362204722
21
-1.7141766141732282
0
LINE
8
BLACK
6
CONTINUOUS
10
2.8233252362204722
20
-1.7141766141732282
11
2.820099842519685
21
-1.7205068110236219
0
LINE
8
BLACK
6
CONTINUOUS
10
2.820099842519685
20
-1.7205068110236219
11
2.8159238976377954
21
-1.7262545275590551
0
LINE
8
BLACK
6
CONTINUOUS
10
2.8159238976377954
20
-1.7262545275590551
11
2.8109001968503935
21
-1.7312782283464567
0
LINE
8
BLACK
6
CONTINUOUS
10
2.8109001968503935
20
-1.7312782283464567
11
2.8051524803149608
21
-1.7354541732283464
0
LINE
8
BLACK
6
CONTINUOUS
10
2.8051524803149608
20
-1.7354541732283464
11
2.7988222834645669
21
-1.7386795669291337
0
LINE
8
BLACK
6
CONTINUOUS
10
2.7988222834645669
20
-1.7386795669291337
11
2.7920654330708663
21
-1.740875
0
LINE
8
BLACK
6
CONTINUOUS
10
2.7920654330708663
20
-1.740875
11
2.7850483464566929
21
-1.7419864173228345
0
LINE
8
BLACK
6
CONTINUOUS
10
2.7850483464566929
20
-1.7419864173228345
11
2.777943779527559
21
-1.7419864173228345
0
LINE
8
BLACK
6
CONTINUOUS
10
2.777943779527559
20
-1.7419864173228345
11
2.7709266929133856
21
-1.740875
0
LINE
8
BLACK
6
CONTINUOUS
10
2.7709266929133856
20
-1.740875
11
2.764169842519685
21
-1.7386795669291337
0
LINE
8
BLACK
6
CONTINUOUS
10
2.764169842519685
20
-1.7386795669291337
11
2.7578396456692911
21
-1.7354541732283464
0
LINE
8
BLACK
6
CONTINUOUS
10
2.7578396456692911
20
-1.7354541732283464
11
2.7520919291338584
21
-1.7312782283464567
0
LINE
8
BLACK
6
CONTINUOUS
10
2.7520919291338584
20
-1.7312782283464567
11
2.7470682283464565
21
-1.7262545275590551
0
LINE
8
BLACK
6
CONTINUOUS
10
2.7470682283464565
20
-1.7262545275590551
11
2.7428922834645668
21
-1.7205068110236219
0
LINE
8
BLACK
6
CONTINUOUS
10
2.7428922834645668
20
-1.7205068110236219
11
2.7396668897637793
21
-1.7141766141732282
0
LINE
8
BLACK
6
CONTINUOUS
10
2.7396668897637793
20
-1.7141766141732282
11
2.7374714566929135
21
-1.7074197637795274
0
LINE
8
BLACK
6
CONTINUOUS
10
2.7374714566929135
20
-1.7074197637795274
11
2.7363600393700787
21
-1.7004026771653542
0
LINE
8
BLACK
6
CONTINUOUS
10
2.7363600393700787
20
-1.7004026771653542
11
2.7363600393700787
21
-1.6932981102362203
0
LINE
8
BLACK
6
CONTINUOUS
10
2.7363600393700787
20
-1.6932981102362203
11
2.7364422834645667
21
-1.6927788976377953
0
LINE
8
BLACK
6
CONTINUOUS
10
2.7364422834645667
20
-1.6927788976377953
11
2.7374714566929135
21
-1.6862810236220471
0
LINE
8
BLACK
6
CONTINUOUS
10
2.7374714566929135
20
-1.6862810236220471
11
2.7396668897637793
21
-1.6795241732283464
0
LINE
8
BLACK
6
CONTINUOUS
10
2.7396668897637793
20
-1.6795241732283464
11
2.7428922834645668
21
-1.6731939763779526
0
LINE
8
BLACK
6
CONTINUOUS
10
2.7428922834645668
20
-1.6731939763779526
11
2.7470682283464565
21
-1.6674462598425197
0
LINE
8
BLACK
6
CONTINUOUS
10
2.7470682283464565
20
-1.6674462598425197
11
2.7520919291338584
21
-1.662422559055118
0
LINE
8
BLACK
6
CONTINUOUS
10
2.7520919291338584
20
-1.662422559055118
11
2.7578396456692911
21
-1.6582466141732284
0
LINE
8
BLACK
6
CONTINUOUS
10
2.7578396456692911
20
-1.6582466141732284
11
2.764169842519685
21
-1.6550212204724408
0
LINE
8
BLACK
6
CONTINUOUS
10
2.764169842519685
20
-1.6550212204724408
11
2.7709266929133856
21
-1.6528257874015748
0
LINE
8
BLACK
6
CONTINUOUS
10
2.7709266929133856
20
-1.6528257874015748
11
2.777943779527559
21
-1.6517143700787402
0
LINE
8
BLACK
6
CONTINUOUS
10
2.777943779527559
20
-1.6517143700787402
11
2.7850483464566929
21
-1.6517143700787402
0
LINE
8
BLACK
6
CONTINUOUS
10
2.7850483464566929
20
-1.6517143700787402
11
2.7920654330708663
21
-1.6528257874015748
0
LINE
8
BLACK
6
CONTINUOUS
10
2.7401574803149606
20
-1.7009218897637794
11
2.7417460629921258
21
-1.7089084251968503
0
LINE
8
BLACK
6
CONTINUOUS
10
2.7417460629921258
20
-1.7089084251968503
11
2.7448622834645668
21
-1.7164315748031496
0
LINE
8
BLACK
6
CONTINUOUS
10
2.7448622834645668
20
-1.7164315748031496
11
2.7493862598425198
21
-1.7232022047244093
0
LINE
8
BLACK
6
CONTINUOUS
10
2.7493862598425198
20
-1.7232022047244093
11
2.7551442519685039
21
-1.7289601968503936
0
LINE
8
BLACK
6
CONTINUOUS
10
2.7551442519685039
20
-1.7289601968503936
11
2.7619148818897639
21
-1.7334841732283464
0
LINE
8
BLACK
6
CONTINUOUS
10
2.7619148818897639
20
-1.7334841732283464
11
2.7694380314960627
21
-1.7366003937007874
0
LINE
8
BLACK
6
CONTINUOUS
10
2.7694380314960627
20
-1.7366003937007874
11
2.7774245669291338
21
-1.7381889763779528
0
LINE
8
BLACK
6
CONTINUOUS
10
2.7774245669291338
20
-1.7381889763779528
11
2.7855675590551181
21
-1.7381889763779528
0
LINE
8
BLACK
6
CONTINUOUS
10
2.7855675590551181
20
-1.7381889763779528
11
2.7935540944881887
21
-1.7366003937007874
0
LINE
8
BLACK
6
CONTINUOUS
10
2.7935540944881887
20
-1.7366003937007874
11
2.801077244094488
21
-1.7334841732283464
0
LINE
8
BLACK
6
CONTINUOUS
10
2.801077244094488
20
-1.7334841732283464
11
2.807847874015748
21
-1.7289601968503936
0
LINE
8
BLACK
6
CONTINUOUS
10
2.807847874015748
20
-1.7289601968503936
11
2.813605866141732
21
-1.7232022047244093
0
LINE
8
BLACK
6
CONTINUOUS
10
2.813605866141732
20
-1.7232022047244093
11
2.818129842519685
21
-1.7164315748031496
0
LINE
8
BLACK
6
CONTINUOUS
10
2.818129842519685
20
-1.7164315748031496
11
2.8212460629921261
21
-1.7089084251968503
0
LINE
8
BLACK
6
CONTINUOUS
10
2.8212460629921261
20
-1.7089084251968503
11
2.8228346456692912
21
-1.7009218897637794
0
LINE
8
BLACK
6
CONTINUOUS
10
2.8228346456692912
20
-1.7009218897637794
11
2.8228346456692912
21
-1.6927788976377953
0
LINE
8
BLACK
6
CONTINUOUS
10
2.8228346456692912
20
-1.6927788976377953
11
2.8212460629921261
21
-1.6847923622047243
0
LINE
8
BLACK
6
CONTINUOUS
10
2.8212460629921261
20
-1.6847923622047243
11
2.818129842519685
21
-1.6772692125984252
0
LINE
8
BLACK
6
CONTINUOUS
10
2.818129842519685
20
-1.6772692125984252
11
2.813605866141732
21
-1.6704985826771652
0
LINE
8
BLACK
6
CONTINUOUS
10
2.813605866141732
20
-1.6704985826771652
11
2.807847874015748
21
-1.664740590551181
0
LINE
8
BLACK
6
CONTINUOUS
10
2.807847874015748
20
-1.664740590551181
11
2.801077244094488
21
-1.6602166141732284
0
LINE
8
BLACK
6
CONTINUOUS
10
2.801077244094488
20
-1.6602166141732284
11
2.7935540944881887
21
-1.6571003937007873
0
LINE
8
BLACK
6
CONTINUOUS
10
2.7935540944881887
20
-1.6571003937007873
11
2.7855675590551181
21
-1.655511811023622
0
LINE
8
BLACK
6
CONTINUOUS
10
2.7855675590551181
20
-1.655511811023622
11
2.7774245669291338
21
-1.655511811023622
0
LINE
8
BLACK
6
CONTINUOUS
10
2.7774245669291338
20
-1.655511811023622
11
2.7694380314960627
21
-1.6571003937007873
0
LINE
8
BLACK
6
CONTINUOUS
10
2.7694380314960627
20
-1.6571003937007873
11
2.7619148818897639
21
-1.6602166141732284
0
LINE
8
BLACK
6
CONTINUOUS
10
2.7619148818897639
20
-1.6602166141732284
11
2.7551442519685039
21
-1.664740590551181
0
LINE
8
BLACK
6
CONTINUOUS
10
2.7551442519685039
20
-1.664740590551181
11
2.7493862598425198
21
-1.6704985826771652
0
LINE
8
BLACK
6
CONTINUOUS
10
2.7493862598425198
20
-1.6704985826771652
11
2.7448622834645668
21
-1.6772692125984252
0
LINE
8
BLACK
6
CONTINUOUS
10
2.7448622834645668
20
-1.6772692125984252
11
2.7417460629921258
21
-1.6847923622047243
0
LINE
8
BLACK
6
CONTINUOUS
10
2.7417460629921258
20
-1.6847923622047243
11
2.7401574803149606
21
-1.6927788976377953
0
LINE
8
BLACK
6
CONTINUOUS
10
2.7401574803149606
20
-1.6927788976377953
11
2.7401574803149606
21
-1.7009218897637794
0
LINE
8
BLACK
6
CONTINUOUS
10
6.9806481102362206
20
-1.6528257874015748
11
6.9874049606299211
21
-1.6550212204724408
0
LINE
8
BLACK
6
CONTINUOUS
10
6.9874049606299211
20
-1.6550212204724408
11
6.993735157480315
21
-1.6582466141732284
0
LINE
8
BLACK
6
CONTINUOUS
10
6.993735157480315
20
-1.6582466141732284
11
6.9994828740157482
21
-1.662422559055118
0
LINE
8
BLACK
6
CONTINUOUS
10
6.9994828740157482
20
-1.662422559055118
11
7.0045065748031492
21
-1.6674462598425197
0
LINE
8
BLACK
6
CONTINUOUS
10
7.0045065748031492
20
-1.6674462598425197
11
7.0086825196850393
21
-1.6731939763779526
0
LINE
8
BLACK
6
CONTINUOUS
10
7.0086825196850393
20
-1.6731939763779526
11
7.0119079133858264
21
-1.6795241732283464
0
LINE
8
BLACK
6
CONTINUOUS
10
7.0119079133858264
20
-1.6795241732283464
11
7.0141033464566931
21
-1.6862810236220471
0
LINE
8
BLACK
6
CONTINUOUS
10
7.0141033464566931
20
-1.6862810236220471
11
7.015214763779527
21
-1.6932981102362203
0
LINE
8
BLACK
6
CONTINUOUS
10
7.015214763779527
20
-1.6932981102362203
11
7.015214763779527
21
-1.7004026771653542
0
LINE
8
BLACK
6
CONTINUOUS
10
7.015214763779527
20
-1.7004026771653542
11
7.0141033464566931
21
-1.7074197637795274
0
LINE
8
BLACK
6
CONTINUOUS
10
7.0141033464566931
20
-1.7074197637795274
11
7.0119079133858264
21
-1.7141766141732282
0
LINE
8
BLACK
6
CONTINUOUS
10
7.0119079133858264
20
-1.7141766141732282
11
7.0086825196850393
21
-1.7205068110236219
0
LINE
8
BLACK
6
CONTINUOUS
10
7.0086825196850393
20
-1.7205068110236219
11
7.0045065748031492
21
-1.7262545275590551
0
LINE
8
BLACK
6
CONTINUOUS
10
7.0045065748031492
20
-1.7262545275590551
11
6.9994828740157482
21
-1.7312782283464567
0
LINE
8
BLACK
6
CONTINUOUS
10
6.9994828740157482
20
-1.7312782283464567
11
6.993735157480315
21
-1.7354541732283464
0
LINE
8
BLACK
6
CONTINUOUS
10
6.993735157480315
20
-1.7354541732283464
11
6.9874049606299211
21
-1.7386795669291337
0
LINE
8
BLACK
6
CONTINUOUS
10
6.9874049606299211
20
-1.7386795669291337
11
6.9806481102362206
21
-1.740875
0
LINE
8
BLACK
6
CONTINUOUS
10
6.9806481102362206
20
-1.740875
11
6.9736310236220467
21
-1.7419864173228345
0
LINE
8
BLACK
6
CONTINUOUS
10
6.9736310236220467
20
-1.7419864173228345
11
6.9665264566929128
21
-1.7419864173228345
0
LINE
8
BLACK
6
CONTINUOUS
10
6.9665264566929128
20
-1.7419864173228345
11
6.9595093700787398
21
-1.740875
0
LINE
8
BLACK
6
CONTINUOUS
10
6.9595093700787398
20
-1.740875
11
6.9527525196850393
21
-1.7386795669291337
0
LINE
8
BLACK
6
CONTINUOUS
10
6.9527525196850393
20
-1.7386795669291337
11
6.9464223228346453
21
-1.7354541732283464
0
LINE
8
BLACK
6
CONTINUOUS
10
6.9464223228346453
20
-1.7354541732283464
11
6.9406746062992122
21
-1.7312782283464567
0
LINE
8
BLACK
6
CONTINUOUS
10
6.9406746062992122
20
-1.7312782283464567
11
6.9356509055118112
21
-1.7262545275590551
0
LINE
8
BLACK
6
CONTINUOUS
10
6.9356509055118112
20
-1.7262545275590551
11
6.9314749606299211
21
-1.7205068110236219
0
LINE
8
BLACK
6
CONTINUOUS
10
6.9314749606299211
20
-1.7205068110236219
11
6.928249566929134
21
-1.7141766141732282
0
LINE
8
BLACK
6
CONTINUOUS
10
6.928249566929134
20
-1.7141766141732282
11
6.9260541338582673
21
-1.7074197637795274
0
LINE
8
BLACK
6
CONTINUOUS
10
6.9260541338582673
20
-1.7074197637795274
11
6.9249427165354325
21
-1.7004026771653542
0
LINE
8
BLACK
6
CONTINUOUS
10
6.9249427165354325
20
-1.7004026771653542
11
6.9249427165354325
21
-1.6932981102362203
0
LINE
8
BLACK
6
CONTINUOUS
10
6.9249427165354325
20
-1.6932981102362203
11
6.925024960629921
21
-1.6927788976377953
0
LINE
8
BLACK
6
CONTINUOUS
10
6.925024960629921
20
-1.6927788976377953
11
6.9260541338582673
21
-1.6862810236220471
0
LINE
8
BLACK
6
CONTINUOUS
10
6.9260541338582673
20
-1.6862810236220471
11
6.928249566929134
21
-1.6795241732283464
0
LINE
8
BLACK
6
CONTINUOUS
10
6.928249566929134
20
-1.6795241732283464
11
6.9314749606299211
21
-1.6731939763779526
0
LINE
8
BLACK
6
CONTINUOUS
10
6.9314749606299211
20
-1.6731939763779526
11
6.9356509055118112
21
-1.6674462598425197
0
LINE
8
BLACK
6
CONTINUOUS
10
6.9356509055118112
20
-1.6674462598425197
11
6.9406746062992122
21
-1.662422559055118
0
LINE
8
BLACK
6
CONTINUOUS
10
6.9406746062992122
20
-1.662422559055118
11
6.9464223228346453
21
-1.6582466141732284
0
LINE
8
BLACK
6
CONTINUOUS
10
6.9464223228346453
20
-1.6582466141732284
11
6.9527525196850393
21
-1.6550212204724408
0
LINE
8
BLACK
6
CONTINUOUS
10
6.9527525196850393
20
-1.6550212204724408
11
6.9595093700787398
21
-1.6528257874015748
0
LINE
8
BLACK
6
CONTINUOUS
10
6.9595093700787398
20
-1.6528257874015748
11
6.9665264566929128
21
-1.6517143700787402
0
LINE
8
BLACK
6
CONTINUOUS
10
6.9665264566929128
20
-1.6517143700787402
11
6.9736310236220467
21
-1.6517143700787402
0
LINE
8
BLACK
6
CONTINUOUS
10
6.9736310236220467
20
-1.6517143700787402
11
6.9806481102362206
21
-1.6528257874015748
0
LINE
8
BLACK
6
CONTINUOUS
10
6.9287401574803145
20
-1.7009218897637794
11
6.9303287401574805
21
-1.7089084251968503
0
LINE
8
BLACK
6
CONTINUOUS
10
6.9303287401574805
20
-1.7089084251968503
11
6.9334449606299211
21
-1.7164315748031496
0
LINE
8
BLACK
6
CONTINUOUS
10
6.9334449606299211
20
-1.7164315748031496
11
6.9379689370078736
21
-1.7232022047244093
0
LINE
8
BLACK
6
CONTINUOUS
10
6.9379689370078736
20
-1.7232022047244093
11
6.9437269291338577
21
-1.7289601968503936
0
LINE
8
BLACK
6
CONTINUOUS
10
6.9437269291338577
20
-1.7289601968503936
11
6.9504975590551181
21
-1.7334841732283464
0
LINE
8
BLACK
6
CONTINUOUS
10
6.9504975590551181
20
-1.7334841732283464
11
6.958020708661417
21
-1.7366003937007874
0
LINE
8
BLACK
6
CONTINUOUS
10
6.958020708661417
20
-1.7366003937007874
11
6.966007244094488
21
-1.7381889763779528
0
LINE
8
BLACK
6
CONTINUOUS
10
6.966007244094488
20
-1.7381889763779528
11
6.9741502362204724
21
-1.7381889763779528
0
LINE
8
BLACK
6
CONTINUOUS
10
6.9741502362204724
20
-1.7381889763779528
11
6.9821367716535434
21
-1.7366003937007874
0
LINE
8
BLACK
6
CONTINUOUS
10
6.9821367716535434
20
-1.7366003937007874
11
6.9896599212598423
21
-1.7334841732283464
0
LINE
8
BLACK
6
CONTINUOUS
10
6.9896599212598423
20
-1.7334841732283464
11
6.9964305511811018
21
-1.7289601968503936
0
LINE
8
BLACK
6
CONTINUOUS
10
6.9964305511811018
20
-1.7289601968503936
11
7.0021885433070867
21
-1.7232022047244093
0
LINE
8
BLACK
6
CONTINUOUS
10
7.0021885433070867
20
-1.7232022047244093
11
7.0067125196850393
21
-1.7164315748031496
0
LINE
8
BLACK
6
CONTINUOUS
10
7.0067125196850393
20
-1.7164315748031496
11
7.0098287401574799
21
-1.7089084251968503
0
LINE
8
BLACK
6
CONTINUOUS
10
7.0098287401574799
20
-1.7089084251968503
11
7.0114173228346459
21
-1.7009218897637794
0
LINE
8
BLACK
6
CONTINUOUS
10
7.0114173228346459
20
-1.7009218897637794
11
7.0114173228346459
21
-1.6927788976377953
0
LINE
8
BLACK
6
CONTINUOUS
10
7.0114173228346459
20
-1.6927788976377953
11
7.0098287401574799
21
-1.6847923622047243
0
LINE
8
BLACK
6
CONTINUOUS
10
7.0098287401574799
20
-1.6847923622047243
11
7.0067125196850393
21
-1.6772692125984252
0
LINE
8
BLACK
6
CONTINUOUS
10
7.0067125196850393
20
-1.6772692125984252
11
7.0021885433070867
21
-1.6704985826771652
0
LINE
8
BLACK
6
CONTINUOUS
10
7.0021885433070867
20
-1.6704985826771652
11
6.9964305511811018
21
-1.664740590551181
0
LINE
8
BLACK
6
CONTINUOUS
10
6.9964305511811018
20
-1.664740590551181
11
6.9896599212598423
21
-1.6602166141732284
0
LINE
8
BLACK
6
CONTINUOUS
10
6.9896599212598423
20
-1.6602166141732284
11
6.9821367716535434
21
-1.6571003937007873
0
LINE
8
BLACK
6
CONTINUOUS
10
6.9821367716535434
20
-1.6571003937007873
11
6.9741502362204724
21
-1.655511811023622
0
LINE
8
BLACK
6
CONTINUOUS
10
6.9741502362204724
20
-1.655511811023622
11
6.966007244094488
21
-1.655511811023622
0
LINE
8
BLACK
6
CONTINUOUS
10
6.966007244094488
20
-1.655511811023622
11
6.958020708661417
21
-1.6571003937007873
0
LINE
8
BLACK
6
CONTINUOUS
10
6.958020708661417
20
-1.6571003937007873
11
6.9504975590551181
21
-1.6602166141732284
0
LINE
8
BLACK
6
CONTINUOUS
10
6.9504975590551181
20
-1.6602166141732284
11
6.9437269291338577
21
-1.664740590551181
0
LINE
8
BLACK
6
CONTINUOUS
10
6.9437269291338577
20
-1.664740590551181
11
6.9379689370078736
21
-1.6704985826771652
0
LINE
8
BLACK
6
CONTINUOUS
10
6.9379689370078736
20
-1.6704985826771652
11
6.9334449606299211
21
-1.6772692125984252
0
LINE
8
BLACK
6
CONTINUOUS
10
6.9334449606299211
20
-1.6772692125984252
11
6.9303287401574805
21
-1.6847923622047243
0
LINE
8
BLACK
6
CONTINUOUS
10
6.9303287401574805
20
-1.6847923622047243
11
6.9287401574803145
21
-1.6927788976377953
0
LINE
8
BLACK
6
CONTINUOUS
10
6.9287401574803145
20
-1.6927788976377953
11
6.9287401574803145
21
-1.7009218897637794
0
LINE
8
BLACK
6
CONTINUOUS
10
2.7992125984251968
20
-1.5383858267716535
11
6.909448818897638
21
-1.5383858267716535
0
LINE
8
BLACK
6
CONTINUOUS
10
6.909448818897638
20
-1.5383858267716535
11
7.0078740157480315
21
-1.5383858267716535
0
LINE
8
BLACK
6
CONTINUOUS
10
7.0078740157480315
20
-1.5383858267716535
11
7.0203227952755904
21
-1.5390382283464568
0
LINE
8
BLACK
6
CONTINUOUS
10
7.0203227952755904
20
-1.5390382283464568
11
7.032635157480315
21
-1.5409883464566929
0
LINE
8
BLACK
6
CONTINUOUS
10
7.032635157480315
20
-1.5409883464566929
11
7.0446762204724411
21
-1.5442147244094488
0
LINE
8
BLACK
6
CONTINUOUS
10
7.0446762204724411
20
-1.5442147244094488
11
7.0563140944881892
21
-1.5486820866141733
0
LINE
8
BLACK
6
CONTINUOUS
10
7.0563140944881892
20
-1.5486820866141733
11
7.0674212598425195
21
-1.5543414566929135
0
LINE
8
BLACK
6
CONTINUOUS
10
7.0674212598425195
20
-1.5543414566929135
11
7.0778759842519685
21
-1.5611308661417322
0
LINE
8
BLACK
6
CONTINUOUS
10
7.0778759842519685
20
-1.5611308661417322
11
7.0875637795275592
21
-1.5689758661417323
0
LINE
8
BLACK
6
CONTINUOUS
10
7.0875637795275592
20
-1.5689758661417323
11
7.0963784645669286
21
-1.5777905511811023
0
LINE
8
BLACK
6
CONTINUOUS
10
7.0963784645669286
20
-1.5777905511811023
11
7.1042234645669291
21
-1.5874783464566928
0
LINE
8
BLACK
6
CONTINUOUS
10
7.1042234645669291
20
-1.5874783464566928
11
7.1110128740157474
21
-1.5979330708661417
0
LINE
8
BLACK
6
CONTINUOUS
10
7.1110128740157474
20
-1.5979330708661417
11
7.1166722440944881
21
-1.6090402362204723
0
LINE
8
BLACK
6
CONTINUOUS
10
7.1166722440944881
20
-1.6090402362204723
11
7.1211396062992121
21
-1.6206781102362204
0
LINE
8
BLACK
6
CONTINUOUS
10
7.1211396062992121
20
-1.6206781102362204
11
7.124365984251968
21
-1.6327191732283464
0
LINE
8
BLACK
6
CONTINUOUS
10
7.124365984251968
20
-1.6327191732283464
11
7.1263161023622041
21
-1.6450315354330709
0
LINE
8
BLACK
6
CONTINUOUS
10
7.1263161023622041
20
-1.6450315354330709
11
7.1269685039370074
21
-1.6574803149606299
0
LINE
8
BLACK
6
CONTINUOUS
10
7.1269685039370074
20
-1.6574803149606299
11
7.1269685039370074
21
-6.2578740157480315
0
LINE
8
BLACK
6
CONTINUOUS
10
7.1269685039370074
20
-6.2578740157480315
11
7.1263161023622041
21
-6.2703227952755904
0
LINE
8
BLACK
6
CONTINUOUS
10
7.1263161023622041
20
-6.2703227952755904
11
7.124365984251968
21
-6.282635157480315
0
LINE
8
BLACK
6
CONTINUOUS
10
7.124365984251968
20
-6.282635157480315
11
7.1211396062992121
21
-6.2946762204724411
0
LINE
8
BLACK
6
CONTINUOUS
10
7.1211396062992121
20
-6.2946762204724411
11
7.1166722440944881
21
-6.3063140944881892
0
LINE
8
BLACK
6
CONTINUOUS
10
7.1166722440944881
20
-6.3063140944881892
11
7.1110128740157474
21
-6.3174212598425195
0
LINE
8
BLACK
6
CONTINUOUS
10
7.1110128740157474
20
-6.3174212598425195
11
7.1042234645669291
21
-6.3278759842519685
0
LINE
8
BLACK
6
CONTINUOUS
10
7.1042234645669291
20
-6.3278759842519685
11
7.0963784645669286
21
-6.3375637795275592
0
LINE
8
BLACK
6
CONTINUOUS
10
7.0963784645669286
20
-6.3375637795275592
11
7.0875637795275592
21
-6.3463784645669286
0
LINE
8
BLACK
6
CONTINUOUS
10
7.0875637795275592
20
-6.3463784645669286
11
7.0778759842519685
21
-6.3542234645669291
0
LINE
8
BLACK
6
CONTINUOUS
10
7.0778759842519685
20
-6.3542234645669291
11
7.0674212598425195
21
-6.3610128740157483
0
LINE
8
BLACK
6
CONTINUOUS
10
7.0674212598425195
20
-6.3610128740157483
11
7.0563140944881892
21
-6.3666722440944881
0
LINE
8
BLACK
6
CONTINUOUS
10
7.0563140944881892
20
-6.3666722440944881
11
7.0446762204724411
21
-6.3711396062992121
0
LINE
8
BLACK
6
CONTINUOUS
10
7.0446762204724411
20
-6.3711396062992121
11
7.032635157480315
21
-6.374365984251968
0
LINE
8
BLACK
6
CONTINUOUS
10
7.032635157480315
20
-6.374365984251968
11
7.0203227952755904
21
-6.3763161023622041
0
LINE
8
BLACK
6
CONTINUOUS
10
7.0203227952755904
20
-6.3763161023622041
11
7.0078740157480315
21
-6.3769685039370074
0
LINE
8
BLACK
6
CONTINUOUS
10
7.0078740157480315
20
-6.3769685039370074
11
2.7421259842519685
21
-6.3769685039370074
0
LINE
8
BLACK
6
CONTINUOUS
10
2.7421259842519685
20
-6.3769685039370074
11
2.7296772047244096
21
-6.3763161023622041
0
LINE
8
BLACK
6
CONTINUOUS
10
2.7296772047244096
20
-6.3763161023622041
11
2.717364842519685
21
-6.374365984251968
0
LINE
8
BLACK
6
CONTINUOUS
10
2.717364842519685
20
-6.374365984251968
11
2.7053237795275589
21
-6.3711396062992121
0
LINE
8
BLACK
6
CONTINUOUS
10
2.7053237795275589
20
-6.3711396062992121
11
2.6936859055118108
21
-6.3666722440944881
0
LINE
8
BLACK
6
CONTINUOUS
10
2.6936859055118108
20
-6.3666722440944881
11
2.6825787401574801
21
-6.3610128740157483
0
LINE
8
BLACK
6
CONTINUOUS
10
2.6825787401574801
20
-6.3610128740157483
11
2.6721240157480315
21
-6.3542234645669291
0
LINE
8
BLACK
6
CONTINUOUS
10
2.6721240157480315
20
-6.3542234645669291
11
2.6624362204724408
21
-6.3463784645669286
0
LINE
8
BLACK
6
CONTINUOUS
10
2.6624362204724408
20
-6.3463784645669286
11
2.653621535433071
21
-6.3375637795275592
0
LINE
8
BLACK
6
CONTINUOUS
10
2.653621535433071
20
-6.3375637795275592
11
2.6457765354330709
21
-6.3278759842519685
0
LINE
8
BLACK
6
CONTINUOUS
10
2.6457765354330709
20
-6.3278759842519685
11
2.6389871259842521
21
-6.3174212598425195
0
LINE
8
BLACK
6
CONTINUOUS
10
2.6389871259842521
20
-6.3174212598425195
11
2.6333277559055119
21
-6.3063140944881892
0
LINE
8
BLACK
6
CONTINUOUS
10
2.6333277559055119
20
-6.3063140944881892
11
2.6288603937007875
21
-6.2946762204724411
0
LINE
8
BLACK
6
CONTINUOUS
10
2.6288603937007875
20
-6.2946762204724411
11
2.6256340157480316
21
-6.282635157480315
0
LINE
8
BLACK
6
CONTINUOUS
10
2.6256340157480316
20
-6.282635157480315
11
2.6236838976377954
21
-6.2703227952755904
0
LINE
8
BLACK
6
CONTINUOUS
10
2.6236838976377954
20
-6.2703227952755904
11
2.6230314960629921
21
-6.2578740157480315
0
LINE
8
BLACK
6
CONTINUOUS
10
2.6230314960629921
20
-6.2578740157480315
11
2.6230314960629921
21
-1.6574803149606299
0
LINE
8
BLACK
6
CONTINUOUS
10
2.6230314960629921
20
-1.6574803149606299
11
2.6236838976377954
21
-1.6450315354330709
0
LINE
8
BLACK
6
CONTINUOUS
10
2.6236838976377954
20
-1.6450315354330709
11
2.6256340157480316
21
-1.6327191732283464
0
LINE
8
BLACK
6
CONTINUOUS
10
2.6256340157480316
20
-1.6327191732283464
11
2.6288603937007875
21
-1.6206781102362204
0
LINE
8
BLACK
6
CONTINUOUS
10
2.6288603937007875
20
-1.6206781102362204
11
2.6333277559055119
21
-1.6090402362204723
0
LINE
8
BLACK
6
CONTINUOUS
10
2.6333277559055119
20
-1.6090402362204723
11
2.6389871259842521
21
-1.5979330708661417
0
LINE
8
BLACK
6
CONTINUOUS
10
2.6389871259842521
20
-1.5979330708661417
11
2.6457765354330709
21
-1.5874783464566928
0
LINE
8
BLACK
6
CONTINUOUS
10
2.6457765354330709
20
-1.5874783464566928
11
2.653621535433071
21
-1.5777905511811023
0
LINE
8
BLACK
6
CONTINUOUS
10
2.653621535433071
20
-1.5777905511811023
11
2.6624362204724408
21
-1.5689758661417323
0
LINE
8
BLACK
6
CONTINUOUS
10
2.6624362204724408
20
-1.5689758661417323
11
2.6721240157480315
21
-1.5611308661417322
0
LINE
8
BLACK
6
CONTINUOUS
10
2.6721240157480315
20
-1.5611308661417322
11
2.6825787401574801
21
-1.5543414566929135
0
LINE
8
BLACK
6
CONTINUOUS
10
2.6825787401574801
20
-1.5543414566929135
11
2.6936859055118108
21
-1.5486820866141733
0
LINE
8
BLACK
6
CONTINUOUS
10
2.6936859055118108
20
-1.5486820866141733
11
2.7053237795275589
21
-1.5442147244094488
0
LINE
8
BLACK
6
CONTINUOUS
10
2.7053237795275589
20
-1.5442147244094488
11
2.717364842519685
21
-1.5409883464566929
0
LINE
8
BLACK
6
CONTINUOUS
10
2.717364842519685
20
-1.5409883464566929
11
2.7296772047244096
21
-1.5390382283464568
0
LINE
8
BLACK
6
CONTINUOUS
10
2.7296772047244096
20
-1.5390382283464568
11
2.7421259842519685
21
-1.5383858267716535
0
LINE
8
BLACK
6
CONTINUOUS
10
2.7421259842519685
20
-1.5383858267716535
11
2.7992125984251968
21
-1.5383858267716535
0
LINE
8
BLACK
6
CONTINUOUS
10
2.7421259842519685
20
-1.5403543307086613
11
2.7359876771653542
21
-1.5403543307086613
0
LINE
8
BLACK
6
CONTINUOUS
10
2.7359876771653542
20
-1.5403543307086613
11
2.7237783070866142
21
-1.5416375590551181
0
LINE
8
BLACK
6
CONTINUOUS
10
2.7237783070866142
20
-1.5416375590551181
11
2.7117699606299213
21
-1.5441900393700787
0
LINE
8
BLACK
6
CONTINUOUS
10
2.7117699606299213
20
-1.5441900393700787
11
2.7000941732283463
21
-1.5479837007874016
0
LINE
8
BLACK
6
CONTINUOUS
10
2.7000941732283463
20
-1.5479837007874016
11
2.6888789370078738
21
-1.5529770866141732
0
LINE
8
BLACK
6
CONTINUOUS
10
2.6888789370078738
20
-1.5529770866141732
11
2.6782470472440942
21
-1.5591153937007873
0
LINE
8
BLACK
6
CONTINUOUS
10
2.6782470472440942
20
-1.5591153937007873
11
2.6683150393700785
21
-1.5663314173228347
0
LINE
8
BLACK
6
CONTINUOUS
10
2.6683150393700785
20
-1.5663314173228347
11
2.6591917322834644
21
-1.574546062992126
0
LINE
8
BLACK
6
CONTINUOUS
10
2.6591917322834644
20
-1.574546062992126
11
2.6509770866141733
21
-1.5836693700787401
0
LINE
8
BLACK
6
CONTINUOUS
10
2.6509770866141733
20
-1.5836693700787401
11
2.6437610629921258
21
-1.5936013779527558
0
LINE
8
BLACK
6
CONTINUOUS
10
2.6437610629921258
20
-1.5936013779527558
11
2.6376227559055119
21
-1.6042332677165354
0
LINE
8
BLACK
6
CONTINUOUS
10
2.6376227559055119
20
-1.6042332677165354
11
2.6326293700787402
21
-1.6154485039370079
0
LINE
8
BLACK
6
CONTINUOUS
10
2.6326293700787402
20
-1.6154485039370079
11
2.6288357086614171
21
-1.6271242913385826
0
LINE
8
BLACK
6
CONTINUOUS
10
2.6288357086614171
20
-1.6271242913385826
11
2.6262832283464568
21
-1.6391326377952755
0
LINE
8
BLACK
6
CONTINUOUS
10
2.6262832283464568
20
-1.6391326377952755
11
2.625
21
-1.6513420078740157
0
LINE
8
BLACK
6
CONTINUOUS
10
2.625
20
-1.6513420078740157
11
2.625
21
-1.6574803149606299
0
LINE
8
BLACK
6
CONTINUOUS
10
2.625
20
-1.6574803149606299
11
2.625
21
-6.2578740157480315
0
LINE
8
BLACK
6
CONTINUOUS
10
2.625
20
-6.2578740157480315
11
2.625
21
-6.2640123228346454
0
LINE
8
BLACK
6
CONTINUOUS
10
2.625
20
-6.2640123228346454
11
2.6262832283464568
21
-6.2762216929133858
0
LINE
8
BLACK
6
CONTINUOUS
10
2.6262832283464568
20
-6.2762216929133858
11
2.6288357086614171
21
-6.2882300393700783
0
LINE
8
BLACK
6
CONTINUOUS
10
2.6288357086614171
20
-6.2882300393700783
11
2.6326293700787402
21
-6.2999058267716537
0
LINE
8
BLACK
6
CONTINUOUS
10
2.6326293700787402
20
-6.2999058267716537
11
2.6376227559055119
21
-6.3111210629921262
0
LINE
8
BLACK
6
CONTINUOUS
10
2.6376227559055119
20
-6.3111210629921262
11
2.6437610629921258
21
-6.3217529527559053
0
LINE
8
BLACK
6
CONTINUOUS
10
2.6437610629921258
20
-6.3217529527559053
11
2.6509770866141733
21
-6.3316849606299215
0
LINE
8
BLACK
6
CONTINUOUS
10
2.6509770866141733
20
-6.3316849606299215
11
2.6591917322834644
21
-6.3408082677165352
0
LINE
8
BLACK
6
CONTINUOUS
10
2.6591917322834644
20
-6.3408082677165352
11
2.6683150393700785
21
-6.3490229133858263
0
LINE
8
BLACK
6
CONTINUOUS
10
2.6683150393700785
20
-6.3490229133858263
11
2.6782470472440942
21
-6.3562389370078742
0
LINE
8
BLACK
6
CONTINUOUS
10
2.6782470472440942
20
-6.3562389370078742
11
2.6888789370078738
21
-6.3623772440944881
0
LINE
8
BLACK
6
CONTINUOUS
10
2.6888789370078738
20
-6.3623772440944881
11
2.7000941732283463
21
-6.3673706299212594
0
LINE
8
BLACK
6
CONTINUOUS
10
2.7000941732283463
20
-6.3673706299212594
11
2.7117699606299213
21
-6.3711642913385829
0
LINE
8
BLACK
6
CONTINUOUS
10
2.7117699606299213
20
-6.3711642913385829
11
2.7237783070866142
21
-6.3737167716535428
0
LINE
8
BLACK
6
CONTINUOUS
10
2.7237783070866142
20
-6.3737167716535428
11
2.7359876771653542
21
-6.375
0
LINE
8
BLACK
6
CONTINUOUS
10
2.7359876771653542
20
-6.375
11
2.7421259842519685
21
-6.375
0
LINE
8
BLACK
6
CONTINUOUS
10
2.7421259842519685
20
-6.375
11
7.0078740157480315
21
-6.375
0
LINE
8
BLACK
6
CONTINUOUS
10
7.0078740157480315
20
-6.375
11
7.0140123228346454
21
-6.375
0
LINE
8
BLACK
6
CONTINUOUS
10
7.0140123228346454
20
-6.375
11
7.0262216929133858
21
-6.3737167716535428
0
LINE
8
BLACK
6
CONTINUOUS
10
7.0262216929133858
20
-6.3737167716535428
11
7.0382300393700783
21
-6.3711642913385829
0
LINE
8
BLACK
6
CONTINUOUS
10
7.0382300393700783
20
-6.3711642913385829
11
7.0499058267716537
21
-6.3673706299212594
0
LINE
8
BLACK
6
CONTINUOUS
10
7.0499058267716537
20
-6.3673706299212594
11
7.0611210629921262
21
-6.3623772440944881
0
LINE
8
BLACK
6
CONTINUOUS
10
7.0611210629921262
20
-6.3623772440944881
11
7.0717529527559053
21
-6.3562389370078742
0
LINE
8
BLACK
6
CONTINUOUS
10
7.0717529527559053
20
-6.3562389370078742
11
7.0816849606299215
21
-6.3490229133858263
0
LINE
8
BLACK
6
CONTINUOUS
10
7.0816849606299215
20
-6.3490229133858263
11
7.0908082677165352
21
-6.3408082677165352
0
LINE
8
BLACK
6
CONTINUOUS
10
7.0908082677165352
20
-6.3408082677165352
11
7.0990229133858263
21
-6.3316849606299215
0
LINE
8
BLACK
6
CONTINUOUS
10
7.0990229133858263
20
-6.3316849606299215
11
7.1062389370078742
21
-6.3217529527559053
0
LINE
8
BLACK
6
CONTINUOUS
10
7.1062389370078742
20
-6.3217529527559053
11
7.1123772440944881
21
-6.3111210629921262
0
LINE
8
BLACK
6
CONTINUOUS
10
7.1123772440944881
20
-6.3111210629921262
11
7.1173706299212594
21
-6.2999058267716537
0
LINE
8
BLACK
6
CONTINUOUS
10
7.1173706299212594
20
-6.2999058267716537
11
7.1211642913385829
21
-6.2882300393700783
0
LINE
8
BLACK
6
CONTINUOUS
10
7.1211642913385829
20
-6.2882300393700783
11
7.1237167716535428
21
-6.2762216929133858
0
LINE
8
BLACK
6
CONTINUOUS
10
7.1237167716535428
20
-6.2762216929133858
11
7.125
21
-6.2640123228346454
0
LINE
8
BLACK
6
CONTINUOUS
10
7.125
20
-6.2640123228346454
11
7.125
21
-6.2578740157480315
0
LINE
8
BLACK
6
CONTINUOUS
10
7.125
20
-6.2578740157480315
11
7.125
21
-1.6574803149606299
0
LINE
8
BLACK
6
CONTINUOUS
10
7.125
20
-1.6574803149606299
11
7.125
21
-1.6513420078740157
0
LINE
8
BLACK
6
CONTINUOUS
10
7.125
20
-1.6513420078740157
11
7.1237167716535428
21
-1.6391326377952755
0
LINE
8
BLACK
6
CONTINUOUS
10
7.1237167716535428
20
-1.6391326377952755
11
7.1211642913385829
21
-1.6271242913385826
0
LINE
8
BLACK
6
CONTINUOUS
10
7.1211642913385829
20
-1.6271242913385826
11
7.1173706299212594
21
-1.6154485039370079
0
LINE
8
BLACK
6
CONTINUOUS
10
7.1173706299212594
20
-1.6154485039370079
11
7.1123772440944881
21
-1.6042332677165354
0
LINE
8
BLACK
6
CONTINUOUS
10
7.1123772440944881
20
-1.6042332677165354
11
7.1062389370078742
21
-1.5936013779527558
0
LINE
8
BLACK
6
CONTINUOUS
10
7.1062389370078742
20
-1.5936013779527558
11
7.0990229133858263
21
-1.5836693700787401
0
LINE
8
BLACK
6
CONTINUOUS
10
7.0990229133858263
20
-1.5836693700787401
11
7.0908082677165352
21
-1.574546062992126
0
LINE
8
BLACK
6
CONTINUOUS
10
7.0908082677165352
20
-1.574546062992126
11
7.0816849606299215
21
-1.5663314173228347
0
LINE
8
BLACK
6
CONTINUOUS
10
7.0816849606299215
20
-1.5663314173228347
11
7.0717529527559053
21
-1.5591153937007873
0
LINE
8
BLACK
6
CONTINUOUS
10
7.0717529527559053
20
-1.5591153937007873
11
7.0611210629921262
21
-1.5529770866141732
0
LINE
8
BLACK
6
CONTINUOUS
10
7.0611210629921262
20
-1.5529770866141732
11
7.0499058267716537
21
-1.5479837007874016
0
LINE
8
BLACK
6
CONTINUOUS
10
7.0499058267716537
20
-1.5479837007874016
11
7.0382300393700783
21
-1.5441900393700787
0
LINE
8
BLACK
6
CONTINUOUS
10
7.0382300393700783
20
-1.5441900393700787
11
7.0262216929133858
21
-1.5416375590551181
0
LINE
8
BLACK
6
CONTINUOUS
10
7.0262216929133858
20
-1.5416375590551181
11
7.0140123228346454
21
-1.5403543307086613
0
LINE
8
BLACK
6
CONTINUOUS
10
7.0140123228346454
20
-1.5403543307086613
11
7.0078740157480315
21
-1.5403543307086613
0
LINE
8
BLACK
6
CONTINUOUS
10
7.0078740157480315
20
-1.5403543307086613
11
6.909448818897638
21
-1.5403543307086613
0
LINE
8
BLACK
6
CONTINUOUS
10
6.909448818897638
20
-1.5403543307086613
11
2.7992125984251968
21
-1.5403543307086613
0
LINE
8
BLACK
6
CONTINUOUS
10
2.7992125984251968
20
-1.5403543307086613
11
2.7421259842519685
21
-1.5403543307086613
  0
ENDSEC
  0
EOF
