<?xml version="1.0" standalone="no"?>
 <!DOCTYPE svg PUBLIC "-//W3C//DTD SVG 1.1//EN" 
 "http://www.w3.org/Graphics/SVG/1.1/DTD/svg11.dtd"> 
<svg
  xmlns:svg="http://www.w3.org/2000/svg"
  xmlns="http://www.w3.org/2000/svg"
  xmlns:xlink="http://www.w3.org/1999/xlink"
  version="1.1"
  width="297.0022mm" height="210.0072mm" viewBox="0.0000 0.0000 297.0022 210.0072">
<title>SVG Image created as plate-Edge_Cuts.svg date 2025/04/05 12:51:50 </title>
  <desc>Image generated by PCBNEW </desc>
<g style="fill:#000000; fill-opacity:1.0000;stroke:#000000; stroke-opacity:1.0000;
stroke-linecap:round; stroke-linejoin:round;"
 transform="translate(0 0) scale(1 1)">
</g>
<g style="fill:none; 
stroke:#000000; stroke-width:0.0500; stroke-opacity:1; 
stroke-linecap:round; stroke-linejoin:round;">
<circle cx="85.7300" cy="85.8000" r="1.1000" /> 
<circle cx="161.9250" cy="85.7250" r="1.1000" /> 
<circle cx="123.8250" cy="104.7750" r="1.1000" /> 
<circle cx="161.9000" cy="142.9000" r="1.1000" /> 
<circle cx="85.7250" cy="142.8750" r="1.1000" /> 
<path d="M177.9700 161.9200 A3.0000 3.0000 0.0 0 0 180.9700 158.9200" />
<path style="fill:none; 
stroke:#000000; stroke-width:0.1000; stroke-opacity:1; 
stroke-linecap:round; stroke-linejoin:round;fill:none"
d="M 69.2000,145.4000
102.2500,145.4000
102.2500,159.4000
69.2000,159.4000
Z" /> 
</g>
<g style="fill:none; 
stroke:#000000; stroke-width:0.0500; stroke-opacity:1; 
stroke-linecap:round; stroke-linejoin:round;">
<path d="M66.6700 158.9200
L66.6700 69.6800
" />
<path style="fill:none; 
stroke:#000000; stroke-width:0.1000; stroke-opacity:1; 
stroke-linecap:round; stroke-linejoin:round;fill:none"
d="M 145.4000,145.4000
178.4500,145.4000
178.4500,159.4000
145.4000,159.4000
Z" /> 
</g>
<g style="fill:none; 
stroke:#000000; stroke-width:0.0500; stroke-opacity:1; 
stroke-linecap:round; stroke-linejoin:round;">
<path d="M69.6700 66.6800
L177.9700 66.6800
" />
<path d="M180.9700 69.6800 A3.0000 3.0000 0.0 0 0 177.9700 66.6800" />
<path d="M66.6700 158.9200 A3.0000 3.0000 0.0 0 0 69.6700 161.9200" />
<path d="M177.9700 161.9200
L69.6700 161.9200
" />
<path d="M180.9700 69.6800
L180.9700 158.9200
" />
<path d="M69.6700 66.6800 A3.0000 3.0000 0.0 0 0 66.6700 69.6800" />
</g>
<g style="fill:none; 
stroke:#000000; stroke-width:0.1000; stroke-opacity:1; 
stroke-linecap:round; stroke-linejoin:round;">
<path d="M126.3500 69.2000
L126.3500 83.2000
" />
<path d="M126.3500 83.2000
L140.3500 83.2000
" />
<path d="M140.3500 69.2000
L126.3500 69.2000
" />
<path d="M140.3500 83.2000
L140.3500 69.2000
" />
<path d="M88.2500 88.2500
L88.2500 102.2500
" />
<path d="M88.2500 102.2500
L102.2500 102.2500
" />
<path d="M102.2500 88.2500
L88.2500 88.2500
" />
<path d="M102.2500 102.2500
L102.2500 88.2500
" />
<path d="M145.4000 88.2500
L145.4000 102.2500
" />
<path d="M145.4000 102.2500
L159.4000 102.2500
" />
<path d="M159.4000 88.2500
L145.4000 88.2500
" />
<path d="M159.4000 102.2500
L159.4000 88.2500
" />
<path d="M88.2500 107.3000
L88.2500 121.3000
" />
<path d="M88.2500 121.3000
L102.2500 121.3000
" />
<path d="M102.2500 107.3000
L88.2500 107.3000
" />
<path d="M102.2500 121.3000
L102.2500 107.3000
" />
<path d="M145.4000 69.2000
L145.4000 83.2000
" />
<path d="M145.4000 83.2000
L159.4000 83.2000
" />
<path d="M159.4000 69.2000
L145.4000 69.2000
" />
<path d="M159.4000 83.2000
L159.4000 69.2000
" />
<path d="M126.3500 88.2500
L126.3500 102.2500
" />
<path d="M126.3500 102.2500
L140.3500 102.2500
" />
<path d="M140.3500 88.2500
L126.3500 88.2500
" />
<path d="M140.3500 102.2500
L140.3500 88.2500
" />
<path d="M88.2500 69.2000
L88.2500 83.2000
" />
<path d="M88.2500 83.2000
L102.2500 83.2000
" />
<path d="M102.2500 69.2000
L88.2500 69.2000
" />
<path d="M102.2500 83.2000
L102.2500 69.2000
" />
<path d="M164.4500 88.2500
L164.4500 102.2500
" />
<path d="M164.4500 102.2500
L178.4500 102.2500
" />
<path d="M178.4500 88.2500
L164.4500 88.2500
" />
<path d="M178.4500 102.2500
L178.4500 88.2500
" />
<path d="M88.2500 126.3500
L88.2500 140.3500
" />
<path d="M88.2500 140.3500
L102.2500 140.3500
" />
<path d="M102.2500 126.3500
L88.2500 126.3500
" />
<path d="M102.2500 140.3500
L102.2500 126.3500
" />
<path d="M145.4000 107.3000
L145.4000 121.3000
" />
<path d="M145.4000 121.3000
L159.4000 121.3000
" />
<path d="M159.4000 107.3000
L145.4000 107.3000
" />
<path d="M159.4000 121.3000
L159.4000 107.3000
" />
<path d="M69.2000 126.3500
L69.2000 140.3500
" />
<path d="M69.2000 140.3500
L83.2000 140.3500
" />
<path d="M83.2000 126.3500
L69.2000 126.3500
" />
<path d="M83.2000 140.3500
L83.2000 126.3500
" />
<path d="M107.3000 126.3500
L107.3000 140.3500
" />
<path d="M107.3000 140.3500
L121.3000 140.3500
" />
<path d="M121.3000 126.3500
L107.3000 126.3500
" />
<path d="M121.3000 140.3500
L121.3000 126.3500
" />
<path d="M107.3000 107.3000
L107.3000 121.3000
" />
<path d="M107.3000 121.3000
L121.3000 121.3000
" />
<path d="M121.3000 107.3000
L107.3000 107.3000
" />
<path d="M121.3000 121.3000
L121.3000 107.3000
" />
<path d="M164.4500 107.3000
L164.4500 121.3000
" />
<path d="M164.4500 121.3000
L178.4500 121.3000
" />
<path d="M178.4500 107.3000
L164.4500 107.3000
" />
<path d="M178.4500 121.3000
L178.4500 107.3000
" />
<path d="M126.3500 145.4000
L126.3500 159.4000
" />
<path d="M126.3500 159.4000
L140.3500 159.4000
" />
<path d="M140.3500 145.4000
L126.3500 145.4000
" />
<path d="M140.3500 159.4000
L140.3500 145.4000
" />
<path d="M145.4000 126.3500
L145.4000 140.3500
" />
<path d="M145.4000 140.3500
L159.4000 140.3500
" />
<path d="M159.4000 126.3500
L145.4000 126.3500
" />
<path d="M159.4000 140.3500
L159.4000 126.3500
" />
<path d="M107.3000 69.2000
L107.3000 83.2000
" />
<path d="M107.3000 83.2000
L121.3000 83.2000
" />
<path d="M121.3000 69.2000
L107.3000 69.2000
" />
<path d="M121.3000 83.2000
L121.3000 69.2000
" />
<path d="M69.2000 69.2000
L69.2000 83.2000
" />
<path d="M69.2000 83.2000
L83.2000 83.2000
" />
<path d="M83.2000 69.2000
L69.2000 69.2000
" />
<path d="M83.2000 83.2000
L83.2000 69.2000
" />
<path d="M126.3500 126.3500
L126.3500 140.3500
" />
<path d="M126.3500 140.3500
L140.3500 140.3500
" />
<path d="M140.3500 126.3500
L126.3500 126.3500
" />
<path d="M140.3500 140.3500
L140.3500 126.3500
" />
<path d="M107.3000 145.4000
L107.3000 159.4000
" />
<path d="M107.3000 159.4000
L121.3000 159.4000
" />
<path d="M121.3000 145.4000
L107.3000 145.4000
" />
<path d="M121.3000 159.4000
L121.3000 145.4000
" />
<path d="M69.2000 88.2500
L69.2000 102.2500
" />
<path d="M69.2000 102.2500
L83.2000 102.2500
" />
<path d="M83.2000 88.2500
L69.2000 88.2500
" />
<path d="M83.2000 102.2500
L83.2000 88.2500
" />
<path d="M107.3000 88.2500
L107.3000 102.2500
" />
<path d="M107.3000 102.2500
L121.3000 102.2500
" />
<path d="M121.3000 88.2500
L107.3000 88.2500
" />
<path d="M121.3000 102.2500
L121.3000 88.2500
" />
<path d="M126.3500 107.3000
L126.3500 121.3000
" />
<path d="M126.3500 121.3000
L140.3500 121.3000
" />
<path d="M140.3500 107.3000
L126.3500 107.3000
" />
<path d="M140.3500 121.3000
L140.3500 107.3000
" />
<path d="M164.4500 69.2000
L164.4500 83.2000
" />
<path d="M164.4500 83.2000
L178.4500 83.2000
" />
<path d="M178.4500 69.2000
L164.4500 69.2000
" />
<path d="M178.4500 83.2000
L178.4500 69.2000
" />
<path d="M69.2000 107.3000
L69.2000 121.3000
" />
<path d="M69.2000 121.3000
L83.2000 121.3000
" />
<path d="M83.2000 107.3000
L69.2000 107.3000
" />
<path d="M83.2000 121.3000
L83.2000 107.3000
" />
<path d="M164.4500 126.3500
L164.4500 140.3500
" />
<path d="M164.4500 140.3500
L178.4500 140.3500
" />
<path d="M178.4500 126.3500
L164.4500 126.3500
" />
<path d="M178.4500 140.3500
L178.4500 126.3500
" />
</g> 
</svg>
