<?xml version="1.0" standalone="no"?>
 <!DOCTYPE svg PUBLIC "-//W3C//DTD SVG 1.1//EN" 
 "http://www.w3.org/Graphics/SVG/1.1/DTD/svg11.dtd"> 
<svg
  xmlns:svg="http://www.w3.org/2000/svg"
  xmlns="http://www.w3.org/2000/svg"
  xmlns:xlink="http://www.w3.org/1999/xlink"
  version="1.1"
  width="297.0022mm" height="210.0072mm" viewBox="0.0000 0.0000 297.0022 210.0072">
<title>SVG Image created as panel-Edge_Cuts.svg date 2025/04/05 12:52:57 </title>
  <desc>Image generated by PCBNEW </desc>
<g style="fill:#000000; fill-opacity:1.0000;stroke:#000000; stroke-opacity:1.0000;
stroke-linecap:round; stroke-linejoin:round;"
 transform="translate(0 0) scale(1 1)">
</g>
<g style="fill:none; 
stroke:#000000; stroke-width:0.0500; stroke-opacity:1; 
stroke-linecap:round; stroke-linejoin:round;">
<path d="M180.5036 66.6300 A0.5000 0.5000 0.0 0 0 181.0036 66.1300" />
<circle cx="177.0400" cy="62.6000" r="1.1000" /> 
<path d="M66.6536 66.1300
L66.6536 42.1000
" />
<circle cx="70.6500" cy="62.6000" r="1.1000" /> 
<path d="M181.0036 42.1000 A3.0000 3.0000 0.0 0 0 178.0036 39.1000" />
<path d="M69.6536 39.1000 A3.0000 3.0000 0.0 0 0 66.6536 42.1000" />
<circle cx="70.6500" cy="43.1000" r="1.1000" /> 
<circle cx="177.0400" cy="43.1000" r="1.1000" /> 
<path d="M69.6536 39.1000
L178.0036 39.1000
" />
<path d="M180.5036 66.6300
L67.1536 66.6300
" />
<path d="M66.6536 66.1300 A0.5000 0.5000 0.0 0 0 67.1536 66.6300" />
<path d="M181.0036 42.1000
L181.0036 66.1300
" />
<path d="M88.3000 39.1000
L158.3000 39.1000
" />
</g> 
</svg>
